STARTFONT 2.2
FONT -Scriptwide-GuanZhi 8px-Book-R-Normal--8-80-75-75-P-79-ISO10646-1
SIZE 8 75 75
FONTBOUNDINGBOX 8 9 0 -2
METRICSSET 2
SWIDTH 1000 0
DWIDTH 8 0
SWIDTH1 1000 0
DWIDTH1 8 0
VVECTOR 4,6
COMMENT "Generated by fontforge, http://fontforge.sourceforge.net"
COMMENT "NO"
STARTPROPERTIES 39
FOUNDRY "Scriptwide"
FAMILY_NAME "GuanZhi 8px"
WEIGHT_NAME "Book"
SLANT "R"
SETWIDTH_NAME "Normal"
ADD_STYLE_NAME ""
PIXEL_SIZE 8
POINT_SIZE 80
RESOLUTION_X 75
RESOLUTION_Y 75
SPACING "P"
AVERAGE_WIDTH 79
CHARSET_REGISTRY "ISO10646"
CHARSET_ENCODING "1"
FONTNAME_REGISTRY ""
CHARSET_COLLECTIONS "ISO8859-5 JISX0208.1997 GB2312.1980 BIG5 ISO10646-1"
FONT_NAME "GuanZhi-8px"
FACE_NAME "GuanZhi 8px"
COPYRIGHT "NO"
FONT_VERSION "001.000"
FONT_ASCENT 6
FONT_DESCENT 2
UNDERLINE_POSITION -1
UNDERLINE_THICKNESS 1
X_HEIGHT 3
CAP_HEIGHT 5
RAW_ASCENT 750
RAW_DESCENT 250
RELATIVE_WEIGHT 40
RELATIVE_SETWIDTH 50
SUPERSCRIPT_X 0
SUPERSCRIPT_Y 3
SUPERSCRIPT_SIZE 5
SUBSCRIPT_X 0
SUBSCRIPT_Y 1
SUBSCRIPT_SIZE 5
FIGURE_WIDTH 4
AVG_LOWERCASE_WIDTH 61
AVG_UPPERCASE_WIDTH 64
ENDPROPERTIES
CHARS 11597
STARTCHAR exclam
ENCODING 33
SWIDTH 500 0
DWIDTH 4 0
BBX 1 6 1 0
BITMAP
80
80
80
80
00
80
ENDCHAR
STARTCHAR quotedbl
ENCODING 34
SWIDTH 500 0
DWIDTH 4 0
BBX 3 2 0 4
BITMAP
A0
A0
ENDCHAR
STARTCHAR numbersign
ENCODING 35
SWIDTH 500 0
DWIDTH 4 0
BBX 3 6 0 0
BITMAP
A0
E0
A0
A0
E0
A0
ENDCHAR
STARTCHAR dollar
ENCODING 36
SWIDTH 500 0
DWIDTH 4 0
BBX 3 6 0 0
BITMAP
40
E0
C0
60
E0
40
ENDCHAR
STARTCHAR percent
ENCODING 37
SWIDTH 500 0
DWIDTH 4 0
BBX 3 5 0 0
BITMAP
80
20
40
80
20
ENDCHAR
STARTCHAR ampersand
ENCODING 38
SWIDTH 500 0
DWIDTH 4 0
BBX 4 6 0 0
BITMAP
40
A0
A0
50
A0
D0
ENDCHAR
STARTCHAR quotesingle
ENCODING 39
SWIDTH 500 0
DWIDTH 4 0
BBX 2 2 0 4
BITMAP
40
80
ENDCHAR
STARTCHAR parenleft
ENCODING 40
SWIDTH 500 0
DWIDTH 4 0
BBX 2 7 1 -1
BITMAP
40
80
80
80
80
80
40
ENDCHAR
STARTCHAR parenright
ENCODING 41
SWIDTH 500 0
DWIDTH 4 0
BBX 2 7 0 -1
BITMAP
80
40
40
40
40
40
80
ENDCHAR
STARTCHAR asterisk
ENCODING 42
SWIDTH 500 0
DWIDTH 4 0
BBX 3 4 0 2
BITMAP
40
E0
40
A0
ENDCHAR
STARTCHAR plus
ENCODING 43
SWIDTH 500 0
DWIDTH 4 0
BBX 3 5 0 0
BITMAP
40
40
E0
40
40
ENDCHAR
STARTCHAR comma
ENCODING 44
SWIDTH 500 0
DWIDTH 4 0
BBX 2 2 1 -1
BITMAP
40
80
ENDCHAR
STARTCHAR hyphen
ENCODING 45
SWIDTH 500 0
DWIDTH 4 0
BBX 3 1 0 2
BITMAP
E0
ENDCHAR
STARTCHAR period
ENCODING 46
SWIDTH 500 0
DWIDTH 4 0
BBX 1 1 1 0
BITMAP
80
ENDCHAR
STARTCHAR slash
ENCODING 47
SWIDTH 500 0
DWIDTH 4 0
BBX 3 3 0 1
BITMAP
20
40
80
ENDCHAR
STARTCHAR zero
ENCODING 48
SWIDTH 500 0
DWIDTH 4 0
BBX 3 5 0 0
BITMAP
40
A0
A0
A0
40
ENDCHAR
STARTCHAR one
ENCODING 49
SWIDTH 500 0
DWIDTH 4 0
BBX 3 5 0 0
BITMAP
40
C0
40
40
E0
ENDCHAR
STARTCHAR two
ENCODING 50
SWIDTH 500 0
DWIDTH 4 0
BBX 3 5 0 0
BITMAP
C0
20
40
80
E0
ENDCHAR
STARTCHAR three
ENCODING 51
SWIDTH 500 0
DWIDTH 4 0
BBX 3 5 0 0
BITMAP
C0
20
40
20
C0
ENDCHAR
STARTCHAR four
ENCODING 52
SWIDTH 500 0
DWIDTH 4 0
BBX 3 5 0 0
BITMAP
20
60
A0
E0
20
ENDCHAR
STARTCHAR five
ENCODING 53
SWIDTH 500 0
DWIDTH 4 0
BBX 3 5 0 0
BITMAP
E0
80
C0
20
C0
ENDCHAR
STARTCHAR six
ENCODING 54
SWIDTH 500 0
DWIDTH 4 0
BBX 3 5 0 0
BITMAP
E0
80
E0
A0
E0
ENDCHAR
STARTCHAR seven
ENCODING 55
SWIDTH 500 0
DWIDTH 4 0
BBX 3 5 0 0
BITMAP
E0
20
40
40
40
ENDCHAR
STARTCHAR eight
ENCODING 56
SWIDTH 500 0
DWIDTH 4 0
BBX 3 5 0 0
BITMAP
E0
A0
E0
A0
E0
ENDCHAR
STARTCHAR nine
ENCODING 57
SWIDTH 500 0
DWIDTH 4 0
BBX 3 5 0 0
BITMAP
E0
A0
E0
20
E0
ENDCHAR
STARTCHAR colon
ENCODING 58
SWIDTH 500 0
DWIDTH 4 0
BBX 1 3 1 1
BITMAP
80
00
80
ENDCHAR
STARTCHAR semicolon
ENCODING 59
SWIDTH 500 0
DWIDTH 4 0
BBX 2 4 0 0
BITMAP
40
00
40
80
ENDCHAR
STARTCHAR less
ENCODING 60
SWIDTH 500 0
DWIDTH 4 0
BBX 3 5 0 0
BITMAP
20
40
80
40
20
ENDCHAR
STARTCHAR equal
ENCODING 61
SWIDTH 500 0
DWIDTH 4 0
BBX 3 3 0 1
BITMAP
E0
00
E0
ENDCHAR
STARTCHAR greater
ENCODING 62
SWIDTH 500 0
DWIDTH 4 0
BBX 3 5 0 0
BITMAP
80
40
20
40
80
ENDCHAR
STARTCHAR question
ENCODING 63
SWIDTH 500 0
DWIDTH 4 0
BBX 3 6 0 0
BITMAP
40
A0
20
40
00
40
ENDCHAR
STARTCHAR at
ENCODING 64
SWIDTH 500 0
DWIDTH 4 0
BBX 3 6 0 0
BITMAP
40
A0
20
60
A0
40
ENDCHAR
STARTCHAR A
ENCODING 65
SWIDTH 500 0
DWIDTH 4 0
BBX 3 6 0 0
BITMAP
40
A0
A0
E0
A0
A0
ENDCHAR
STARTCHAR B
ENCODING 66
SWIDTH 500 0
DWIDTH 4 0
BBX 3 6 0 0
BITMAP
C0
A0
C0
A0
A0
C0
ENDCHAR
STARTCHAR C
ENCODING 67
SWIDTH 500 0
DWIDTH 4 0
BBX 3 6 0 0
BITMAP
60
80
80
80
80
60
ENDCHAR
STARTCHAR D
ENCODING 68
SWIDTH 500 0
DWIDTH 4 0
BBX 3 6 0 0
BITMAP
C0
A0
A0
A0
A0
C0
ENDCHAR
STARTCHAR E
ENCODING 69
SWIDTH 500 0
DWIDTH 4 0
BBX 3 6 0 0
BITMAP
E0
80
C0
80
80
E0
ENDCHAR
STARTCHAR F
ENCODING 70
SWIDTH 500 0
DWIDTH 4 0
BBX 3 6 0 0
BITMAP
E0
80
C0
80
80
80
ENDCHAR
STARTCHAR G
ENCODING 71
SWIDTH 500 0
DWIDTH 4 0
BBX 3 6 0 0
BITMAP
60
80
80
A0
A0
60
ENDCHAR
STARTCHAR H
ENCODING 72
SWIDTH 500 0
DWIDTH 4 0
BBX 3 6 0 0
BITMAP
A0
A0
A0
E0
A0
A0
ENDCHAR
STARTCHAR I
ENCODING 73
SWIDTH 500 0
DWIDTH 4 0
BBX 3 6 0 0
BITMAP
E0
40
40
40
40
E0
ENDCHAR
STARTCHAR J
ENCODING 74
SWIDTH 500 0
DWIDTH 4 0
BBX 3 6 0 0
BITMAP
20
20
20
20
A0
40
ENDCHAR
STARTCHAR K
ENCODING 75
SWIDTH 500 0
DWIDTH 4 0
BBX 3 6 0 0
BITMAP
A0
A0
C0
A0
A0
A0
ENDCHAR
STARTCHAR L
ENCODING 76
SWIDTH 500 0
DWIDTH 4 0
BBX 3 6 0 0
BITMAP
80
80
80
80
80
E0
ENDCHAR
STARTCHAR M
ENCODING 77
SWIDTH 500 0
DWIDTH 4 0
BBX 3 6 0 0
BITMAP
A0
E0
E0
A0
A0
A0
ENDCHAR
STARTCHAR N
ENCODING 78
SWIDTH 500 0
DWIDTH 4 0
BBX 3 6 0 0
BITMAP
C0
A0
A0
A0
A0
A0
ENDCHAR
STARTCHAR O
ENCODING 79
SWIDTH 500 0
DWIDTH 4 0
BBX 3 6 0 0
BITMAP
40
A0
A0
A0
A0
40
ENDCHAR
STARTCHAR P
ENCODING 80
SWIDTH 500 0
DWIDTH 4 0
BBX 3 6 0 0
BITMAP
C0
A0
A0
C0
80
80
ENDCHAR
STARTCHAR Q
ENCODING 81
SWIDTH 500 0
DWIDTH 4 0
BBX 3 7 0 -1
BITMAP
40
A0
A0
A0
A0
40
20
ENDCHAR
STARTCHAR R
ENCODING 82
SWIDTH 500 0
DWIDTH 4 0
BBX 3 6 0 0
BITMAP
C0
A0
A0
C0
A0
A0
ENDCHAR
STARTCHAR S
ENCODING 83
SWIDTH 500 0
DWIDTH 4 0
BBX 3 6 0 0
BITMAP
60
80
40
20
20
C0
ENDCHAR
STARTCHAR T
ENCODING 84
SWIDTH 500 0
DWIDTH 4 0
BBX 3 6 0 0
BITMAP
E0
40
40
40
40
40
ENDCHAR
STARTCHAR U
ENCODING 85
SWIDTH 500 0
DWIDTH 4 0
BBX 3 6 0 0
BITMAP
A0
A0
A0
A0
A0
E0
ENDCHAR
STARTCHAR V
ENCODING 86
SWIDTH 500 0
DWIDTH 4 0
BBX 3 6 0 0
BITMAP
A0
A0
A0
A0
C0
80
ENDCHAR
STARTCHAR W
ENCODING 87
SWIDTH 500 0
DWIDTH 4 0
BBX 3 6 0 0
BITMAP
A0
A0
A0
E0
E0
A0
ENDCHAR
STARTCHAR X
ENCODING 88
SWIDTH 500 0
DWIDTH 4 0
BBX 3 6 0 0
BITMAP
A0
A0
40
40
A0
A0
ENDCHAR
STARTCHAR Y
ENCODING 89
SWIDTH 500 0
DWIDTH 4 0
BBX 3 6 0 0
BITMAP
A0
A0
40
40
40
40
ENDCHAR
STARTCHAR Z
ENCODING 90
SWIDTH 500 0
DWIDTH 4 0
BBX 3 6 0 0
BITMAP
E0
20
40
40
80
E0
ENDCHAR
STARTCHAR bracketleft
ENCODING 91
SWIDTH 500 0
DWIDTH 4 0
BBX 2 7 1 -1
BITMAP
C0
80
80
80
80
80
C0
ENDCHAR
STARTCHAR backslash
ENCODING 92
SWIDTH 500 0
DWIDTH 4 0
BBX 3 3 0 1
BITMAP
80
40
20
ENDCHAR
STARTCHAR bracketright
ENCODING 93
SWIDTH 500 0
DWIDTH 4 0
BBX 2 7 0 -1
BITMAP
C0
40
40
40
40
40
C0
ENDCHAR
STARTCHAR asciicircum
ENCODING 94
SWIDTH 500 0
DWIDTH 4 0
BBX 3 2 0 4
BITMAP
40
A0
ENDCHAR
STARTCHAR underscore
ENCODING 95
SWIDTH 500 0
DWIDTH 4 0
BBX 3 1 0 -1
BITMAP
E0
ENDCHAR
STARTCHAR grave
ENCODING 96
SWIDTH 500 0
DWIDTH 4 0
BBX 2 2 1 4
BITMAP
80
40
ENDCHAR
STARTCHAR a
ENCODING 97
SWIDTH 500 0
DWIDTH 4 0
BBX 3 4 0 0
BITMAP
60
A0
A0
60
ENDCHAR
STARTCHAR b
ENCODING 98
SWIDTH 500 0
DWIDTH 4 0
BBX 3 6 0 0
BITMAP
80
80
C0
A0
A0
C0
ENDCHAR
STARTCHAR c
ENCODING 99
SWIDTH 500 0
DWIDTH 4 0
BBX 3 4 0 0
BITMAP
60
80
80
60
ENDCHAR
STARTCHAR d
ENCODING 100
SWIDTH 500 0
DWIDTH 4 0
BBX 3 6 0 0
BITMAP
20
20
60
A0
A0
60
ENDCHAR
STARTCHAR e
ENCODING 101
SWIDTH 500 0
DWIDTH 4 0
BBX 3 4 0 0
BITMAP
40
A0
C0
60
ENDCHAR
STARTCHAR f
ENCODING 102
SWIDTH 500 0
DWIDTH 4 0
BBX 3 6 0 0
BITMAP
60
40
E0
40
40
40
ENDCHAR
STARTCHAR g
ENCODING 103
SWIDTH 500 0
DWIDTH 4 0
BBX 3 5 0 -1
BITMAP
E0
A0
E0
20
E0
ENDCHAR
STARTCHAR h
ENCODING 104
SWIDTH 500 0
DWIDTH 4 0
BBX 3 6 0 0
BITMAP
80
80
C0
A0
A0
A0
ENDCHAR
STARTCHAR i
ENCODING 105
SWIDTH 500 0
DWIDTH 4 0
BBX 3 6 0 0
BITMAP
40
00
C0
40
40
E0
ENDCHAR
STARTCHAR j
ENCODING 106
SWIDTH 500 0
DWIDTH 4 0
BBX 2 7 0 -1
BITMAP
40
00
40
40
40
40
80
ENDCHAR
STARTCHAR k
ENCODING 107
SWIDTH 500 0
DWIDTH 4 0
BBX 3 6 0 0
BITMAP
80
80
A0
C0
A0
A0
ENDCHAR
STARTCHAR l
ENCODING 108
SWIDTH 500 0
DWIDTH 4 0
BBX 3 6 0 0
BITMAP
C0
40
40
40
40
E0
ENDCHAR
STARTCHAR m
ENCODING 109
SWIDTH 500 0
DWIDTH 4 0
BBX 3 4 0 0
BITMAP
A0
E0
A0
A0
ENDCHAR
STARTCHAR n
ENCODING 110
SWIDTH 500 0
DWIDTH 4 0
BBX 3 4 0 0
BITMAP
C0
A0
A0
A0
ENDCHAR
STARTCHAR o
ENCODING 111
SWIDTH 500 0
DWIDTH 4 0
BBX 3 4 0 0
BITMAP
40
A0
A0
40
ENDCHAR
STARTCHAR p
ENCODING 112
SWIDTH 500 0
DWIDTH 4 0
BBX 3 5 0 -1
BITMAP
C0
A0
A0
C0
80
ENDCHAR
STARTCHAR q
ENCODING 113
SWIDTH 500 0
DWIDTH 4 0
BBX 3 5 0 -1
BITMAP
60
A0
A0
60
20
ENDCHAR
STARTCHAR r
ENCODING 114
SWIDTH 500 0
DWIDTH 4 0
BBX 3 4 0 0
BITMAP
A0
C0
80
80
ENDCHAR
STARTCHAR s
ENCODING 115
SWIDTH 500 0
DWIDTH 4 0
BBX 3 4 0 0
BITMAP
60
C0
60
C0
ENDCHAR
STARTCHAR t
ENCODING 116
SWIDTH 500 0
DWIDTH 4 0
BBX 3 5 0 0
BITMAP
40
E0
40
40
60
ENDCHAR
STARTCHAR u
ENCODING 117
SWIDTH 500 0
DWIDTH 4 0
BBX 3 4 0 0
BITMAP
A0
A0
A0
60
ENDCHAR
STARTCHAR v
ENCODING 118
SWIDTH 500 0
DWIDTH 4 0
BBX 3 4 0 0
BITMAP
A0
A0
40
40
ENDCHAR
STARTCHAR w
ENCODING 119
SWIDTH 500 0
DWIDTH 4 0
BBX 3 4 0 0
BITMAP
A0
A0
E0
A0
ENDCHAR
STARTCHAR x
ENCODING 120
SWIDTH 500 0
DWIDTH 4 0
BBX 3 4 0 0
BITMAP
A0
40
40
A0
ENDCHAR
STARTCHAR y
ENCODING 121
SWIDTH 500 0
DWIDTH 4 0
BBX 3 5 0 -1
BITMAP
A0
A0
60
20
C0
ENDCHAR
STARTCHAR z
ENCODING 122
SWIDTH 500 0
DWIDTH 4 0
BBX 3 4 0 0
BITMAP
E0
20
40
E0
ENDCHAR
STARTCHAR braceleft
ENCODING 123
SWIDTH 500 0
DWIDTH 4 0
BBX 3 7 0 -1
BITMAP
20
40
40
80
40
40
20
ENDCHAR
STARTCHAR bar
ENCODING 124
SWIDTH 500 0
DWIDTH 4 0
BBX 1 7 1 -1
BITMAP
80
80
80
80
80
80
80
ENDCHAR
STARTCHAR braceright
ENCODING 125
SWIDTH 500 0
DWIDTH 4 0
BBX 3 7 0 -1
BITMAP
80
40
40
20
40
40
80
ENDCHAR
STARTCHAR asciitilde
ENCODING 126
SWIDTH 500 0
DWIDTH 4 0
BBX 3 2 0 4
BITMAP
C0
60
ENDCHAR
STARTCHAR exclamdown
ENCODING 161
SWIDTH 500 0
DWIDTH 4 0
BBX 1 6 1 -1
BITMAP
80
00
80
80
80
80
ENDCHAR
STARTCHAR cent
ENCODING 162
SWIDTH 500 0
DWIDTH 4 0
BBX 3 5 0 0
BITMAP
40
E0
C0
E0
40
ENDCHAR
STARTCHAR sterling
ENCODING 163
SWIDTH 500 0
DWIDTH 4 0
BBX 3 6 0 0
BITMAP
60
40
E0
40
C0
E0
ENDCHAR
STARTCHAR currency
ENCODING 164
BBX 3 6 0 0
BITMAP
A0
40
A0
A0
40
A0
ENDCHAR
STARTCHAR yen
ENCODING 165
SWIDTH 500 0
DWIDTH 4 0
BBX 3 6 0 0
BITMAP
A0
40
E0
40
E0
40
ENDCHAR
STARTCHAR brokenbar
ENCODING 166
SWIDTH 500 0
DWIDTH 4 0
BBX 1 7 1 -1
BITMAP
80
80
80
00
80
80
80
ENDCHAR
STARTCHAR section
ENCODING 167
BBX 3 7 0 -1
BITMAP
60
80
40
A0
40
20
C0
ENDCHAR
STARTCHAR dieresis
ENCODING 168
BBX 3 1 0 5
BITMAP
A0
ENDCHAR
STARTCHAR copyright
ENCODING 169
SWIDTH 500 0
DWIDTH 4 0
BBX 3 4 0 1
BITMAP
60
80
80
60
ENDCHAR
STARTCHAR ordfeminine
ENCODING 170
SWIDTH 500 0
DWIDTH 4 0
BBX 3 5 0 1
BITMAP
60
A0
60
00
E0
ENDCHAR
STARTCHAR guillemotleft
ENCODING 171
SWIDTH 500 0
DWIDTH 4 0
BBX 3 5 0 0
BITMAP
20
60
C0
60
20
ENDCHAR
STARTCHAR logicalnot
ENCODING 172
SWIDTH 500 0
DWIDTH 4 0
BBX 3 2 0 1
BITMAP
E0
20
ENDCHAR
STARTCHAR uni00AD
ENCODING 173
SWIDTH 500 0
DWIDTH 4 0
BBX 3 1 0 2
BITMAP
E0
ENDCHAR
STARTCHAR registered
ENCODING 174
SWIDTH 500 0
DWIDTH 4 0
BBX 3 4 0 1
BITMAP
C0
A0
C0
A0
ENDCHAR
STARTCHAR macron
ENCODING 175
SWIDTH 500 0
DWIDTH 4 0
BBX 3 1 0 5
BITMAP
E0
ENDCHAR
STARTCHAR degree
ENCODING 176
BBX 3 3 0 3
BITMAP
40
A0
40
ENDCHAR
STARTCHAR plusminus
ENCODING 177
BBX 3 5 0 0
BITMAP
40
E0
40
00
E0
ENDCHAR
STARTCHAR uni00B2
ENCODING 178
SWIDTH 500 0
DWIDTH 4 0
BBX 3 4 0 2
BITMAP
C0
20
40
E0
ENDCHAR
STARTCHAR uni00B3
ENCODING 179
SWIDTH 500 0
DWIDTH 4 0
BBX 3 4 0 2
BITMAP
C0
60
20
C0
ENDCHAR
STARTCHAR acute
ENCODING 180
SWIDTH 500 0
DWIDTH 4 0
BBX 2 2 1 4
BITMAP
40
80
ENDCHAR
STARTCHAR mu
ENCODING 181
SWIDTH 500 0
DWIDTH 4 0
BBX 3 5 0 -1
BITMAP
A0
A0
A0
E0
80
ENDCHAR
STARTCHAR paragraph
ENCODING 182
SWIDTH 500 0
DWIDTH 4 0
BBX 3 6 0 0
BITMAP
60
A0
A0
60
60
60
ENDCHAR
STARTCHAR periodcentered
ENCODING 183
BBX 1 1 1 2
BITMAP
80
ENDCHAR
STARTCHAR cedilla
ENCODING 184
SWIDTH 500 0
DWIDTH 4 0
BBX 2 2 0 -1
BITMAP
40
C0
ENDCHAR
STARTCHAR uni00B9
ENCODING 185
SWIDTH 500 0
DWIDTH 4 0
BBX 3 4 0 2
BITMAP
40
C0
40
E0
ENDCHAR
STARTCHAR ordmasculine
ENCODING 186
SWIDTH 500 0
DWIDTH 4 0
BBX 3 5 0 1
BITMAP
40
A0
40
00
E0
ENDCHAR
STARTCHAR guillemotright
ENCODING 187
SWIDTH 500 0
DWIDTH 4 0
BBX 3 5 0 0
BITMAP
80
C0
60
C0
80
ENDCHAR
STARTCHAR onequarter
ENCODING 188
SWIDTH 500 0
DWIDTH 4 0
BBX 3 7 0 -1
BITMAP
80
80
80
20
60
E0
20
ENDCHAR
STARTCHAR onehalf
ENCODING 189
SWIDTH 500 0
DWIDTH 4 0
BBX 3 7 0 -1
BITMAP
80
80
00
60
20
40
60
ENDCHAR
STARTCHAR threequarters
ENCODING 190
SWIDTH 500 0
DWIDTH 4 0
BBX 3 7 0 -1
BITMAP
C0
40
C0
20
60
E0
20
ENDCHAR
STARTCHAR questiondown
ENCODING 191
SWIDTH 500 0
DWIDTH 4 0
BBX 3 6 0 -1
BITMAP
40
00
40
80
A0
40
ENDCHAR
STARTCHAR Agrave
ENCODING 192
SWIDTH 500 0
DWIDTH 4 0
BBX 3 7 0 -1
BITMAP
80
40
00
40
A0
E0
A0
ENDCHAR
STARTCHAR Aacute
ENCODING 193
SWIDTH 500 0
DWIDTH 4 0
BBX 3 7 0 -1
BITMAP
20
40
00
40
A0
E0
A0
ENDCHAR
STARTCHAR Acircumflex
ENCODING 194
SWIDTH 500 0
DWIDTH 4 0
BBX 3 7 0 -1
BITMAP
40
A0
00
40
A0
E0
A0
ENDCHAR
STARTCHAR Atilde
ENCODING 195
SWIDTH 500 0
DWIDTH 4 0
BBX 3 7 0 -1
BITMAP
C0
60
00
40
A0
E0
A0
ENDCHAR
STARTCHAR Adieresis
ENCODING 196
SWIDTH 500 0
DWIDTH 4 0
BBX 3 6 0 -1
BITMAP
A0
00
40
A0
E0
A0
ENDCHAR
STARTCHAR Aring
ENCODING 197
SWIDTH 500 0
DWIDTH 4 0
BBX 3 7 0 -1
BITMAP
40
A0
40
40
A0
E0
A0
ENDCHAR
STARTCHAR AE
ENCODING 198
SWIDTH 500 0
DWIDTH 4 0
BBX 3 6 0 0
BITMAP
60
40
E0
C0
C0
E0
ENDCHAR
STARTCHAR Ccedilla
ENCODING 199
SWIDTH 500 0
DWIDTH 4 0
BBX 3 7 0 -1
BITMAP
60
80
80
80
80
60
C0
ENDCHAR
STARTCHAR Egrave
ENCODING 200
SWIDTH 500 0
DWIDTH 4 0
BBX 3 7 0 -1
BITMAP
80
40
00
E0
C0
80
E0
ENDCHAR
STARTCHAR Eacute
ENCODING 201
SWIDTH 500 0
DWIDTH 4 0
BBX 3 7 0 -1
BITMAP
20
40
00
E0
C0
80
E0
ENDCHAR
STARTCHAR Ecircumflex
ENCODING 202
SWIDTH 500 0
DWIDTH 4 0
BBX 3 7 0 -1
BITMAP
40
A0
00
E0
C0
80
E0
ENDCHAR
STARTCHAR Edieresis
ENCODING 203
SWIDTH 500 0
DWIDTH 4 0
BBX 3 6 0 -1
BITMAP
A0
00
E0
C0
80
E0
ENDCHAR
STARTCHAR Igrave
ENCODING 204
SWIDTH 500 0
DWIDTH 4 0
BBX 3 7 0 -1
BITMAP
80
40
00
E0
40
40
E0
ENDCHAR
STARTCHAR Iacute
ENCODING 205
SWIDTH 500 0
DWIDTH 4 0
BBX 3 7 0 -1
BITMAP
20
40
00
E0
40
40
E0
ENDCHAR
STARTCHAR Icircumflex
ENCODING 206
SWIDTH 500 0
DWIDTH 4 0
BBX 3 7 0 -1
BITMAP
40
A0
00
E0
40
40
E0
ENDCHAR
STARTCHAR Idieresis
ENCODING 207
SWIDTH 500 0
DWIDTH 4 0
BBX 3 6 0 -1
BITMAP
A0
00
E0
40
40
E0
ENDCHAR
STARTCHAR Eth
ENCODING 208
SWIDTH 500 0
DWIDTH 4 0
BBX 3 6 0 0
BITMAP
C0
A0
A0
E0
A0
C0
ENDCHAR
STARTCHAR Ntilde
ENCODING 209
SWIDTH 500 0
DWIDTH 4 0
BBX 3 7 0 -1
BITMAP
C0
60
00
C0
A0
A0
A0
ENDCHAR
STARTCHAR Ograve
ENCODING 210
SWIDTH 500 0
DWIDTH 4 0
BBX 3 7 0 -1
BITMAP
80
40
00
40
A0
A0
40
ENDCHAR
STARTCHAR Oacute
ENCODING 211
SWIDTH 500 0
DWIDTH 4 0
BBX 3 7 0 -1
BITMAP
20
40
00
40
A0
A0
40
ENDCHAR
STARTCHAR Ocircumflex
ENCODING 212
SWIDTH 500 0
DWIDTH 4 0
BBX 3 7 0 -1
BITMAP
40
A0
00
40
A0
A0
40
ENDCHAR
STARTCHAR Otilde
ENCODING 213
SWIDTH 500 0
DWIDTH 4 0
BBX 3 7 0 -1
BITMAP
C0
60
00
40
A0
A0
40
ENDCHAR
STARTCHAR Odieresis
ENCODING 214
SWIDTH 500 0
DWIDTH 4 0
BBX 3 6 0 -1
BITMAP
A0
00
40
A0
A0
40
ENDCHAR
STARTCHAR multiply
ENCODING 215
BBX 5 5 1 0
BITMAP
88
50
20
50
88
ENDCHAR
STARTCHAR Oslash
ENCODING 216
SWIDTH 500 0
DWIDTH 4 0
BBX 3 6 0 0
BITMAP
20
C0
A0
A0
60
80
ENDCHAR
STARTCHAR Ugrave
ENCODING 217
SWIDTH 500 0
DWIDTH 4 0
BBX 3 7 0 -1
BITMAP
80
40
00
A0
A0
A0
E0
ENDCHAR
STARTCHAR Uacute
ENCODING 218
SWIDTH 500 0
DWIDTH 4 0
BBX 3 7 0 -1
BITMAP
20
40
00
A0
A0
A0
E0
ENDCHAR
STARTCHAR Ucircumflex
ENCODING 219
SWIDTH 500 0
DWIDTH 4 0
BBX 3 7 0 -1
BITMAP
40
A0
00
A0
A0
A0
E0
ENDCHAR
STARTCHAR Udieresis
ENCODING 220
SWIDTH 500 0
DWIDTH 4 0
BBX 3 6 0 -1
BITMAP
A0
00
A0
A0
A0
E0
ENDCHAR
STARTCHAR Yacute
ENCODING 221
SWIDTH 500 0
DWIDTH 4 0
BBX 3 7 0 -1
BITMAP
20
40
00
A0
A0
40
40
ENDCHAR
STARTCHAR Thorn
ENCODING 222
SWIDTH 500 0
DWIDTH 4 0
BBX 3 5 0 0
BITMAP
80
C0
A0
C0
80
ENDCHAR
STARTCHAR germandbls
ENCODING 223
SWIDTH 500 0
DWIDTH 4 0
BBX 3 6 0 0
BITMAP
40
A0
C0
A0
A0
C0
ENDCHAR
STARTCHAR agrave
ENCODING 224
SWIDTH 500 0
DWIDTH 4 0
BBX 3 6 0 0
BITMAP
80
40
00
60
A0
60
ENDCHAR
STARTCHAR aacute
ENCODING 225
SWIDTH 500 0
DWIDTH 4 0
BBX 3 6 0 0
BITMAP
20
40
00
60
A0
60
ENDCHAR
STARTCHAR acircumflex
ENCODING 226
SWIDTH 500 0
DWIDTH 4 0
BBX 3 6 0 0
BITMAP
40
A0
00
60
A0
60
ENDCHAR
STARTCHAR atilde
ENCODING 227
SWIDTH 500 0
DWIDTH 4 0
BBX 3 6 0 0
BITMAP
C0
60
00
60
A0
60
ENDCHAR
STARTCHAR adieresis
ENCODING 228
SWIDTH 500 0
DWIDTH 4 0
BBX 3 5 0 0
BITMAP
A0
00
60
A0
60
ENDCHAR
STARTCHAR aring
ENCODING 229
SWIDTH 500 0
DWIDTH 4 0
BBX 3 6 0 0
BITMAP
40
A0
40
60
A0
60
ENDCHAR
STARTCHAR ae
ENCODING 230
SWIDTH 500 0
DWIDTH 4 0
BBX 3 4 0 0
BITMAP
60
E0
C0
E0
ENDCHAR
STARTCHAR ccedilla
ENCODING 231
SWIDTH 500 0
DWIDTH 4 0
BBX 3 5 0 -1
BITMAP
60
80
80
60
C0
ENDCHAR
STARTCHAR egrave
ENCODING 232
SWIDTH 500 0
DWIDTH 4 0
BBX 3 6 0 0
BITMAP
80
40
00
60
C0
60
ENDCHAR
STARTCHAR eacute
ENCODING 233
SWIDTH 500 0
DWIDTH 4 0
BBX 3 6 0 0
BITMAP
20
40
00
60
C0
60
ENDCHAR
STARTCHAR ecircumflex
ENCODING 234
SWIDTH 500 0
DWIDTH 4 0
BBX 3 6 0 0
BITMAP
40
A0
00
60
C0
60
ENDCHAR
STARTCHAR edieresis
ENCODING 235
SWIDTH 500 0
DWIDTH 4 0
BBX 3 5 0 0
BITMAP
A0
00
60
C0
60
ENDCHAR
STARTCHAR igrave
ENCODING 236
SWIDTH 500 0
DWIDTH 4 0
BBX 2 6 0 0
BITMAP
80
40
00
40
40
40
ENDCHAR
STARTCHAR iacute
ENCODING 237
SWIDTH 500 0
DWIDTH 4 0
BBX 2 6 1 0
BITMAP
40
80
00
80
80
80
ENDCHAR
STARTCHAR icircumflex
ENCODING 238
SWIDTH 500 0
DWIDTH 4 0
BBX 3 6 0 0
BITMAP
40
A0
00
40
40
40
ENDCHAR
STARTCHAR idieresis
ENCODING 239
SWIDTH 500 0
DWIDTH 4 0
BBX 3 5 0 0
BITMAP
A0
00
40
40
40
ENDCHAR
STARTCHAR eth
ENCODING 240
SWIDTH 500 0
DWIDTH 4 0
BBX 3 6 0 0
BITMAP
A0
40
A0
60
A0
C0
ENDCHAR
STARTCHAR ntilde
ENCODING 241
SWIDTH 500 0
DWIDTH 4 0
BBX 3 6 0 0
BITMAP
C0
60
00
C0
A0
A0
ENDCHAR
STARTCHAR ograve
ENCODING 242
SWIDTH 500 0
DWIDTH 4 0
BBX 3 6 0 0
BITMAP
80
40
00
40
A0
40
ENDCHAR
STARTCHAR oacute
ENCODING 243
SWIDTH 500 0
DWIDTH 4 0
BBX 3 6 0 0
BITMAP
20
40
00
40
A0
40
ENDCHAR
STARTCHAR ocircumflex
ENCODING 244
SWIDTH 500 0
DWIDTH 4 0
BBX 3 6 0 0
BITMAP
40
A0
00
40
A0
40
ENDCHAR
STARTCHAR otilde
ENCODING 245
SWIDTH 500 0
DWIDTH 4 0
BBX 3 6 0 0
BITMAP
C0
60
00
40
A0
40
ENDCHAR
STARTCHAR odieresis
ENCODING 246
SWIDTH 500 0
DWIDTH 4 0
BBX 3 5 0 0
BITMAP
A0
00
40
A0
40
ENDCHAR
STARTCHAR divide
ENCODING 247
BBX 3 5 0 0
BITMAP
40
00
E0
00
40
ENDCHAR
STARTCHAR oslash
ENCODING 248
SWIDTH 500 0
DWIDTH 4 0
BBX 3 5 0 0
BITMAP
20
C0
A0
60
80
ENDCHAR
STARTCHAR ugrave
ENCODING 249
SWIDTH 500 0
DWIDTH 4 0
BBX 3 6 0 0
BITMAP
80
40
00
A0
A0
E0
ENDCHAR
STARTCHAR uacute
ENCODING 250
SWIDTH 500 0
DWIDTH 4 0
BBX 3 6 0 0
BITMAP
20
40
00
A0
A0
E0
ENDCHAR
STARTCHAR ucircumflex
ENCODING 251
SWIDTH 500 0
DWIDTH 4 0
BBX 3 6 0 0
BITMAP
40
A0
00
A0
A0
E0
ENDCHAR
STARTCHAR udieresis
ENCODING 252
SWIDTH 500 0
DWIDTH 4 0
BBX 3 5 0 0
BITMAP
A0
00
A0
A0
E0
ENDCHAR
STARTCHAR yacute
ENCODING 253
SWIDTH 500 0
DWIDTH 4 0
BBX 3 7 0 -1
BITMAP
20
40
00
A0
60
20
C0
ENDCHAR
STARTCHAR thorn
ENCODING 254
SWIDTH 500 0
DWIDTH 4 0
BBX 3 7 0 -1
BITMAP
80
80
C0
A0
C0
80
80
ENDCHAR
STARTCHAR ydieresis
ENCODING 255
SWIDTH 500 0
DWIDTH 4 0
BBX 3 6 0 -1
BITMAP
A0
00
A0
60
20
C0
ENDCHAR
STARTCHAR amacron
ENCODING 257
SWIDTH 500 0
DWIDTH 4 0
BBX 3 5 0 0
BITMAP
E0
00
60
A0
60
ENDCHAR
STARTCHAR emacron
ENCODING 275
SWIDTH 500 0
DWIDTH 4 0
BBX 3 6 0 0
BITMAP
E0
00
60
A0
C0
60
ENDCHAR
STARTCHAR ecaron
ENCODING 283
SWIDTH 500 0
DWIDTH 4 0
BBX 3 6 0 0
BITMAP
A0
40
60
A0
C0
60
ENDCHAR
STARTCHAR imacron
ENCODING 299
SWIDTH 500 0
DWIDTH 4 0
BBX 3 6 0 0
BITMAP
E0
00
40
40
40
40
ENDCHAR
STARTCHAR nacute
ENCODING 324
SWIDTH 500 0
DWIDTH 4 0
BBX 3 6 0 0
BITMAP
40
80
00
C0
A0
A0
ENDCHAR
STARTCHAR ncaron
ENCODING 328
SWIDTH 500 0
DWIDTH 4 0
BBX 3 6 0 0
BITMAP
A0
40
00
C0
A0
A0
ENDCHAR
STARTCHAR omacron
ENCODING 333
SWIDTH 500 0
DWIDTH 4 0
BBX 3 6 0 0
BITMAP
E0
00
40
A0
A0
40
ENDCHAR
STARTCHAR OE
ENCODING 338
SWIDTH 500 0
DWIDTH 4 0
BBX 4 6 0 0
BITMAP
70
A0
B0
A0
A0
70
ENDCHAR
STARTCHAR oe
ENCODING 339
SWIDTH 500 0
DWIDTH 4 0
BBX 4 5 0 0
BITMAP
70
A0
B0
A0
70
ENDCHAR
STARTCHAR Scaron
ENCODING 352
SWIDTH 500 0
DWIDTH 4 0
BBX 3 6 0 0
BITMAP
A0
40
60
80
40
E0
ENDCHAR
STARTCHAR scaron
ENCODING 353
SWIDTH 500 0
DWIDTH 4 0
BBX 3 6 0 0
BITMAP
A0
40
E0
80
40
C0
ENDCHAR
STARTCHAR umacron
ENCODING 363
SWIDTH 500 0
DWIDTH 4 0
BBX 3 5 0 0
BITMAP
E0
00
A0
A0
60
ENDCHAR
STARTCHAR Ydieresis
ENCODING 376
SWIDTH 500 0
DWIDTH 4 0
BBX 3 6 0 0
BITMAP
A0
00
A0
40
40
40
ENDCHAR
STARTCHAR florin
ENCODING 402
SWIDTH 500 0
DWIDTH 4 0
BBX 3 6 0 -1
BITMAP
60
40
E0
40
40
C0
ENDCHAR
STARTCHAR uni01CE
ENCODING 462
SWIDTH 500 0
DWIDTH 4 0
BBX 3 6 0 0
BITMAP
A0
40
00
60
A0
60
ENDCHAR
STARTCHAR uni01D0
ENCODING 464
SWIDTH 500 0
DWIDTH 4 0
BBX 3 6 0 0
BITMAP
A0
40
00
40
40
40
ENDCHAR
STARTCHAR uni01D2
ENCODING 466
SWIDTH 500 0
DWIDTH 4 0
BBX 3 6 0 0
BITMAP
A0
40
00
E0
A0
E0
ENDCHAR
STARTCHAR uni01D4
ENCODING 468
SWIDTH 500 0
DWIDTH 4 0
BBX 3 6 0 0
BITMAP
A0
40
00
A0
A0
60
ENDCHAR
STARTCHAR uni01D6
ENCODING 470
SWIDTH 500 0
DWIDTH 4 0
BBX 3 6 0 0
BITMAP
E0
00
A0
00
A0
60
ENDCHAR
STARTCHAR uni01D8
ENCODING 472
SWIDTH 500 0
DWIDTH 4 0
BBX 3 6 0 0
BITMAP
20
40
A0
00
A0
60
ENDCHAR
STARTCHAR uni01DA
ENCODING 474
SWIDTH 500 0
DWIDTH 4 0
BBX 3 6 0 0
BITMAP
A0
40
A0
00
A0
60
ENDCHAR
STARTCHAR uni01DC
ENCODING 476
SWIDTH 500 0
DWIDTH 4 0
BBX 3 6 0 0
BITMAP
80
40
A0
00
A0
E0
ENDCHAR
STARTCHAR uni01F9
ENCODING 505
SWIDTH 500 0
DWIDTH 4 0
BBX 3 6 0 0
BITMAP
40
20
00
C0
A0
A0
ENDCHAR
STARTCHAR uni0251
ENCODING 593
SWIDTH 500 0
DWIDTH 4 0
BBX 3 5 0 0
BITMAP
60
A0
A0
A0
60
ENDCHAR
STARTCHAR uni0261
ENCODING 609
SWIDTH 500 0
DWIDTH 4 0
BBX 3 6 0 -1
BITMAP
60
A0
A0
E0
20
E0
ENDCHAR
STARTCHAR circumflex
ENCODING 710
SWIDTH 500 0
DWIDTH 4 0
BBX 3 2 0 4
BITMAP
A0
40
ENDCHAR
STARTCHAR caron
ENCODING 711
BBX 3 2 0 4
BITMAP
A0
40
ENDCHAR
STARTCHAR uni02C9
ENCODING 713
BBX 3 1 0 4
BITMAP
E0
ENDCHAR
STARTCHAR uni02CA
ENCODING 714
BBX 1 1 3 5
BITMAP
80
ENDCHAR
STARTCHAR uni02CB
ENCODING 715
BBX 1 1 0 0
BITMAP
00
ENDCHAR
STARTCHAR dotaccent
ENCODING 729
BBX 3 1 0 5
BITMAP
E0
ENDCHAR
STARTCHAR tilde
ENCODING 732
SWIDTH 500 0
DWIDTH 4 0
BBX 7 7 0 -1
BITMAP
10
28
28
44
7C
82
82
ENDCHAR
STARTCHAR Alpha
ENCODING 913
BBX 7 7 0 -1
BITMAP
10
28
28
44
7C
82
82
ENDCHAR
STARTCHAR Beta
ENCODING 914
BBX 6 7 1 -1
BITMAP
F8
84
84
F8
84
84
F8
ENDCHAR
STARTCHAR Gamma
ENCODING 915
BBX 6 7 1 -1
BITMAP
FC
80
80
80
80
80
80
ENDCHAR
STARTCHAR uni0394
ENCODING 916
BBX 7 7 0 -1
BITMAP
10
28
28
44
44
82
FE
ENDCHAR
STARTCHAR Epsilon
ENCODING 917
BBX 6 7 1 -1
BITMAP
FC
80
80
F8
80
80
FC
ENDCHAR
STARTCHAR Zeta
ENCODING 918
BBX 6 7 1 -1
BITMAP
FC
04
08
10
20
40
FC
ENDCHAR
STARTCHAR Eta
ENCODING 919
BBX 6 7 1 -1
BITMAP
84
84
84
FC
84
84
84
ENDCHAR
STARTCHAR Theta
ENCODING 920
BBX 7 7 0 -1
BITMAP
38
44
82
BA
82
44
38
ENDCHAR
STARTCHAR Iota
ENCODING 921
BBX 3 7 2 -1
BITMAP
E0
40
40
40
40
40
E0
ENDCHAR
STARTCHAR Kappa
ENCODING 922
BBX 6 7 1 -1
BITMAP
84
88
90
A0
D0
88
84
ENDCHAR
STARTCHAR Lambda
ENCODING 923
BBX 7 7 0 -1
BITMAP
10
28
28
44
44
82
82
ENDCHAR
STARTCHAR Mu
ENCODING 924
BBX 7 7 0 -1
BITMAP
82
C6
AA
AA
92
92
82
ENDCHAR
STARTCHAR Nu
ENCODING 925
BBX 6 7 1 -1
BITMAP
84
C4
A4
94
8C
84
84
ENDCHAR
STARTCHAR Xi
ENCODING 926
BBX 6 7 1 -1
BITMAP
FC
00
00
78
00
00
FC
ENDCHAR
STARTCHAR Omicron
ENCODING 927
BBX 6 7 1 -1
BITMAP
30
48
84
84
84
48
30
ENDCHAR
STARTCHAR Pi
ENCODING 928
BBX 6 7 1 -1
BITMAP
FC
84
84
84
84
84
84
ENDCHAR
STARTCHAR Rho
ENCODING 929
BBX 6 7 1 -1
BITMAP
F8
84
84
F8
80
80
80
ENDCHAR
STARTCHAR Sigma
ENCODING 931
BBX 6 7 1 -1
BITMAP
FC
40
20
10
20
40
FC
ENDCHAR
STARTCHAR Tau
ENCODING 932
BBX 7 7 0 -1
BITMAP
FE
10
10
10
10
10
10
ENDCHAR
STARTCHAR Upsilon
ENCODING 933
BBX 7 7 0 -1
BITMAP
82
44
28
10
10
10
10
ENDCHAR
STARTCHAR Phi
ENCODING 934
BBX 7 7 0 -1
BITMAP
10
7C
92
92
92
7C
10
ENDCHAR
STARTCHAR Chi
ENCODING 935
BBX 7 7 0 -1
BITMAP
82
44
28
10
28
44
82
ENDCHAR
STARTCHAR Psi
ENCODING 936
BBX 7 7 0 -1
BITMAP
92
54
54
38
10
10
10
ENDCHAR
STARTCHAR uni03A9
ENCODING 937
BBX 7 7 0 -1
BITMAP
38
44
82
82
44
28
EE
ENDCHAR
STARTCHAR alpha
ENCODING 945
BBX 5 5 1 -1
BITMAP
68
90
90
90
68
ENDCHAR
STARTCHAR beta
ENCODING 946
BBX 5 7 1 -1
BITMAP
70
88
90
90
88
F0
80
ENDCHAR
STARTCHAR gamma
ENCODING 947
BBX 5 5 1 -1
BITMAP
88
50
60
40
40
ENDCHAR
STARTCHAR delta
ENCODING 948
BBX 4 7 2 -1
BITMAP
60
90
40
A0
90
90
60
ENDCHAR
STARTCHAR epsilon
ENCODING 949
BBX 5 5 1 -1
BITMAP
70
88
E0
88
70
ENDCHAR
STARTCHAR zeta
ENCODING 950
BBX 4 7 2 -1
BITMAP
F0
20
40
80
80
60
10
ENDCHAR
STARTCHAR eta
ENCODING 951
BBX 5 5 1 -1
BITMAP
B0
48
48
48
08
ENDCHAR
STARTCHAR theta
ENCODING 952
BBX 4 7 2 -1
BITMAP
60
90
90
F0
90
90
60
ENDCHAR
STARTCHAR iota
ENCODING 953
BBX 3 5 2 -1
BITMAP
80
80
80
A0
40
ENDCHAR
STARTCHAR kappa
ENCODING 954
BBX 4 5 2 -1
BITMAP
90
A0
C0
A0
90
ENDCHAR
STARTCHAR lambda
ENCODING 955
BBX 5 7 1 -1
BITMAP
40
20
20
20
50
50
88
ENDCHAR
STARTCHAR uni03BC
ENCODING 956
BBX 5 5 1 -1
BITMAP
90
90
90
E8
80
ENDCHAR
STARTCHAR nu
ENCODING 957
BBX 5 5 1 -1
BITMAP
88
48
50
60
40
ENDCHAR
STARTCHAR xi
ENCODING 958
BBX 4 7 2 -1
BITMAP
F0
40
40
30
40
40
20
ENDCHAR
STARTCHAR omicron
ENCODING 959
BBX 4 5 2 -1
BITMAP
60
90
90
90
60
ENDCHAR
STARTCHAR pi
ENCODING 960
BBX 6 5 1 -1
BITMAP
FC
28
28
48
8C
ENDCHAR
STARTCHAR rho
ENCODING 961
BBX 4 5 2 -1
BITMAP
60
90
90
E0
80
ENDCHAR
STARTCHAR sigma
ENCODING 963
BBX 5 5 2 -1
BITMAP
78
90
90
90
60
ENDCHAR
STARTCHAR tau
ENCODING 964
BBX 5 5 1 -1
BITMAP
78
A0
20
28
10
ENDCHAR
STARTCHAR upsilon
ENCODING 965
BBX 5 5 1 -1
BITMAP
C8
48
48
48
30
ENDCHAR
STARTCHAR phi
ENCODING 966
BBX 5 6 1 -1
BITMAP
20
70
A8
A8
70
20
ENDCHAR
STARTCHAR chi
ENCODING 967
BBX 5 5 1 -1
BITMAP
68
10
20
60
98
ENDCHAR
STARTCHAR psi
ENCODING 968
BBX 7 7 0 -1
BITMAP
10
10
D6
54
54
38
10
ENDCHAR
STARTCHAR omega
ENCODING 969
BBX 7 5 0 -1
BITMAP
44
92
92
92
6C
ENDCHAR
STARTCHAR uni0401
ENCODING 1025
BBX 6 7 1 -1
BITMAP
48
FC
80
F8
80
80
FC
ENDCHAR
STARTCHAR uni0410
ENCODING 1040
BBX 7 7 0 -1
BITMAP
10
28
28
44
7C
82
82
ENDCHAR
STARTCHAR uni0411
ENCODING 1041
BBX 6 7 1 -1
BITMAP
FC
80
80
F8
84
84
F8
ENDCHAR
STARTCHAR uni0412
ENCODING 1042
BBX 6 7 1 -1
BITMAP
F8
84
84
F8
84
84
F8
ENDCHAR
STARTCHAR uni0413
ENCODING 1043
BBX 6 7 1 -1
BITMAP
FC
80
80
80
80
80
80
ENDCHAR
STARTCHAR uni0414
ENCODING 1044
BBX 7 7 0 -1
BITMAP
3C
24
24
24
44
FE
82
ENDCHAR
STARTCHAR uni0415
ENCODING 1045
BBX 6 7 1 -1
BITMAP
FC
80
80
F8
80
80
FC
ENDCHAR
STARTCHAR uni0416
ENCODING 1046
BBX 7 7 0 -1
BITMAP
92
54
54
38
54
54
92
ENDCHAR
STARTCHAR uni0417
ENCODING 1047
BBX 6 7 1 -1
BITMAP
78
84
04
38
04
84
78
ENDCHAR
STARTCHAR uni0418
ENCODING 1048
BBX 6 7 1 -1
BITMAP
84
84
8C
94
A4
C4
84
ENDCHAR
STARTCHAR uni0419
ENCODING 1049
BBX 6 7 1 -1
BITMAP
48
B4
8C
94
A4
C4
84
ENDCHAR
STARTCHAR uni041A
ENCODING 1050
BBX 6 7 1 -1
BITMAP
8C
90
90
E0
90
88
84
ENDCHAR
STARTCHAR uni041B
ENCODING 1051
BBX 7 7 0 -1
BITMAP
3E
22
22
22
22
22
C2
ENDCHAR
STARTCHAR uni041C
ENCODING 1052
BBX 7 7 0 -1
BITMAP
44
44
44
AA
AA
92
92
ENDCHAR
STARTCHAR uni041D
ENCODING 1053
BBX 6 7 1 -1
BITMAP
84
84
84
FC
84
84
84
ENDCHAR
STARTCHAR uni041E
ENCODING 1054
BBX 6 7 1 -1
BITMAP
30
48
84
84
84
48
30
ENDCHAR
STARTCHAR uni041F
ENCODING 1055
BBX 6 7 1 -1
BITMAP
FC
84
84
84
84
84
84
ENDCHAR
STARTCHAR uni0420
ENCODING 1056
BBX 6 7 1 -1
BITMAP
F8
84
84
F8
80
80
80
ENDCHAR
STARTCHAR uni0421
ENCODING 1057
BBX 6 7 1 -1
BITMAP
38
44
80
80
80
44
38
ENDCHAR
STARTCHAR uni0422
ENCODING 1058
BBX 7 7 0 -1
BITMAP
FE
10
10
10
10
10
10
ENDCHAR
STARTCHAR uni0423
ENCODING 1059
BBX 6 7 1 -1
BITMAP
84
48
48
30
10
20
C0
ENDCHAR
STARTCHAR uni0424
ENCODING 1060
BBX 7 7 0 -1
BITMAP
10
7C
92
92
92
7C
10
ENDCHAR
STARTCHAR uni0425
ENCODING 1061
BBX 7 7 0 -1
BITMAP
82
44
28
10
28
44
82
ENDCHAR
STARTCHAR uni0426
ENCODING 1062
BBX 6 7 1 -1
BITMAP
88
88
88
88
88
FC
04
ENDCHAR
STARTCHAR uni0427
ENCODING 1063
BBX 6 7 1 -1
BITMAP
84
84
84
84
7C
04
04
ENDCHAR
STARTCHAR uni0428
ENCODING 1064
BBX 7 7 0 -1
BITMAP
92
92
92
92
92
92
FE
ENDCHAR
STARTCHAR uni0429
ENCODING 1065
BBX 7 7 0 -1
BITMAP
92
92
92
92
92
FE
02
ENDCHAR
STARTCHAR uni042A
ENCODING 1066
BBX 6 7 1 -1
BITMAP
C0
40
40
78
44
44
78
ENDCHAR
STARTCHAR uni042B
ENCODING 1067
BBX 6 7 1 -1
BITMAP
84
84
84
E4
94
94
E4
ENDCHAR
STARTCHAR uni042C
ENCODING 1068
BBX 5 7 2 -1
BITMAP
80
80
80
F0
88
88
F0
ENDCHAR
STARTCHAR uni042D
ENCODING 1069
BBX 6 7 1 -1
BITMAP
70
88
04
7C
04
88
70
ENDCHAR
STARTCHAR uni042E
ENCODING 1070
BBX 7 7 0 -1
BITMAP
9C
A2
A2
E2
A2
A2
9C
ENDCHAR
STARTCHAR uni042F
ENCODING 1071
BBX 6 7 1 -1
BITMAP
7C
84
84
7C
44
44
84
ENDCHAR
STARTCHAR uni0430
ENCODING 1072
BBX 5 5 1 -1
BITMAP
70
08
78
88
78
ENDCHAR
STARTCHAR uni0431
ENCODING 1073
BBX 5 7 1 -1
BITMAP
38
40
F0
88
88
88
70
ENDCHAR
STARTCHAR uni0432
ENCODING 1074
BBX 5 5 1 -1
BITMAP
F0
88
F0
88
F0
ENDCHAR
STARTCHAR uni0433
ENCODING 1075
BBX 5 5 1 -1
BITMAP
F8
80
80
80
80
ENDCHAR
STARTCHAR uni0434
ENCODING 1076
BBX 5 5 1 -1
BITMAP
70
50
50
F8
88
ENDCHAR
STARTCHAR uni0435
ENCODING 1077
BBX 5 5 1 -1
BITMAP
70
88
F8
80
70
ENDCHAR
STARTCHAR uni0436
ENCODING 1078
BBX 7 5 0 -1
BITMAP
92
54
38
54
92
ENDCHAR
STARTCHAR uni0437
ENCODING 1079
BBX 5 5 1 -1
BITMAP
70
88
30
88
70
ENDCHAR
STARTCHAR uni0438
ENCODING 1080
BBX 5 5 1 -1
BITMAP
88
98
A8
C8
88
ENDCHAR
STARTCHAR uni0439
ENCODING 1081
BBX 5 7 1 -1
BITMAP
50
20
88
98
A8
C8
88
ENDCHAR
STARTCHAR uni043A
ENCODING 1082
BBX 5 5 1 -1
BITMAP
98
A0
E0
90
88
ENDCHAR
STARTCHAR uni043B
ENCODING 1083
BBX 6 5 0 -1
BITMAP
3C
24
24
24
C4
ENDCHAR
STARTCHAR uni043C
ENCODING 1084
BBX 5 5 1 -1
BITMAP
88
D8
A8
A8
88
ENDCHAR
STARTCHAR uni043D
ENCODING 1085
BBX 5 5 1 -1
BITMAP
88
88
F8
88
88
ENDCHAR
STARTCHAR uni043E
ENCODING 1086
BBX 5 5 1 -1
BITMAP
70
88
88
88
70
ENDCHAR
STARTCHAR uni043F
ENCODING 1087
BBX 5 5 1 -1
BITMAP
F8
88
88
88
88
ENDCHAR
STARTCHAR uni0440
ENCODING 1088
BBX 5 5 1 -1
BITMAP
F0
88
F0
80
80
ENDCHAR
STARTCHAR uni0441
ENCODING 1089
BBX 5 5 1 -1
BITMAP
70
88
80
88
70
ENDCHAR
STARTCHAR uni0442
ENCODING 1090
BBX 5 5 1 -1
BITMAP
F8
20
20
20
20
ENDCHAR
STARTCHAR uni0443
ENCODING 1091
BBX 5 5 1 -1
BITMAP
88
50
50
20
C0
ENDCHAR
STARTCHAR uni0444
ENCODING 1092
BBX 5 7 1 -1
BITMAP
20
20
70
A8
A8
70
20
ENDCHAR
STARTCHAR uni0445
ENCODING 1093
BBX 5 5 1 -1
BITMAP
88
50
20
50
88
ENDCHAR
STARTCHAR uni0446
ENCODING 1094
BBX 5 5 1 -1
BITMAP
90
90
90
F8
08
ENDCHAR
STARTCHAR uni0447
ENCODING 1095
BBX 5 5 1 -1
BITMAP
88
88
88
78
08
ENDCHAR
STARTCHAR uni0448
ENCODING 1096
BBX 5 5 1 -1
BITMAP
A8
A8
A8
A8
F8
ENDCHAR
STARTCHAR uni0449
ENCODING 1097
BBX 6 5 1 -1
BITMAP
A8
A8
A8
FC
04
ENDCHAR
STARTCHAR uni044A
ENCODING 1098
BBX 6 5 1 -1
BITMAP
C0
40
78
44
78
ENDCHAR
STARTCHAR uni044B
ENCODING 1099
BBX 5 5 1 -1
BITMAP
88
88
E8
98
E8
ENDCHAR
STARTCHAR uni044C
ENCODING 1100
BBX 5 5 1 -1
BITMAP
80
80
F0
88
F0
ENDCHAR
STARTCHAR uni044D
ENCODING 1101
BBX 5 5 1 -1
BITMAP
70
88
38
88
70
ENDCHAR
STARTCHAR uni044E
ENCODING 1102
BBX 6 5 1 -1
BITMAP
98
A4
E4
A4
98
ENDCHAR
STARTCHAR uni044F
ENCODING 1103
BBX 5 5 1 -1
BITMAP
78
88
78
48
88
ENDCHAR
STARTCHAR uni0451
ENCODING 1105
BBX 5 7 1 -1
BITMAP
50
00
70
88
F8
80
70
ENDCHAR
STARTCHAR uni1E3F
ENCODING 7743
SWIDTH 500 0
DWIDTH 4 0
BBX 3 6 0 0
BITMAP
20
40
00
E0
E0
A0
ENDCHAR
STARTCHAR uni2010
ENCODING 8208
BBX 3 1 2 2
BITMAP
E0
ENDCHAR
STARTCHAR endash
ENCODING 8211
BBX 3 1 2 2
BITMAP
E0
ENDCHAR
STARTCHAR emdash
ENCODING 8212
BBX 8 1 0 2
BITMAP
FF
ENDCHAR
STARTCHAR uni2015
ENCODING 8213
BBX 8 1 0 2
BITMAP
FF
ENDCHAR
STARTCHAR uni2016
ENCODING 8214
BBX 3 7 2 -1
BITMAP
A0
A0
A0
A0
A0
A0
A0
ENDCHAR
STARTCHAR quoteleft
ENCODING 8216
BBX 2 3 5 3
BITMAP
40
80
C0
ENDCHAR
STARTCHAR quoteright
ENCODING 8217
BBX 2 3 0 3
BITMAP
C0
40
80
ENDCHAR
STARTCHAR quotesinglbase
ENCODING 8218
SWIDTH 500 0
DWIDTH 4 0
BBX 2 3 0 -1
BITMAP
40
40
80
ENDCHAR
STARTCHAR quotedblleft
ENCODING 8220
BBX 5 3 2 3
BITMAP
48
90
D8
ENDCHAR
STARTCHAR quotedblright
ENCODING 8221
BBX 5 3 0 3
BITMAP
D8
48
90
ENDCHAR
STARTCHAR quotedblbase
ENCODING 8222
SWIDTH 500 0
DWIDTH 4 0
BBX 4 3 0 -1
BITMAP
50
50
A0
ENDCHAR
STARTCHAR dagger
ENCODING 8224
SWIDTH 500 0
DWIDTH 4 0
BBX 3 7 2 -1
BITMAP
40
40
E0
40
40
40
40
ENDCHAR
STARTCHAR daggerdbl
ENCODING 8225
SWIDTH 500 0
DWIDTH 4 0
BBX 3 7 2 -1
BITMAP
40
E0
40
40
40
E0
40
ENDCHAR
STARTCHAR bullet
ENCODING 8226
SWIDTH 500 0
DWIDTH 4 0
BBX 2 2 1 2
BITMAP
C0
C0
ENDCHAR
STARTCHAR twodotenleader
ENCODING 8229
BBX 5 1 1 2
BITMAP
88
ENDCHAR
STARTCHAR ellipsis
ENCODING 8230
BBX 7 1 0 2
BITMAP
92
ENDCHAR
STARTCHAR perthousand
ENCODING 8240
BBX 7 7 0 -1
BITMAP
44
A8
50
20
54
AA
14
ENDCHAR
STARTCHAR minute
ENCODING 8242
BBX 3 3 0 3
BITMAP
60
C0
80
ENDCHAR
STARTCHAR second
ENCODING 8243
BBX 6 3 0 3
BITMAP
6C
D8
90
ENDCHAR
STARTCHAR uni2035
ENCODING 8245
BBX 2 3 2 3
BITMAP
C0
40
40
ENDCHAR
STARTCHAR guilsinglleft
ENCODING 8249
SWIDTH 500 0
DWIDTH 4 0
BBX 2 4 1 1
BITMAP
40
80
80
40
ENDCHAR
STARTCHAR guilsinglright
ENCODING 8250
SWIDTH 500 0
DWIDTH 4 0
BBX 2 4 1 1
BITMAP
80
40
40
80
ENDCHAR
STARTCHAR uni203B
ENCODING 8251
BBX 7 7 0 -1
BITMAP
92
44
28
92
28
44
92
ENDCHAR
STARTCHAR Euro
ENCODING 8364
BBX 6 7 0 -1
BITMAP
3C
44
F8
40
F8
40
3C
ENDCHAR
STARTCHAR uni2103
ENCODING 8451
BBX 7 7 0 -1
BITMAP
40
AC
52
10
10
12
0C
ENDCHAR
STARTCHAR uni2105
ENCODING 8453
BBX 7 7 0 -1
BITMAP
62
84
68
10
24
4A
84
ENDCHAR
STARTCHAR uni2109
ENCODING 8457
BBX 7 7 0 -1
BITMAP
4E
A8
48
0E
08
08
08
ENDCHAR
STARTCHAR uni2116
ENCODING 8470
BBX 7 6 0 0
BITMAP
E0
A4
AA
AA
A4
AE
ENDCHAR
STARTCHAR uni2121
ENCODING 8481
BBX 7 3 0 3
BITMAP
FC
54
5E
ENDCHAR
STARTCHAR trademark
ENCODING 8482
SWIDTH 500 0
DWIDTH 4 0
BBX 6 3 0 3
BITMAP
F4
5C
54
ENDCHAR
STARTCHAR uni2160
ENCODING 8544
BBX 5 7 1 -1
BITMAP
F8
20
20
20
20
20
F8
ENDCHAR
STARTCHAR uni2161
ENCODING 8545
BBX 7 7 0 -1
BITMAP
FE
28
28
28
28
28
FE
ENDCHAR
STARTCHAR uni2162
ENCODING 8546
BBX 7 7 0 -1
BITMAP
FE
54
54
54
54
54
FE
ENDCHAR
STARTCHAR uni2163
ENCODING 8547
BBX 7 7 0 -1
BITMAP
FE
54
54
54
48
48
E8
ENDCHAR
STARTCHAR uni2164
ENCODING 8548
BBX 5 7 1 -1
BITMAP
88
88
50
50
50
20
20
ENDCHAR
STARTCHAR uni2165
ENCODING 8549
BBX 7 7 0 -1
BITMAP
AE
A4
A4
A4
44
44
4E
ENDCHAR
STARTCHAR uni2166
ENCODING 8550
BBX 7 7 0 -1
BITMAP
BE
B4
B4
B4
54
54
7E
ENDCHAR
STARTCHAR uni2167
ENCODING 8551
BBX 7 7 0 -1
BITMAP
BE
BC
BC
BC
5C
5C
7E
ENDCHAR
STARTCHAR uni2168
ENCODING 8552
BBX 7 7 0 -1
BITMAP
EA
4A
4A
44
4A
4A
EA
ENDCHAR
STARTCHAR uni2169
ENCODING 8553
BBX 7 7 0 -1
BITMAP
EE
44
28
10
28
44
EE
ENDCHAR
STARTCHAR uni216A
ENCODING 8554
BBX 7 7 0 -1
BITMAP
DE
54
24
24
24
54
DE
ENDCHAR
STARTCHAR uni216B
ENCODING 8555
BBX 7 7 0 -1
BITMAP
AA
AA
4A
4A
4A
AA
AA
ENDCHAR
STARTCHAR uni2170
ENCODING 8560
BBX 1 7 3 -1
BITMAP
80
00
80
80
80
80
80
ENDCHAR
STARTCHAR uni2171
ENCODING 8561
BBX 4 7 2 -1
BITMAP
90
00
90
90
90
90
90
ENDCHAR
STARTCHAR uni2172
ENCODING 8562
BBX 5 7 1 -1
BITMAP
A8
00
A8
A8
A8
A8
A8
ENDCHAR
STARTCHAR uni2173
ENCODING 8563
BBX 5 7 1 -1
BITMAP
80
00
A8
A8
A8
90
90
ENDCHAR
STARTCHAR uni2174
ENCODING 8564
BBX 5 5 1 -1
BITMAP
88
88
50
50
20
ENDCHAR
STARTCHAR uni2175
ENCODING 8565
BBX 5 7 1 -1
BITMAP
08
00
A8
A8
A8
48
48
ENDCHAR
STARTCHAR uni2176
ENCODING 8566
BBX 7 7 0 -1
BITMAP
0A
00
AA
AA
AA
4A
4A
ENDCHAR
STARTCHAR uni2177
ENCODING 8567
BBX 7 7 0 -1
BITMAP
2A
00
AA
AA
AA
4A
4A
ENDCHAR
STARTCHAR uni2178
ENCODING 8568
BBX 5 7 1 -1
BITMAP
80
00
A8
A8
90
A8
A8
ENDCHAR
STARTCHAR uni2179
ENCODING 8569
BBX 5 5 1 -1
BITMAP
88
50
20
50
88
ENDCHAR
STARTCHAR arrowleft
ENCODING 8592
BBX 7 5 0 0
BITMAP
20
40
FE
40
20
ENDCHAR
STARTCHAR arrowup
ENCODING 8593
BBX 5 7 1 -1
BITMAP
20
70
A8
20
20
20
20
ENDCHAR
STARTCHAR arrowright
ENCODING 8594
BBX 7 5 0 0
BITMAP
08
04
FE
04
08
ENDCHAR
STARTCHAR arrowdown
ENCODING 8595
BBX 5 7 1 -1
BITMAP
20
20
20
20
A8
70
20
ENDCHAR
STARTCHAR uni2196
ENCODING 8598
BBX 5 5 1 1
BITMAP
E0
C0
A0
10
08
ENDCHAR
STARTCHAR uni2197
ENCODING 8599
BBX 5 5 1 1
BITMAP
38
18
28
40
80
ENDCHAR
STARTCHAR uni2198
ENCODING 8600
BBX 5 5 2 0
BITMAP
80
40
28
18
38
ENDCHAR
STARTCHAR uni2199
ENCODING 8601
BBX 5 5 1 0
BITMAP
08
10
A0
C0
E0
ENDCHAR
STARTCHAR element
ENCODING 8712
BBX 6 5 1 0
BITMAP
7C
80
FC
80
7C
ENDCHAR
STARTCHAR product
ENCODING 8719
BBX 7 7 0 -1
BITMAP
FE
44
44
44
44
44
EE
ENDCHAR
STARTCHAR summation
ENCODING 8721
BBX 6 7 0 -1
BITMAP
FC
44
20
10
20
44
FC
ENDCHAR
STARTCHAR uni2215
ENCODING 8725
BBX 4 7 2 -1
BITMAP
10
10
20
20
40
40
80
ENDCHAR
STARTCHAR radical
ENCODING 8730
BBX 7 7 0 -1
BITMAP
1E
10
20
20
E0
40
40
ENDCHAR
STARTCHAR proportional
ENCODING 8733
BBX 7 5 0 0
BITMAP
6C
92
90
92
6C
ENDCHAR
STARTCHAR infinity
ENCODING 8734
BBX 7 5 0 0
BITMAP
6C
92
92
92
6C
ENDCHAR
STARTCHAR orthogonal
ENCODING 8735
BBX 6 6 1 0
BITMAP
80
80
80
80
80
FC
ENDCHAR
STARTCHAR angle
ENCODING 8736
BBX 6 6 1 -1
BITMAP
04
08
10
20
40
FC
ENDCHAR
STARTCHAR uni2223
ENCODING 8739
BBX 1 7 3 -1
BITMAP
80
80
80
80
80
80
80
ENDCHAR
STARTCHAR uni2225
ENCODING 8741
BBX 4 7 1 -1
BITMAP
50
50
50
A0
A0
A0
A0
ENDCHAR
STARTCHAR logicaland
ENCODING 8743
BBX 7 7 0 -1
BITMAP
10
10
28
28
44
44
82
ENDCHAR
STARTCHAR logicalor
ENCODING 8744
BBX 7 7 0 -1
BITMAP
82
44
44
28
28
10
10
ENDCHAR
STARTCHAR intersection
ENCODING 8745
BBX 6 6 1 -1
BITMAP
78
84
84
84
84
84
ENDCHAR
STARTCHAR union
ENCODING 8746
BBX 6 6 1 0
BITMAP
84
84
84
84
84
78
ENDCHAR
STARTCHAR integral
ENCODING 8747
BBX 3 7 2 -1
BITMAP
60
80
80
40
20
20
C0
ENDCHAR
STARTCHAR uni222C
ENCODING 8748
SWIDTH 3906 0
DWIDTH 31 0
SWIDTH1 3906 0
DWIDTH1 31 0
BBX 6 7 1 -1
BITMAP
6C
90
90
48
24
24
D8
ENDCHAR
STARTCHAR uni222E
ENCODING 8750
BBX 5 7 1 -1
BITMAP
18
20
70
50
70
20
C0
ENDCHAR
STARTCHAR therefore
ENCODING 8756
BBX 5 5 1 0
BITMAP
20
00
00
00
88
ENDCHAR
STARTCHAR uni2235
ENCODING 8757
BBX 5 5 1 0
BITMAP
88
00
00
00
20
ENDCHAR
STARTCHAR uni2236
ENCODING 8758
BBX 1 5 3 0
BITMAP
80
00
00
00
80
ENDCHAR
STARTCHAR uni2237
ENCODING 8759
BBX 4 4 1 1
BITMAP
90
00
00
90
ENDCHAR
STARTCHAR uni223D
ENCODING 8765
BBX 7 5 0 0
BITMAP
4C
92
92
92
64
ENDCHAR
STARTCHAR approxequal
ENCODING 8776
BBX 6 5 0 0
BITMAP
98
64
00
98
64
ENDCHAR
STARTCHAR uni224C
ENCODING 8780
BBX 7 7 0 -1
BITMAP
4C
92
64
00
FE
00
FE
ENDCHAR
STARTCHAR uni2252
ENCODING 8786
BBX 7 7 0 -1
BITMAP
40
00
FE
00
FE
00
04
ENDCHAR
STARTCHAR notequal
ENCODING 8800
BBX 7 5 0 0
BITMAP
04
FE
10
FE
40
ENDCHAR
STARTCHAR equivalence
ENCODING 8801
BBX 6 5 1 0
BITMAP
FC
00
FC
00
FC
ENDCHAR
STARTCHAR lessequal
ENCODING 8804
BBX 6 7 0 -1
BITMAP
0C
30
C0
30
CC
30
0C
ENDCHAR
STARTCHAR greaterequal
ENCODING 8805
BBX 6 7 0 -1
BITMAP
C0
30
0C
30
CC
30
C0
ENDCHAR
STARTCHAR uni2266
ENCODING 8806
BBX 7 7 0 -1
BITMAP
1E
E0
1E
00
FE
00
FE
ENDCHAR
STARTCHAR uni2267
ENCODING 8807
BBX 7 7 0 -1
BITMAP
F0
0E
F0
00
FE
00
FE
ENDCHAR
STARTCHAR uni226A
ENCODING 8810
SWIDTH 3906 0
DWIDTH 31 0
SWIDTH1 3906 0
DWIDTH1 31 0
BBX 7 7 0 -1
BITMAP
12
24
48
90
48
24
12
ENDCHAR
STARTCHAR uni226B
ENCODING 8811
SWIDTH 3906 0
DWIDTH 31 0
SWIDTH1 3906 0
DWIDTH1 31 0
BBX 7 7 0 -1
BITMAP
90
48
24
12
24
48
90
ENDCHAR
STARTCHAR uni226E
ENCODING 8814
BBX 7 7 0 -1
BITMAP
08
0E
38
C8
38
0E
08
ENDCHAR
STARTCHAR uni226F
ENCODING 8815
BBX 7 7 0 -1
BITMAP
20
E0
38
26
38
E0
20
ENDCHAR
STARTCHAR circleplus
ENCODING 8853
BBX 7 7 0 -1
BITMAP
38
54
92
FE
92
54
38
ENDCHAR
STARTCHAR uni2299
ENCODING 8857
BBX 7 7 0 -1
BITMAP
38
44
82
92
82
44
38
ENDCHAR
STARTCHAR perpendicular
ENCODING 8869
BBX 7 6 0 -1
BITMAP
10
10
10
10
10
FE
ENDCHAR
STARTCHAR uni22BF
ENCODING 8895
BBX 6 6 0 0
BITMAP
04
0C
14
24
44
FC
ENDCHAR
STARTCHAR uni2312
ENCODING 8978
BBX 6 2 1 4
BITMAP
78
84
ENDCHAR
STARTCHAR uni2460
ENCODING 9312
BBX 7 7 0 -1
BITMAP
7C
EE
EE
EE
EE
EE
7C
ENDCHAR
STARTCHAR uni2461
ENCODING 9313
BBX 7 7 0 -1
BITMAP
7C
C6
F6
C6
DE
C6
7C
ENDCHAR
STARTCHAR uni2462
ENCODING 9314
BBX 7 7 0 -1
BITMAP
7C
C6
F6
C6
F6
C6
7C
ENDCHAR
STARTCHAR uni2463
ENCODING 9315
BBX 7 7 0 -1
BITMAP
7C
D6
D6
C6
F6
F6
7C
ENDCHAR
STARTCHAR uni2464
ENCODING 9316
BBX 7 7 0 -1
BITMAP
7C
C6
DE
C6
F6
C6
7C
ENDCHAR
STARTCHAR uni2465
ENCODING 9317
BBX 7 7 0 -1
BITMAP
7C
C6
DE
C6
D6
C6
7C
ENDCHAR
STARTCHAR uni2466
ENCODING 9318
BBX 7 7 0 -1
BITMAP
7C
C6
F6
F6
F6
F6
7C
ENDCHAR
STARTCHAR uni2467
ENCODING 9319
BBX 7 7 0 -1
BITMAP
7C
C6
D6
C6
D6
C6
7C
ENDCHAR
STARTCHAR uni2468
ENCODING 9320
BBX 7 7 0 -1
BITMAP
7C
C6
D6
C6
F6
C6
7C
ENDCHAR
STARTCHAR uni2469
ENCODING 9321
BBX 7 7 0 -1
BITMAP
7C
A2
AA
AA
AA
A2
7C
ENDCHAR
STARTCHAR uni2474
ENCODING 9332
BBX 7 7 0 -1
BITMAP
44
92
92
92
92
92
44
ENDCHAR
STARTCHAR uni2475
ENCODING 9333
BBX 7 7 0 -1
BITMAP
44
BA
8A
92
A2
BA
44
ENDCHAR
STARTCHAR uni2476
ENCODING 9334
BBX 7 7 0 -1
BITMAP
44
B2
8A
92
8A
B2
44
ENDCHAR
STARTCHAR uni2477
ENCODING 9335
BBX 7 7 0 -1
BITMAP
44
9A
AA
AA
BA
8A
44
ENDCHAR
STARTCHAR uni2478
ENCODING 9336
BBX 7 7 0 -1
BITMAP
44
BA
A2
BA
8A
B2
44
ENDCHAR
STARTCHAR uni2479
ENCODING 9337
BBX 7 7 0 -1
BITMAP
44
9A
A2
BA
AA
BA
44
ENDCHAR
STARTCHAR uni247A
ENCODING 9338
BBX 7 7 0 -1
BITMAP
44
BA
8A
92
92
92
44
ENDCHAR
STARTCHAR uni247B
ENCODING 9339
BBX 7 7 0 -1
BITMAP
44
BA
AA
92
AA
BA
44
ENDCHAR
STARTCHAR uni247C
ENCODING 9340
BBX 7 7 0 -1
BITMAP
44
BA
AA
BA
8A
B2
44
ENDCHAR
STARTCHAR uni247D
ENCODING 9341
BBX 7 7 0 -1
BITMAP
44
82
DE
D6
DE
82
44
ENDCHAR
STARTCHAR uni247E
ENCODING 9342
BBX 7 7 0 -1
BITMAP
44
82
AA
AA
AA
82
44
ENDCHAR
STARTCHAR uni247F
ENCODING 9343
BBX 7 7 0 -1
BITMAP
44
9A
C6
CA
DE
82
44
ENDCHAR
STARTCHAR uni2480
ENCODING 9344
BBX 7 7 0 -1
BITMAP
44
92
CA
D2
CA
92
44
ENDCHAR
STARTCHAR uni2481
ENCODING 9345
BBX 7 7 0 -1
BITMAP
44
92
DA
DE
CA
82
44
ENDCHAR
STARTCHAR uni2482
ENCODING 9346
BBX 7 7 0 -1
BITMAP
44
9A
D2
CA
DA
82
44
ENDCHAR
STARTCHAR uni2483
ENCODING 9347
BBX 7 7 0 -1
BITMAP
44
9A
D2
DA
DA
82
44
ENDCHAR
STARTCHAR uni2484
ENCODING 9348
BBX 7 7 0 -1
BITMAP
44
82
DA
CA
CA
82
44
ENDCHAR
STARTCHAR uni2485
ENCODING 9349
BBX 7 7 0 -1
BITMAP
44
8A
D6
CA
D6
8A
44
ENDCHAR
STARTCHAR uni2486
ENCODING 9350
BBX 7 7 0 -1
BITMAP
44
9A
DA
CA
DA
82
44
ENDCHAR
STARTCHAR uni2487
ENCODING 9351
BBX 7 7 0 -1
BITMAP
44
E2
96
AA
F6
82
44
ENDCHAR
STARTCHAR uni2488
ENCODING 9352
BBX 4 6 1 0
BITMAP
40
C0
40
40
40
50
ENDCHAR
STARTCHAR uni2489
ENCODING 9353
BBX 5 6 1 0
BITMAP
C0
20
20
40
80
E8
ENDCHAR
STARTCHAR uni248A
ENCODING 9354
BBX 6 6 1 0
BITMAP
60
90
20
10
90
64
ENDCHAR
STARTCHAR uni248B
ENCODING 9355
BBX 6 6 1 0
BITMAP
20
60
A0
A0
F0
24
ENDCHAR
STARTCHAR uni248C
ENCODING 9356
BBX 5 6 1 0
BITMAP
E0
80
C0
20
20
C8
ENDCHAR
STARTCHAR uni248D
ENCODING 9357
BBX 6 6 1 0
BITMAP
60
80
E0
90
90
64
ENDCHAR
STARTCHAR uni248E
ENCODING 9358
BBX 5 6 1 0
BITMAP
F0
10
10
20
20
48
ENDCHAR
STARTCHAR uni248F
ENCODING 9359
BBX 6 6 1 0
BITMAP
60
90
60
90
90
64
ENDCHAR
STARTCHAR uni2490
ENCODING 9360
BBX 6 6 1 0
BITMAP
60
90
90
70
90
64
ENDCHAR
STARTCHAR uni2491
ENCODING 9361
BBX 7 6 0 0
BITMAP
48
D4
54
54
54
4A
ENDCHAR
STARTCHAR uni2492
ENCODING 9362
BBX 7 6 0 0
BITMAP
48
D8
48
48
48
4A
ENDCHAR
STARTCHAR uni2493
ENCODING 9363
BBX 7 6 0 0
BITMAP
90
A8
88
90
A0
BA
ENDCHAR
STARTCHAR uni2494
ENCODING 9364
BBX 7 6 0 0
BITMAP
B0
88
90
88
88
B2
ENDCHAR
STARTCHAR uni2495
ENCODING 9365
BBX 7 6 0 0
BITMAP
A8
A8
A8
BC
88
8A
ENDCHAR
STARTCHAR uni2496
ENCODING 9366
BBX 7 6 0 0
BITMAP
B8
A0
B0
88
88
B2
ENDCHAR
STARTCHAR uni2497
ENCODING 9367
BBX 7 6 0 0
BITMAP
98
A0
B8
A4
A4
9A
ENDCHAR
STARTCHAR uni2498
ENCODING 9368
BBX 7 6 0 0
BITMAP
BC
84
88
88
90
92
ENDCHAR
STARTCHAR uni2499
ENCODING 9369
BBX 7 6 0 0
BITMAP
98
A4
98
A4
A4
9A
ENDCHAR
STARTCHAR uni249A
ENCODING 9370
BBX 7 6 0 0
BITMAP
98
A4
A4
9C
84
9A
ENDCHAR
STARTCHAR uni249B
ENCODING 9371
BBX 7 6 0 0
BITMAP
48
B4
34
34
54
EA
ENDCHAR
STARTCHAR SF100000
ENCODING 9472
BBX 8 1 0 2
BITMAP
FF
ENDCHAR
STARTCHAR uni2501
ENCODING 9473
BBX 8 2 0 1
BITMAP
FF
FF
ENDCHAR
STARTCHAR SF110000
ENCODING 9474
BBX 1 8 3 -2
BITMAP
80
80
80
80
80
80
80
80
ENDCHAR
STARTCHAR uni2503
ENCODING 9475
BBX 2 8 3 -2
BITMAP
C0
C0
C0
C0
C0
C0
C0
C0
ENDCHAR
STARTCHAR uni2504
ENCODING 9476
BBX 8 1 0 2
BITMAP
DB
ENDCHAR
STARTCHAR uni2505
ENCODING 9477
BBX 8 2 0 2
BITMAP
DB
DB
ENDCHAR
STARTCHAR uni2506
ENCODING 9478
BBX 1 8 3 -2
BITMAP
80
80
00
80
80
00
80
80
ENDCHAR
STARTCHAR uni2507
ENCODING 9479
BBX 2 8 3 -2
BITMAP
C0
C0
00
C0
C0
00
C0
C0
ENDCHAR
STARTCHAR uni2508
ENCODING 9480
BBX 7 1 0 2
BITMAP
AA
ENDCHAR
STARTCHAR uni2509
ENCODING 9481
BBX 7 2 0 2
BITMAP
AA
AA
ENDCHAR
STARTCHAR uni250A
ENCODING 9482
BBX 1 7 3 -1
BITMAP
80
00
80
00
80
00
80
ENDCHAR
STARTCHAR uni250B
ENCODING 9483
BBX 2 7 3 -1
BITMAP
C0
00
C0
00
C0
00
C0
ENDCHAR
STARTCHAR SF010000
ENCODING 9484
BBX 5 5 3 -2
BITMAP
F8
80
80
80
80
ENDCHAR
STARTCHAR uni250D
ENCODING 9485
BBX 5 5 3 -2
BITMAP
F8
F8
80
80
80
ENDCHAR
STARTCHAR uni250E
ENCODING 9486
BBX 5 5 3 -2
BITMAP
F8
C0
C0
C0
C0
ENDCHAR
STARTCHAR uni250F
ENCODING 9487
BBX 5 5 3 -2
BITMAP
F8
F8
C0
C0
C0
ENDCHAR
STARTCHAR SF030000
ENCODING 9488
BBX 4 5 0 -2
BITMAP
F0
10
10
10
10
ENDCHAR
STARTCHAR uni2511
ENCODING 9489
BBX 4 5 0 -2
BITMAP
F0
F0
10
10
10
ENDCHAR
STARTCHAR uni2512
ENCODING 9490
BBX 5 5 0 -2
BITMAP
F8
18
18
18
18
ENDCHAR
STARTCHAR uni2513
ENCODING 9491
BBX 5 5 0 -2
BITMAP
F8
F8
18
18
18
ENDCHAR
STARTCHAR SF020000
ENCODING 9492
BBX 5 4 3 2
BITMAP
80
80
80
F8
ENDCHAR
STARTCHAR uni2515
ENCODING 9493
BBX 5 5 3 1
BITMAP
80
80
80
F8
F8
ENDCHAR
STARTCHAR uni2516
ENCODING 9494
BBX 5 4 3 2
BITMAP
C0
C0
C0
F8
ENDCHAR
STARTCHAR uni2517
ENCODING 9495
BBX 5 5 3 1
BITMAP
C0
C0
C0
F8
F8
ENDCHAR
STARTCHAR SF040000
ENCODING 9496
BBX 4 4 0 2
BITMAP
10
10
10
F0
ENDCHAR
STARTCHAR uni2519
ENCODING 9497
BBX 4 5 0 1
BITMAP
10
10
10
F0
F0
ENDCHAR
STARTCHAR uni251A
ENCODING 9498
BBX 5 4 0 2
BITMAP
18
18
18
F8
ENDCHAR
STARTCHAR uni251B
ENCODING 9499
BBX 5 5 0 1
BITMAP
18
18
18
F8
F8
ENDCHAR
STARTCHAR SF080000
ENCODING 9500
BBX 5 8 3 -2
BITMAP
80
80
80
F8
80
80
80
80
ENDCHAR
STARTCHAR uni251D
ENCODING 9501
BBX 5 8 3 -2
BITMAP
80
80
80
F8
F8
80
80
80
ENDCHAR
STARTCHAR uni251E
ENCODING 9502
BBX 5 8 3 -2
BITMAP
C0
C0
C0
F8
80
80
80
80
ENDCHAR
STARTCHAR uni251F
ENCODING 9503
BBX 5 8 3 -2
BITMAP
80
80
80
F8
C0
C0
C0
C0
ENDCHAR
STARTCHAR uni2520
ENCODING 9504
BBX 5 8 3 -2
BITMAP
C0
C0
C0
F8
C0
C0
C0
C0
ENDCHAR
STARTCHAR uni2521
ENCODING 9505
BBX 5 8 3 -2
BITMAP
C0
C0
C0
F8
F8
80
80
80
ENDCHAR
STARTCHAR uni2522
ENCODING 9506
BBX 5 8 3 -2
BITMAP
80
80
80
F8
F8
C0
C0
C0
ENDCHAR
STARTCHAR uni2523
ENCODING 9507
BBX 5 8 3 -2
BITMAP
C0
C0
C0
F8
F8
C0
C0
C0
ENDCHAR
STARTCHAR SF090000
ENCODING 9508
BBX 4 8 0 -2
BITMAP
10
10
10
F0
10
10
10
10
ENDCHAR
STARTCHAR uni2525
ENCODING 9509
BBX 4 8 0 -2
BITMAP
10
10
10
F0
F0
10
10
10
ENDCHAR
STARTCHAR uni2526
ENCODING 9510
BBX 5 8 0 -2
BITMAP
18
18
18
F8
10
10
10
10
ENDCHAR
STARTCHAR uni2527
ENCODING 9511
BBX 5 8 0 -2
BITMAP
10
10
10
F8
18
18
18
18
ENDCHAR
STARTCHAR uni2528
ENCODING 9512
BBX 5 8 0 -2
BITMAP
18
18
18
F8
18
18
18
18
ENDCHAR
STARTCHAR uni2529
ENCODING 9513
BBX 4 8 0 -2
BITMAP
30
30
30
F0
10
10
10
10
ENDCHAR
STARTCHAR uni252A
ENCODING 9514
BBX 5 8 0 -2
BITMAP
10
10
10
F8
18
18
18
18
ENDCHAR
STARTCHAR uni252B
ENCODING 9515
BBX 5 8 0 -2
BITMAP
18
18
18
F8
F8
18
18
18
ENDCHAR
STARTCHAR SF060000
ENCODING 9516
BBX 8 5 0 -2
BITMAP
FF
10
10
10
10
ENDCHAR
STARTCHAR uni252D
ENCODING 9517
BBX 8 5 0 -2
BITMAP
FF
F0
10
10
10
ENDCHAR
STARTCHAR uni252E
ENCODING 9518
BBX 8 5 0 -2
BITMAP
FF
1F
10
10
10
ENDCHAR
STARTCHAR uni252F
ENCODING 9519
BBX 8 5 0 -2
BITMAP
FF
FF
10
10
10
ENDCHAR
STARTCHAR uni2530
ENCODING 9520
BBX 8 5 0 -2
BITMAP
FF
18
18
18
18
ENDCHAR
STARTCHAR uni2531
ENCODING 9521
BBX 8 5 0 -2
BITMAP
FF
F0
10
10
10
ENDCHAR
STARTCHAR uni2532
ENCODING 9522
BBX 8 5 0 -2
BITMAP
FF
1F
10
10
10
ENDCHAR
STARTCHAR uni2533
ENCODING 9523
BBX 8 5 0 -2
BITMAP
FF
FF
18
18
18
ENDCHAR
STARTCHAR SF070000
ENCODING 9524
BBX 8 4 0 2
BITMAP
10
10
10
FF
ENDCHAR
STARTCHAR uni2535
ENCODING 9525
BBX 8 5 0 1
BITMAP
10
10
10
FF
F0
ENDCHAR
STARTCHAR uni2536
ENCODING 9526
BBX 8 5 0 1
BITMAP
10
10
10
FF
1F
ENDCHAR
STARTCHAR uni2537
ENCODING 9527
BBX 8 5 0 1
BITMAP
10
10
10
FF
FF
ENDCHAR
STARTCHAR uni2538
ENCODING 9528
BBX 8 4 0 2
BITMAP
18
18
18
FF
ENDCHAR
STARTCHAR uni2539
ENCODING 9529
BBX 8 5 0 1
BITMAP
18
18
18
FF
F8
ENDCHAR
STARTCHAR uni253A
ENCODING 9530
BBX 8 5 0 1
BITMAP
18
18
18
FF
1F
ENDCHAR
STARTCHAR uni253B
ENCODING 9531
BBX 8 5 0 1
BITMAP
18
18
18
FF
FF
ENDCHAR
STARTCHAR SF050000
ENCODING 9532
BBX 8 8 0 -2
BITMAP
10
10
10
FF
10
10
10
10
ENDCHAR
STARTCHAR uni253D
ENCODING 9533
BBX 8 8 0 -2
BITMAP
10
10
10
FF
F0
10
10
10
ENDCHAR
STARTCHAR uni253E
ENCODING 9534
BBX 8 8 0 -2
BITMAP
10
10
10
FF
1F
10
10
10
ENDCHAR
STARTCHAR uni253F
ENCODING 9535
BBX 8 8 0 -2
BITMAP
10
10
10
FF
FF
10
10
10
ENDCHAR
STARTCHAR uni2540
ENCODING 9536
BBX 8 8 0 -2
BITMAP
18
18
18
FF
10
10
10
10
ENDCHAR
STARTCHAR uni2541
ENCODING 9537
BBX 8 8 0 -2
BITMAP
10
10
10
FF
18
18
18
18
ENDCHAR
STARTCHAR uni2542
ENCODING 9538
BBX 8 8 0 -2
BITMAP
18
18
18
FF
18
18
18
18
ENDCHAR
STARTCHAR uni2543
ENCODING 9539
BBX 8 8 0 -2
BITMAP
18
18
18
FF
10
10
10
10
ENDCHAR
STARTCHAR uni2544
ENCODING 9540
BBX 8 8 0 -2
BITMAP
18
18
18
FF
1F
10
10
10
ENDCHAR
STARTCHAR uni2545
ENCODING 9541
BBX 8 8 0 -2
BITMAP
10
10
10
FF
F8
18
18
18
ENDCHAR
STARTCHAR uni2546
ENCODING 9542
BBX 8 8 0 -2
BITMAP
10
10
10
FF
1F
18
18
18
ENDCHAR
STARTCHAR uni2547
ENCODING 9543
BBX 8 8 0 -2
BITMAP
18
18
18
FF
FF
10
10
10
ENDCHAR
STARTCHAR uni2548
ENCODING 9544
BBX 8 8 0 -2
BITMAP
10
10
10
FF
FF
18
18
18
ENDCHAR
STARTCHAR uni2549
ENCODING 9545
BBX 8 8 0 -2
BITMAP
18
18
18
FF
F8
18
18
18
ENDCHAR
STARTCHAR uni254A
ENCODING 9546
BBX 8 8 0 -2
BITMAP
18
18
18
FF
1F
18
18
18
ENDCHAR
STARTCHAR uni254B
ENCODING 9547
BBX 8 8 0 -2
BITMAP
18
18
18
FF
FF
18
18
18
ENDCHAR
STARTCHAR SF430000
ENCODING 9552
BBX 8 3 0 1
BITMAP
FF
00
FF
ENDCHAR
STARTCHAR SF240000
ENCODING 9553
BBX 3 8 2 -2
BITMAP
A0
A0
A0
A0
A0
A0
A0
A0
ENDCHAR
STARTCHAR SF510000
ENCODING 9554
BBX 5 6 3 -2
BITMAP
F8
80
F8
80
80
80
ENDCHAR
STARTCHAR SF520000
ENCODING 9555
BBX 5 5 3 -2
BITMAP
F8
A0
A0
A0
A0
ENDCHAR
STARTCHAR SF390000
ENCODING 9556
BBX 6 6 2 -2
BITMAP
FC
80
BC
A0
A0
A0
ENDCHAR
STARTCHAR SF220000
ENCODING 9557
BBX 4 6 0 -2
BITMAP
F0
10
F0
10
10
10
ENDCHAR
STARTCHAR SF210000
ENCODING 9558
BBX 5 5 0 -2
BITMAP
F8
28
28
28
28
ENDCHAR
STARTCHAR SF250000
ENCODING 9559
BBX 5 6 0 -2
BITMAP
F8
08
E8
28
28
28
ENDCHAR
STARTCHAR SF500000
ENCODING 9560
BBX 5 5 3 1
BITMAP
80
80
F8
80
F8
ENDCHAR
STARTCHAR SF490000
ENCODING 9561
BBX 6 4 2 2
BITMAP
A0
A0
A0
FC
ENDCHAR
STARTCHAR SF380000
ENCODING 9562
BBX 6 5 2 1
BITMAP
A0
A0
BC
80
FC
ENDCHAR
STARTCHAR SF280000
ENCODING 9563
BBX 4 5 0 1
BITMAP
10
10
F0
10
F0
ENDCHAR
STARTCHAR SF270000
ENCODING 9564
BBX 5 4 0 2
BITMAP
28
28
28
F8
ENDCHAR
STARTCHAR SF260000
ENCODING 9565
BBX 5 5 0 1
BITMAP
28
28
E8
08
F8
ENDCHAR
STARTCHAR SF360000
ENCODING 9566
BBX 5 8 3 -2
BITMAP
80
80
F8
80
F8
80
80
80
ENDCHAR
STARTCHAR SF370000
ENCODING 9567
BBX 6 8 2 -2
BITMAP
A0
A0
A0
BC
A0
A0
A0
A0
ENDCHAR
STARTCHAR SF420000
ENCODING 9568
BBX 6 8 2 -2
BITMAP
A0
A0
BC
80
BC
A0
A0
A0
ENDCHAR
STARTCHAR SF190000
ENCODING 9569
BBX 4 8 0 -2
BITMAP
10
10
F0
10
F0
10
10
10
ENDCHAR
STARTCHAR SF200000
ENCODING 9570
BBX 5 8 0 -2
BITMAP
28
28
28
E8
28
28
28
28
ENDCHAR
STARTCHAR SF230000
ENCODING 9571
BBX 5 8 0 -2
BITMAP
28
28
E8
08
E8
28
28
28
ENDCHAR
STARTCHAR SF470000
ENCODING 9572
BBX 8 6 0 -2
BITMAP
FF
00
FF
10
10
10
ENDCHAR
STARTCHAR SF480000
ENCODING 9573
BBX 8 5 0 -2
BITMAP
FF
28
28
28
28
ENDCHAR
STARTCHAR SF410000
ENCODING 9574
BBX 8 6 0 -2
BITMAP
FF
00
EF
28
28
28
ENDCHAR
STARTCHAR SF450000
ENCODING 9575
BBX 8 5 0 1
BITMAP
10
10
FF
00
FF
ENDCHAR
STARTCHAR SF460000
ENCODING 9576
BBX 8 4 0 2
BITMAP
28
28
28
FF
ENDCHAR
STARTCHAR SF400000
ENCODING 9577
BBX 8 5 0 1
BITMAP
28
28
EF
00
FF
ENDCHAR
STARTCHAR SF540000
ENCODING 9578
BBX 8 8 0 -2
BITMAP
10
10
FF
10
FF
10
10
10
ENDCHAR
STARTCHAR SF530000
ENCODING 9579
BBX 8 8 0 -2
BITMAP
28
28
28
FF
28
28
28
28
ENDCHAR
STARTCHAR SF440000
ENCODING 9580
BBX 8 8 0 -2
BITMAP
28
28
EF
00
EF
28
28
28
ENDCHAR
STARTCHAR uni256D
ENCODING 9581
BBX 5 5 3 -2
BITMAP
38
40
80
80
80
ENDCHAR
STARTCHAR uni256E
ENCODING 9582
BBX 4 5 0 -2
BITMAP
C0
20
10
10
10
ENDCHAR
STARTCHAR uni256F
ENCODING 9583
BBX 4 4 0 2
BITMAP
10
10
20
C0
ENDCHAR
STARTCHAR uni2570
ENCODING 9584
BBX 5 4 3 2
BITMAP
80
80
40
38
ENDCHAR
STARTCHAR uni2571
ENCODING 9585
BBX 8 8 0 -2
BITMAP
01
02
04
08
10
20
40
80
ENDCHAR
STARTCHAR uni2572
ENCODING 9586
BBX 8 8 0 -2
BITMAP
80
40
20
10
08
04
02
01
ENDCHAR
STARTCHAR uni2573
ENCODING 9587
BBX 8 8 0 -2
BITMAP
81
42
24
18
18
24
42
81
ENDCHAR
STARTCHAR uni2581
ENCODING 9601
BBX 8 1 0 -2
BITMAP
FF
ENDCHAR
STARTCHAR uni2582
ENCODING 9602
BBX 8 2 0 -2
BITMAP
FF
FF
ENDCHAR
STARTCHAR uni2583
ENCODING 9603
BBX 8 3 0 -2
BITMAP
FF
FF
FF
ENDCHAR
STARTCHAR dnblock
ENCODING 9604
BBX 8 4 0 -2
BITMAP
FF
FF
FF
FF
ENDCHAR
STARTCHAR uni2585
ENCODING 9605
BBX 8 5 0 -2
BITMAP
FF
FF
FF
FF
FF
ENDCHAR
STARTCHAR uni2586
ENCODING 9606
BBX 8 6 0 -2
BITMAP
FF
FF
FF
FF
FF
FF
ENDCHAR
STARTCHAR uni2587
ENCODING 9607
BBX 8 7 0 -2
BITMAP
FF
FF
FF
FF
FF
FF
FF
ENDCHAR
STARTCHAR block
ENCODING 9608
BBX 8 8 0 -2
BITMAP
FF
FF
FF
FF
FF
FF
FF
FF
ENDCHAR
STARTCHAR uni2589
ENCODING 9609
BBX 7 8 0 -2
BITMAP
FE
FE
FE
FE
FE
FE
FE
FE
ENDCHAR
STARTCHAR uni258A
ENCODING 9610
BBX 6 8 0 -2
BITMAP
FC
FC
FC
FC
FC
FC
FC
FC
ENDCHAR
STARTCHAR uni258B
ENCODING 9611
BBX 5 8 0 -2
BITMAP
F8
F8
F8
F8
F8
F8
F8
F8
ENDCHAR
STARTCHAR lfblock
ENCODING 9612
BBX 4 8 0 -2
BITMAP
F0
F0
F0
F0
F0
F0
F0
F0
ENDCHAR
STARTCHAR uni258D
ENCODING 9613
BBX 3 8 0 -2
BITMAP
E0
E0
E0
E0
E0
E0
E0
E0
ENDCHAR
STARTCHAR uni258E
ENCODING 9614
BBX 2 8 0 -2
BITMAP
C0
C0
C0
C0
C0
C0
C0
C0
ENDCHAR
STARTCHAR uni258F
ENCODING 9615
BBX 1 8 0 -2
BITMAP
80
80
80
80
80
80
80
80
ENDCHAR
STARTCHAR dkshade
ENCODING 9619
BBX 7 7 0 -1
BITMAP
54
FE
54
FE
54
FE
54
ENDCHAR
STARTCHAR uni2594
ENCODING 9620
BBX 8 1 0 5
BITMAP
FF
ENDCHAR
STARTCHAR uni2595
ENCODING 9621
BBX 1 8 7 -2
BITMAP
80
80
80
80
80
80
80
80
ENDCHAR
STARTCHAR filledbox
ENCODING 9632
BBX 7 7 0 -1
BITMAP
FE
FE
FE
FE
FE
FE
FE
ENDCHAR
STARTCHAR H22073
ENCODING 9633
BBX 7 7 0 -1
BITMAP
FE
82
82
82
82
82
FE
ENDCHAR
STARTCHAR triagup
ENCODING 9650
BBX 7 7 0 -1
BITMAP
10
10
38
38
7C
7C
FE
ENDCHAR
STARTCHAR uni25B3
ENCODING 9651
BBX 7 7 0 -1
BITMAP
10
10
28
28
44
44
FE
ENDCHAR
STARTCHAR triagdn
ENCODING 9660
BBX 7 7 0 -1
BITMAP
FE
7C
7C
38
38
10
10
ENDCHAR
STARTCHAR uni25BD
ENCODING 9661
BBX 7 7 0 -1
BITMAP
FE
44
44
28
28
10
10
ENDCHAR
STARTCHAR uni25C6
ENCODING 9670
BBX 7 7 0 -1
BITMAP
10
38
7C
FE
7C
38
10
ENDCHAR
STARTCHAR uni25C7
ENCODING 9671
BBX 7 7 0 -1
BITMAP
10
28
44
82
44
28
10
ENDCHAR
STARTCHAR circle
ENCODING 9675
BBX 7 7 0 -1
BITMAP
38
44
82
82
82
44
38
ENDCHAR
STARTCHAR uni25CE
ENCODING 9678
BBX 7 7 0 -1
BITMAP
38
44
BA
AA
BA
44
38
ENDCHAR
STARTCHAR H18533
ENCODING 9679
BBX 7 7 0 -1
BITMAP
38
7C
FE
FE
FE
7C
38
ENDCHAR
STARTCHAR uni25E2
ENCODING 9698
BBX 8 8 0 -2
BITMAP
01
03
07
0F
1F
3F
7F
FF
ENDCHAR
STARTCHAR uni25E3
ENCODING 9699
BBX 8 8 0 -2
BITMAP
80
C0
E0
F0
F8
FC
FE
FF
ENDCHAR
STARTCHAR uni25E4
ENCODING 9700
BBX 8 8 0 -2
BITMAP
FF
FE
FC
F8
F0
E0
C0
80
ENDCHAR
STARTCHAR uni25E5
ENCODING 9701
BBX 8 8 0 -2
BITMAP
FF
7F
3F
1F
0F
07
03
01
ENDCHAR
STARTCHAR uni25EF
ENCODING 9711
SWIDTH 2089 0
DWIDTH 17 0
SWIDTH1 3906 0
DWIDTH1 31 0
BBX 7 7 0 -1
BITMAP
38
44
82
82
82
44
38
ENDCHAR
STARTCHAR uni2605
ENCODING 9733
BBX 7 7 0 -1
BITMAP
10
10
FE
7C
38
6C
44
ENDCHAR
STARTCHAR uni2606
ENCODING 9734
BBX 7 7 0 -1
BITMAP
10
10
EE
44
28
54
6C
ENDCHAR
STARTCHAR uni2609
ENCODING 9737
BBX 5 5 1 0
BITMAP
70
88
A8
88
70
ENDCHAR
STARTCHAR female
ENCODING 9792
BBX 5 7 1 -1
BITMAP
70
88
88
70
20
F8
20
ENDCHAR
STARTCHAR male
ENCODING 9794
BBX 7 7 0 -1
BITMAP
1E
06
0A
72
90
90
60
ENDCHAR
STARTCHAR musicalnote
ENCODING 9834
SWIDTH 2089 0
DWIDTH 17 0
SWIDTH1 3906 0
DWIDTH1 31 0
BBX 5 7 1 -1
BITMAP
20
30
28
28
60
E0
C0
ENDCHAR
STARTCHAR uni266D
ENCODING 9837
SWIDTH 2089 0
DWIDTH 17 0
SWIDTH1 3906 0
DWIDTH1 31 0
BBX 4 7 2 -1
BITMAP
80
80
A0
D0
90
A0
C0
ENDCHAR
STARTCHAR uni266F
ENCODING 9839
SWIDTH 2089 0
DWIDTH 17 0
SWIDTH1 3906 0
DWIDTH1 31 0
BBX 6 7 1 -1
BITMAP
08
4C
78
CC
78
C8
40
ENDCHAR
STARTCHAR uni2E81
ENCODING 11905
BBX 7 7 0 -1
BITMAP
7E
40
40
40
40
40
80
ENDCHAR
STARTCHAR uni2E84
ENCODING 11908
BBX 7 7 0 -1
BITMAP
F8
08
08
08
08
0A
04
ENDCHAR
STARTCHAR uni2E88
ENCODING 11912
BBX 6 3 0 3
BITMAP
20
7C
88
ENDCHAR
STARTCHAR uni2E8B
ENCODING 11915
BBX 7 5 0 -1
BITMAP
F8
88
9A
82
FE
ENDCHAR
STARTCHAR uni2E8C
ENCODING 11916
BBX 7 3 0 3
BITMAP
10
92
54
ENDCHAR
STARTCHAR uni2E97
ENCODING 11927
BBX 7 5 0 -1
BITMAP
20
20
AA
AA
60
ENDCHAR
STARTCHAR uni2EA7
ENCODING 11943
BBX 7 5 0 1
BITMAP
50
7E
90
10
FE
ENDCHAR
STARTCHAR uni2EAA
ENCODING 11946
BBX 4 7 0 -1
BITMAP
F0
10
A0
B0
A0
A0
F0
ENDCHAR
STARTCHAR uni2EAE
ENCODING 11950
BBX 7 3 0 3
BITMAP
48
6E
B4
ENDCHAR
STARTCHAR uni2EB3
ENCODING 11955
BBX 7 4 0 2
BITMAP
FE
AA
28
CE
ENDCHAR
STARTCHAR uni2EB6
ENCODING 11958
BBX 7 7 0 -1
BITMAP
44
FE
10
FE
20
FE
40
ENDCHAR
STARTCHAR uni2EB7
ENCODING 11959
BBX 7 6 0 0
BITMAP
28
FE
10
FE
10
FE
ENDCHAR
STARTCHAR uni2EBB
ENCODING 11963
BBX 7 6 0 0
BITMAP
10
7C
16
7C
10
FE
ENDCHAR
STARTCHAR uni2ECA
ENCODING 11978
BBX 4 7 0 -1
BITMAP
F0
90
F0
20
B0
A0
F0
ENDCHAR
STARTCHAR uni2FF0
ENCODING 12272
BBX 7 7 0 -1
BITMAP
AA
10
82
10
82
10
AA
ENDCHAR
STARTCHAR uni2FF1
ENCODING 12273
BBX 7 7 0 -1
BITMAP
AA
00
82
54
82
00
AA
ENDCHAR
STARTCHAR uni2FF2
ENCODING 12274
BBX 7 7 0 -1
BITMAP
AA
28
82
28
82
28
AA
ENDCHAR
STARTCHAR uni2FF3
ENCODING 12275
BBX 7 7 0 -1
BITMAP
AA
00
D6
00
D6
00
AA
ENDCHAR
STARTCHAR uni2FF4
ENCODING 12276
BBX 7 7 0 -1
BITMAP
AA
00
BA
28
BA
00
AA
ENDCHAR
STARTCHAR uni2FF5
ENCODING 12277
BBX 7 7 0 -1
BITMAP
AA
00
BA
28
82
28
AA
ENDCHAR
STARTCHAR uni2FF6
ENCODING 12278
BBX 7 7 0 -1
BITMAP
AA
00
AA
38
82
00
AA
ENDCHAR
STARTCHAR uni2FF7
ENCODING 12279
BBX 7 7 0 -1
BITMAP
AA
00
9A
10
9A
00
AA
ENDCHAR
STARTCHAR uni2FF8
ENCODING 12280
BBX 7 7 0 -1
BITMAP
AA
00
B6
20
82
20
AA
ENDCHAR
STARTCHAR uni2FF9
ENCODING 12281
BBX 7 7 0 -1
BITMAP
AA
00
DA
08
82
08
AA
ENDCHAR
STARTCHAR uni2FFA
ENCODING 12282
BBX 7 7 0 -1
BITMAP
AA
20
82
20
B6
00
AA
ENDCHAR
STARTCHAR uni2FFB
ENCODING 12283
BBX 7 7 0 -1
BITMAP
A8
00
AA
00
AA
00
2A
ENDCHAR
STARTCHAR uni3001
ENCODING 12289
BBX 2 2 0 -1
BITMAP
80
40
ENDCHAR
STARTCHAR uni3002
ENCODING 12290
BBX 3 3 0 -1
BITMAP
40
A0
40
ENDCHAR
STARTCHAR uni3003
ENCODING 12291
BBX 5 4 1 0
BITMAP
48
48
48
90
ENDCHAR
STARTCHAR uni3005
ENCODING 12293
BBX 6 6 1 -1
BITMAP
20
3C
44
A8
10
08
ENDCHAR
STARTCHAR uni3006
ENCODING 12294
BBX 7 7 0 -1
BITMAP
02
04
28
50
A8
C0
80
ENDCHAR
STARTCHAR uni3007
ENCODING 12295
BBX 7 6 0 -1
BITMAP
38
44
82
82
44
38
ENDCHAR
STARTCHAR uni3008
ENCODING 12296
BBX 4 7 3 -1
BITMAP
10
20
40
80
40
20
10
ENDCHAR
STARTCHAR uni3009
ENCODING 12297
BBX 4 7 0 -1
BITMAP
80
40
20
10
20
40
80
ENDCHAR
STARTCHAR uni300A
ENCODING 12298
BBX 6 7 1 -1
BITMAP
14
28
50
A0
50
28
14
ENDCHAR
STARTCHAR uni300B
ENCODING 12299
BBX 6 7 0 -1
BITMAP
A0
50
28
14
28
50
A0
ENDCHAR
STARTCHAR uni300C
ENCODING 12300
BBX 4 6 3 0
BITMAP
F0
80
80
80
80
80
ENDCHAR
STARTCHAR uni300D
ENCODING 12301
BBX 4 6 0 -1
BITMAP
10
10
10
10
10
F0
ENDCHAR
STARTCHAR uni300E
ENCODING 12302
BBX 5 7 2 -1
BITMAP
F8
88
B8
A0
A0
A0
E0
ENDCHAR
STARTCHAR uni300F
ENCODING 12303
BBX 5 7 0 -1
BITMAP
38
28
28
28
E8
88
F8
ENDCHAR
STARTCHAR uni3010
ENCODING 12304
BBX 3 7 4 -1
BITMAP
E0
C0
80
80
80
C0
E0
ENDCHAR
STARTCHAR uni3011
ENCODING 12305
BBX 3 7 0 -1
BITMAP
E0
60
20
20
20
60
E0
ENDCHAR
STARTCHAR uni3012
ENCODING 12306
BBX 7 7 0 -1
BITMAP
FE
00
FE
10
10
10
10
ENDCHAR
STARTCHAR uni3013
ENCODING 12307
BBX 7 5 0 0
BITMAP
FE
FE
00
FE
FE
ENDCHAR
STARTCHAR uni3014
ENCODING 12308
BBX 4 7 3 -1
BITMAP
30
C0
80
80
80
C0
30
ENDCHAR
STARTCHAR uni3015
ENCODING 12309
BBX 4 7 0 -1
BITMAP
C0
30
10
10
10
30
C0
ENDCHAR
STARTCHAR uni3016
ENCODING 12310
BBX 4 7 2 -1
BITMAP
F0
90
A0
A0
A0
90
F0
ENDCHAR
STARTCHAR uni3017
ENCODING 12311
BBX 4 7 1 -1
BITMAP
F0
90
50
50
50
90
F0
ENDCHAR
STARTCHAR uni301D
ENCODING 12317
BBX 4 2 3 4
BITMAP
A0
50
ENDCHAR
STARTCHAR uni301E
ENCODING 12318
BBX 4 2 0 4
BITMAP
50
A0
ENDCHAR
STARTCHAR uni3021
ENCODING 12321
BBX 2 7 3 -1
BITMAP
C0
80
80
80
80
80
80
ENDCHAR
STARTCHAR uni3022
ENCODING 12322
BBX 6 7 1 -1
BITMAP
0C
C8
88
88
88
88
08
ENDCHAR
STARTCHAR uni3023
ENCODING 12323
BBX 7 7 0 -1
BITMAP
C6
94
94
94
94
94
84
ENDCHAR
STARTCHAR uni3024
ENCODING 12324
BBX 6 7 1 -1
BITMAP
04
04
44
28
10
28
C8
ENDCHAR
STARTCHAR uni3025
ENCODING 12325
BBX 6 7 1 -1
BITMAP
44
88
90
70
88
88
70
ENDCHAR
STARTCHAR uni3026
ENCODING 12326
BBX 7 3 0 3
BITMAP
18
10
FE
ENDCHAR
STARTCHAR uni3027
ENCODING 12327
BBX 7 5 0 1
BITMAP
18
10
FE
00
FE
ENDCHAR
STARTCHAR uni3028
ENCODING 12328
BBX 7 7 0 -1
BITMAP
18
10
FE
00
FE
00
FE
ENDCHAR
STARTCHAR uni3029
ENCODING 12329
BBX 5 7 1 -1
BITMAP
20
40
78
88
50
20
D0
ENDCHAR
STARTCHAR uni303E
ENCODING 12350
BBX 7 7 0 -1
BITMAP
AA
00
BA
10
BA
00
AA
ENDCHAR
STARTCHAR uni3041
ENCODING 12353
BBX 6 6 1 -1
BITMAP
20
78
20
78
B4
64
ENDCHAR
STARTCHAR uni3042
ENCODING 12354
BBX 7 7 0 -1
BITMAP
20
7C
20
3C
6A
B2
64
ENDCHAR
STARTCHAR uni3043
ENCODING 12355
BBX 5 5 1 -1
BITMAP
90
88
88
A0
40
ENDCHAR
STARTCHAR uni3044
ENCODING 12356
BBX 7 6 0 -1
BITMAP
88
84
82
82
50
20
ENDCHAR
STARTCHAR uni3045
ENCODING 12357
BBX 5 6 1 -1
BITMAP
70
00
70
88
10
60
ENDCHAR
STARTCHAR uni3046
ENCODING 12358
BBX 6 7 1 -1
BITMAP
78
00
78
84
04
08
70
ENDCHAR
STARTCHAR uni3047
ENCODING 12359
BBX 5 6 1 -1
BITMAP
70
00
F0
20
60
98
ENDCHAR
STARTCHAR uni3048
ENCODING 12360
BBX 6 7 1 -1
BITMAP
78
00
F8
10
30
50
8C
ENDCHAR
STARTCHAR uni3049
ENCODING 12361
BBX 5 6 1 -1
BITMAP
40
E8
40
70
C8
50
ENDCHAR
STARTCHAR uni304A
ENCODING 12362
BBX 7 7 0 -1
BITMAP
20
F4
22
3C
62
A2
6C
ENDCHAR
STARTCHAR uni304B
ENCODING 12363
BBX 7 7 0 -1
BITMAP
20
20
F4
2A
4A
48
B0
ENDCHAR
STARTCHAR uni304C
ENCODING 12364
BBX 7 7 0 -1
BITMAP
2A
20
F4
2A
4A
48
B0
ENDCHAR
STARTCHAR uni304D
ENCODING 12365
BBX 6 7 1 -1
BITMAP
20
F8
10
FC
48
80
78
ENDCHAR
STARTCHAR uni304E
ENCODING 12366
BBX 6 7 1 -1
BITMAP
28
F8
10
FC
48
80
78
ENDCHAR
STARTCHAR uni304F
ENCODING 12367
BBX 5 7 1 -1
BITMAP
08
10
60
80
60
10
08
ENDCHAR
STARTCHAR uni3050
ENCODING 12368
BBX 6 7 1 -1
BITMAP
08
10
6C
80
60
10
08
ENDCHAR
STARTCHAR uni3051
ENCODING 12369
BBX 7 7 0 -1
BITMAP
88
88
BE
88
88
88
10
ENDCHAR
STARTCHAR uni3052
ENCODING 12370
BBX 7 7 0 -1
BITMAP
8A
88
BE
88
88
88
10
ENDCHAR
STARTCHAR uni3053
ENCODING 12371
BBX 6 6 1 -1
BITMAP
78
00
00
40
80
7C
ENDCHAR
STARTCHAR uni3054
ENCODING 12372
BBX 6 7 1 -1
BITMAP
14
78
00
00
40
80
7C
ENDCHAR
STARTCHAR uni3055
ENCODING 12373
BBX 6 7 1 -1
BITMAP
10
10
FC
08
48
80
78
ENDCHAR
STARTCHAR uni3056
ENCODING 12374
BBX 6 7 1 -1
BITMAP
14
10
FC
08
48
80
78
ENDCHAR
STARTCHAR uni3057
ENCODING 12375
BBX 5 7 2 -1
BITMAP
80
80
80
80
80
88
70
ENDCHAR
STARTCHAR uni3058
ENCODING 12376
BBX 5 7 2 -1
BITMAP
A8
80
80
80
80
88
70
ENDCHAR
STARTCHAR uni3059
ENCODING 12377
BBX 7 7 0 -1
BITMAP
08
FE
18
28
18
08
10
ENDCHAR
STARTCHAR uni305A
ENCODING 12378
BBX 7 7 0 -1
BITMAP
0A
FE
18
28
18
08
10
ENDCHAR
STARTCHAR uni305B
ENCODING 12379
BBX 7 7 0 -1
BITMAP
24
24
FE
24
2C
20
1E
ENDCHAR
STARTCHAR uni305C
ENCODING 12380
BBX 7 7 0 -1
BITMAP
26
24
FE
24
2C
20
1E
ENDCHAR
STARTCHAR uni305D
ENCODING 12381
BBX 6 7 1 -1
BITMAP
78
10
20
FC
20
20
18
ENDCHAR
STARTCHAR uni305E
ENCODING 12382
BBX 6 7 1 -1
BITMAP
78
14
20
FC
20
20
18
ENDCHAR
STARTCHAR uni305F
ENCODING 12383
BBX 7 7 0 -1
BITMAP
20
F0
2E
40
48
50
8E
ENDCHAR
STARTCHAR uni3060
ENCODING 12384
BBX 7 7 0 -1
BITMAP
2A
F0
2E
40
48
50
8E
ENDCHAR
STARTCHAR uni3061
ENCODING 12385
BBX 6 7 1 -1
BITMAP
10
FC
20
38
44
04
38
ENDCHAR
STARTCHAR uni3062
ENCODING 12386
BBX 6 7 1 -1
BITMAP
14
FC
20
38
44
04
38
ENDCHAR
STARTCHAR uni3063
ENCODING 12387
BBX 5 4 1 -1
BITMAP
30
C8
08
30
ENDCHAR
STARTCHAR uni3064
ENCODING 12388
BBX 7 5 0 0
BITMAP
3C
C2
02
02
1C
ENDCHAR
STARTCHAR uni3065
ENCODING 12389
BBX 7 6 0 0
BITMAP
0A
3C
C2
02
02
1C
ENDCHAR
STARTCHAR uni3066
ENCODING 12390
BBX 6 7 1 -1
BITMAP
1C
E8
10
20
20
10
0C
ENDCHAR
STARTCHAR uni3067
ENCODING 12391
BBX 6 7 1 -1
BITMAP
1C
E8
14
20
20
10
0C
ENDCHAR
STARTCHAR uni3068
ENCODING 12392
BBX 6 7 1 -1
BITMAP
40
40
4C
30
40
80
7C
ENDCHAR
STARTCHAR uni3069
ENCODING 12393
BBX 6 7 1 -1
BITMAP
54
40
4C
30
40
80
7C
ENDCHAR
STARTCHAR uni306A
ENCODING 12394
BBX 7 7 0 -1
BITMAP
20
F4
22
44
9C
26
18
ENDCHAR
STARTCHAR uni306B
ENCODING 12395
BBX 7 7 0 -1
BITMAP
80
9C
80
80
90
A0
9E
ENDCHAR
STARTCHAR uni306C
ENCODING 12396
BBX 7 7 0 -1
BITMAP
08
48
5C
6A
B2
A6
56
ENDCHAR
STARTCHAR uni306D
ENCODING 12397
BBX 7 7 0 -1
BITMAP
20
2C
F2
22
66
AA
24
ENDCHAR
STARTCHAR uni306E
ENCODING 12398
BBX 7 6 0 -1
BITMAP
38
54
92
A2
44
18
ENDCHAR
STARTCHAR uni306F
ENCODING 12399
BBX 7 7 0 -1
BITMAP
84
84
BE
84
9C
A4
9A
ENDCHAR
STARTCHAR uni3070
ENCODING 12400
BBX 7 7 0 -1
BITMAP
86
84
BE
84
9C
A4
9A
ENDCHAR
STARTCHAR uni3071
ENCODING 12401
BBX 7 7 0 -1
BITMAP
84
8A
BE
84
9C
A4
9A
ENDCHAR
STARTCHAR uni3072
ENCODING 12402
BBX 7 7 0 -1
BITMAP
28
E4
26
44
44
44
38
ENDCHAR
STARTCHAR uni3073
ENCODING 12403
BBX 7 7 0 -1
BITMAP
2A
E4
26
44
44
44
38
ENDCHAR
STARTCHAR uni3074
ENCODING 12404
BBX 7 7 0 -1
BITMAP
2C
EA
26
44
44
44
38
ENDCHAR
STARTCHAR uni3075
ENCODING 12405
BBX 7 7 0 -1
BITMAP
10
08
10
10
4C
4A
B2
ENDCHAR
STARTCHAR uni3076
ENCODING 12406
BBX 7 7 0 -1
BITMAP
16
08
10
10
4C
4A
B2
ENDCHAR
STARTCHAR uni3077
ENCODING 12407
BBX 7 7 0 -1
BITMAP
14
0A
14
10
4C
4A
B2
ENDCHAR
STARTCHAR uni3078
ENCODING 12408
BBX 7 4 0 1
BITMAP
20
50
88
06
ENDCHAR
STARTCHAR uni3079
ENCODING 12409
BBX 7 5 0 1
BITMAP
0A
20
50
88
06
ENDCHAR
STARTCHAR uni307A
ENCODING 12410
BBX 7 5 0 1
BITMAP
04
2A
54
88
06
ENDCHAR
STARTCHAR uni307B
ENCODING 12411
BBX 7 7 0 -1
BITMAP
BE
88
BE
88
9C
AA
9A
ENDCHAR
STARTCHAR uni307C
ENCODING 12412
BBX 7 7 0 -1
BITMAP
8A
BE
88
BE
88
BC
BA
ENDCHAR
STARTCHAR uni307D
ENCODING 12413
BBX 7 7 0 -1
BITMAP
84
BA
8C
BE
88
BC
BA
ENDCHAR
STARTCHAR uni307E
ENCODING 12414
BBX 6 7 1 -1
BITMAP
10
FC
10
FC
10
F8
F4
ENDCHAR
STARTCHAR uni307F
ENCODING 12415
BBX 7 7 0 -1
BITMAP
70
10
24
7C
A6
C4
18
ENDCHAR
STARTCHAR uni3080
ENCODING 12416
BBX 7 7 0 -1
BITMAP
20
F4
22
60
A0
62
3C
ENDCHAR
STARTCHAR uni3081
ENCODING 12417
BBX 7 7 0 -1
BITMAP
08
48
5C
6A
B2
A2
54
ENDCHAR
STARTCHAR uni3082
ENCODING 12418
BBX 6 7 1 -1
BITMAP
20
F8
40
F8
44
44
38
ENDCHAR
STARTCHAR uni3083
ENCODING 12419
BBX 6 6 1 -1
BITMAP
10
58
E4
28
20
10
ENDCHAR
STARTCHAR uni3084
ENCODING 12420
BBX 7 7 0 -1
BITMAP
48
5C
E2
24
20
10
10
ENDCHAR
STARTCHAR uni3085
ENCODING 12421
BBX 5 6 1 -1
BITMAP
20
B0
E8
A8
30
40
ENDCHAR
STARTCHAR uni3086
ENCODING 12422
BBX 7 7 0 -1
BITMAP
10
BC
D2
92
BC
10
20
ENDCHAR
STARTCHAR uni3087
ENCODING 12423
BBX 5 6 1 -1
BITMAP
10
10
18
70
90
68
ENDCHAR
STARTCHAR uni3088
ENCODING 12424
BBX 6 7 1 -1
BITMAP
10
10
1C
10
70
98
64
ENDCHAR
STARTCHAR uni3089
ENCODING 12425
BBX 6 7 1 -1
BITMAP
60
10
80
B8
C4
04
78
ENDCHAR
STARTCHAR uni308A
ENCODING 12426
BBX 5 7 1 -1
BITMAP
B0
C8
88
88
08
10
60
ENDCHAR
STARTCHAR uni308B
ENCODING 12427
BBX 6 7 1 -1
BITMAP
78
10
20
78
84
64
78
ENDCHAR
STARTCHAR uni308C
ENCODING 12428
BBX 7 7 0 -1
BITMAP
20
2C
F4
24
64
A4
22
ENDCHAR
STARTCHAR uni308D
ENCODING 12429
BBX 6 7 1 -1
BITMAP
78
10
20
78
84
04
78
ENDCHAR
STARTCHAR uni308E
ENCODING 12430
BBX 6 6 1 -1
BITMAP
20
28
F4
64
A4
28
ENDCHAR
STARTCHAR uni308F
ENCODING 12431
BBX 7 7 0 -1
BITMAP
20
2C
F2
22
62
A2
2C
ENDCHAR
STARTCHAR uni3090
ENCODING 12432
BBX 7 7 0 -1
BITMAP
70
10
3C
52
96
AA
44
ENDCHAR
STARTCHAR uni3091
ENCODING 12433
BBX 7 7 0 -1
BITMAP
38
10
38
44
18
6C
92
ENDCHAR
STARTCHAR uni3092
ENCODING 12434
BBX 7 7 0 -1
BITMAP
10
7C
20
76
98
28
1E
ENDCHAR
STARTCHAR uni3093
ENCODING 12435
BBX 7 7 0 -1
BITMAP
10
10
20
20
50
52
8C
ENDCHAR
STARTCHAR uni309B
ENCODING 12443
BBX 4 2 0 4
BITMAP
A0
50
ENDCHAR
STARTCHAR uni309C
ENCODING 12444
BBX 3 3 1 3
BITMAP
40
A0
40
ENDCHAR
STARTCHAR uni309D
ENCODING 12445
BBX 4 5 2 0
BITMAP
80
40
20
30
40
ENDCHAR
STARTCHAR uni309E
ENCODING 12446
BBX 5 6 2 0
BITMAP
28
80
40
20
30
40
ENDCHAR
STARTCHAR uni30A1
ENCODING 12449
BBX 5 5 1 -1
BITMAP
F8
28
30
20
40
ENDCHAR
STARTCHAR uni30A2
ENCODING 12450
BBX 6 7 1 -1
BITMAP
FC
04
28
30
20
20
40
ENDCHAR
STARTCHAR uni30A3
ENCODING 12451
BBX 5 5 1 -1
BITMAP
08
10
30
D0
10
ENDCHAR
STARTCHAR uni30A4
ENCODING 12452
BBX 6 7 1 -1
BITMAP
04
08
10
30
D0
10
10
ENDCHAR
STARTCHAR uni30A5
ENCODING 12453
BBX 5 5 1 -1
BITMAP
20
F8
88
10
60
ENDCHAR
STARTCHAR uni30A6
ENCODING 12454
BBX 6 7 1 -1
BITMAP
20
FC
84
04
08
10
60
ENDCHAR
STARTCHAR uni30A7
ENCODING 12455
BBX 5 4 1 -1
BITMAP
70
20
20
F8
ENDCHAR
STARTCHAR uni30A8
ENCODING 12456
BBX 7 5 0 0
BITMAP
7C
10
10
10
FE
ENDCHAR
STARTCHAR uni30A9
ENCODING 12457
BBX 5 5 1 -1
BITMAP
10
F8
30
D0
30
ENDCHAR
STARTCHAR uni30AA
ENCODING 12458
BBX 7 7 0 -1
BITMAP
08
FE
08
18
28
C8
18
ENDCHAR
STARTCHAR uni30AB
ENCODING 12459
BBX 6 7 1 -1
BITMAP
20
FC
24
24
24
44
8C
ENDCHAR
STARTCHAR uni30AC
ENCODING 12460
BBX 6 7 1 -1
BITMAP
24
FC
24
24
24
44
8C
ENDCHAR
STARTCHAR uni30AD
ENCODING 12461
BBX 6 7 1 -1
BITMAP
20
F8
20
20
FC
10
10
ENDCHAR
STARTCHAR uni30AE
ENCODING 12462
BBX 6 7 1 -1
BITMAP
28
F8
20
20
FC
10
10
ENDCHAR
STARTCHAR uni30AF
ENCODING 12463
BBX 6 7 1 -1
BITMAP
20
3C
44
84
08
10
60
ENDCHAR
STARTCHAR uni30B0
ENCODING 12464
BBX 6 7 1 -1
BITMAP
24
3C
44
84
08
10
60
ENDCHAR
STARTCHAR uni30B1
ENCODING 12465
BBX 7 7 0 -1
BITMAP
40
7E
48
88
08
10
20
ENDCHAR
STARTCHAR uni30B2
ENCODING 12466
BBX 7 7 0 -1
BITMAP
4A
7E
48
88
08
10
20
ENDCHAR
STARTCHAR uni30B3
ENCODING 12467
BBX 6 6 1 -1
BITMAP
FC
04
04
04
04
FC
ENDCHAR
STARTCHAR uni30B4
ENCODING 12468
BBX 6 7 1 -1
BITMAP
14
FC
04
04
04
04
FC
ENDCHAR
STARTCHAR uni30B5
ENCODING 12469
BBX 7 7 0 -1
BITMAP
24
FE
24
24
04
08
30
ENDCHAR
STARTCHAR uni30B6
ENCODING 12470
BBX 7 7 0 -1
BITMAP
2A
FE
24
24
04
08
30
ENDCHAR
STARTCHAR uni30B7
ENCODING 12471
BBX 6 7 1 -1
BITMAP
80
40
84
44
08
10
E0
ENDCHAR
STARTCHAR uni30B8
ENCODING 12472
BBX 6 7 1 -1
BITMAP
94
40
84
44
08
10
E0
ENDCHAR
STARTCHAR uni30B9
ENCODING 12473
BBX 7 6 0 -1
BITMAP
7C
04
08
08
34
C2
ENDCHAR
STARTCHAR uni30BA
ENCODING 12474
BBX 7 7 0 -1
BITMAP
0A
7C
04
08
08
34
C2
ENDCHAR
STARTCHAR uni30BB
ENCODING 12475
BBX 7 7 0 -1
BITMAP
20
20
FE
22
24
20
1E
ENDCHAR
STARTCHAR uni30BC
ENCODING 12476
BBX 7 7 0 -1
BITMAP
2A
20
FE
22
24
20
1E
ENDCHAR
STARTCHAR uni30BD
ENCODING 12477
BBX 6 7 1 -1
BITMAP
84
44
44
04
08
10
60
ENDCHAR
STARTCHAR uni30BE
ENCODING 12478
BBX 6 7 1 -1
BITMAP
8C
44
44
04
08
10
60
ENDCHAR
STARTCHAR uni30BF
ENCODING 12479
BBX 6 7 1 -1
BITMAP
20
3C
44
B4
08
10
60
ENDCHAR
STARTCHAR uni30C0
ENCODING 12480
BBX 6 7 1 -1
BITMAP
24
3C
44
B4
08
10
60
ENDCHAR
STARTCHAR uni30C1
ENCODING 12481
BBX 7 7 0 -1
BITMAP
0C
70
10
FE
10
10
20
ENDCHAR
STARTCHAR uni30C2
ENCODING 12482
BBX 7 7 0 -1
BITMAP
0A
70
10
FE
10
10
20
ENDCHAR
STARTCHAR uni30C3
ENCODING 12483
BBX 5 4 1 -1
BITMAP
A8
A8
10
60
ENDCHAR
STARTCHAR uni30C4
ENCODING 12484
BBX 7 6 0 -1
BITMAP
A2
52
52
04
08
30
ENDCHAR
STARTCHAR uni30C5
ENCODING 12485
BBX 7 7 0 -1
BITMAP
0A
A0
52
52
04
08
30
ENDCHAR
STARTCHAR uni30C6
ENCODING 12486
BBX 7 7 0 -1
BITMAP
7C
00
FE
10
10
10
20
ENDCHAR
STARTCHAR uni30C7
ENCODING 12487
BBX 7 7 0 -1
BITMAP
7A
00
FE
10
10
10
20
ENDCHAR
STARTCHAR uni30C8
ENCODING 12488
BBX 4 7 2 -1
BITMAP
80
80
80
E0
90
80
80
ENDCHAR
STARTCHAR uni30C9
ENCODING 12489
BBX 5 7 2 -1
BITMAP
A8
80
80
E0
90
80
80
ENDCHAR
STARTCHAR uni30CA
ENCODING 12490
BBX 7 7 0 -1
BITMAP
10
10
FE
10
10
20
40
ENDCHAR
STARTCHAR uni30CB
ENCODING 12491
BBX 7 5 0 0
BITMAP
7C
00
00
00
FE
ENDCHAR
STARTCHAR uni30CC
ENCODING 12492
BBX 6 7 0 -1
BITMAP
7C
04
34
08
18
24
C0
ENDCHAR
STARTCHAR uni30CD
ENCODING 12493
BBX 7 7 0 -1
BITMAP
10
7C
08
10
34
D2
10
ENDCHAR
STARTCHAR uni30CE
ENCODING 12494
BBX 6 7 0 -1
BITMAP
04
04
04
08
10
20
C0
ENDCHAR
STARTCHAR uni30CF
ENCODING 12495
BBX 7 6 0 -1
BITMAP
28
24
24
42
42
82
ENDCHAR
STARTCHAR uni30D0
ENCODING 12496
BBX 7 7 0 -1
BITMAP
06
28
24
24
42
42
82
ENDCHAR
STARTCHAR uni30D1
ENCODING 12497
BBX 7 7 0 -1
BITMAP
04
2A
24
24
42
42
82
ENDCHAR
STARTCHAR uni30D2
ENCODING 12498
BBX 6 7 1 -1
BITMAP
80
80
8C
F0
80
80
7C
ENDCHAR
STARTCHAR uni30D3
ENCODING 12499
BBX 6 7 1 -1
BITMAP
94
80
8C
F0
80
80
7C
ENDCHAR
STARTCHAR uni30D4
ENCODING 12500
BBX 6 7 1 -1
BITMAP
88
94
8C
F0
80
80
7C
ENDCHAR
STARTCHAR uni30D5
ENCODING 12501
BBX 6 6 1 -1
BITMAP
FC
04
04
08
10
60
ENDCHAR
STARTCHAR uni30D6
ENCODING 12502
BBX 6 7 1 -1
BITMAP
14
FC
04
04
08
10
60
ENDCHAR
STARTCHAR uni30D7
ENCODING 12503
BBX 6 7 1 -1
BITMAP
08
F4
0C
04
08
10
60
ENDCHAR
STARTCHAR uni30D8
ENCODING 12504
BBX 7 5 0 0
BITMAP
20
50
88
04
02
ENDCHAR
STARTCHAR uni30D9
ENCODING 12505
BBX 7 6 0 0
BITMAP
0A
20
50
88
04
02
ENDCHAR
STARTCHAR uni30DA
ENCODING 12506
BBX 7 6 0 0
BITMAP
04
2A
54
88
04
02
ENDCHAR
STARTCHAR uni30DB
ENCODING 12507
BBX 7 7 0 -1
BITMAP
10
10
FE
10
54
92
30
ENDCHAR
STARTCHAR uni30DC
ENCODING 12508
BBX 7 7 0 -1
BITMAP
1A
10
FE
10
54
92
30
ENDCHAR
STARTCHAR uni30DD
ENCODING 12509
BBX 7 7 0 -1
BITMAP
14
1A
FC
10
54
92
30
ENDCHAR
STARTCHAR uni30DE
ENCODING 12510
BBX 7 6 0 -1
BITMAP
FE
02
04
28
10
08
ENDCHAR
STARTCHAR uni30DF
ENCODING 12511
BBX 5 7 1 -1
BITMAP
E0
18
40
30
00
E0
18
ENDCHAR
STARTCHAR uni30E0
ENCODING 12512
BBX 7 7 0 -1
BITMAP
10
10
20
20
48
44
FA
ENDCHAR
STARTCHAR uni30E1
ENCODING 12513
BBX 6 7 0 -1
BITMAP
04
04
74
08
14
24
C0
ENDCHAR
STARTCHAR uni30E2
ENCODING 12514
BBX 6 7 1 -1
BITMAP
78
20
20
FC
20
20
1C
ENDCHAR
STARTCHAR uni30E3
ENCODING 12515
BBX 5 5 1 -1
BITMAP
40
78
C8
20
20
ENDCHAR
STARTCHAR uni30E4
ENCODING 12516
BBX 7 7 0 -1
BITMAP
20
2E
F2
24
10
10
10
ENDCHAR
STARTCHAR uni30E5
ENCODING 12517
BBX 5 4 1 -1
BITMAP
70
10
10
F8
ENDCHAR
STARTCHAR uni30E6
ENCODING 12518
BBX 7 5 0 0
BITMAP
78
08
08
08
FE
ENDCHAR
STARTCHAR uni30E7
ENCODING 12519
BBX 4 5 2 -1
BITMAP
F0
10
70
10
F0
ENDCHAR
STARTCHAR uni30E8
ENCODING 12520
BBX 6 6 1 -1
BITMAP
FC
04
7C
04
04
FC
ENDCHAR
STARTCHAR uni30E9
ENCODING 12521
BBX 6 7 1 -1
BITMAP
78
00
FC
04
08
10
60
ENDCHAR
STARTCHAR uni30EA
ENCODING 12522
BBX 5 7 1 -1
BITMAP
88
88
88
88
08
10
60
ENDCHAR
STARTCHAR uni30EB
ENCODING 12523
BBX 7 7 0 -1
BITMAP
08
28
28
28
2A
4C
88
ENDCHAR
STARTCHAR uni30EC
ENCODING 12524
BBX 5 7 2 -1
BITMAP
80
80
80
88
90
A0
C0
ENDCHAR
STARTCHAR uni30ED
ENCODING 12525
BBX 6 6 1 -1
BITMAP
FC
84
84
84
84
FC
ENDCHAR
STARTCHAR uni30EE
ENCODING 12526
BBX 5 5 1 -1
BITMAP
F8
88
08
10
60
ENDCHAR
STARTCHAR uni30EF
ENCODING 12527
BBX 6 6 1 -1
BITMAP
FC
84
04
08
10
60
ENDCHAR
STARTCHAR uni30F0
ENCODING 12528
BBX 7 7 0 -1
BITMAP
04
7E
24
24
FE
04
04
ENDCHAR
STARTCHAR uni30F1
ENCODING 12529
BBX 7 5 0 0
BITMAP
7C
08
10
10
FE
ENDCHAR
STARTCHAR uni30F2
ENCODING 12530
BBX 6 7 1 -1
BITMAP
FC
04
7C
04
08
10
60
ENDCHAR
STARTCHAR uni30F3
ENCODING 12531
BBX 6 7 1 -1
BITMAP
80
40
04
04
08
10
E0
ENDCHAR
STARTCHAR uni30F4
ENCODING 12532
BBX 6 7 1 -1
BITMAP
24
FC
84
04
08
10
60
ENDCHAR
STARTCHAR uni30F5
ENCODING 12533
BBX 5 5 1 -1
BITMAP
20
F8
28
48
98
ENDCHAR
STARTCHAR uni30F6
ENCODING 12534
BBX 5 5 1 -1
BITMAP
40
78
90
10
20
ENDCHAR
STARTCHAR uni30FB
ENCODING 12539
BBX 2 2 2 1
BITMAP
C0
C0
ENDCHAR
STARTCHAR uni30FC
ENCODING 12540
BBX 7 2 0 2
BITMAP
80
7E
ENDCHAR
STARTCHAR uni30FD
ENCODING 12541
BBX 3 4 2 0
BITMAP
80
40
20
20
ENDCHAR
STARTCHAR uni30FE
ENCODING 12542
BBX 5 6 2 0
BITMAP
28
00
80
40
20
20
ENDCHAR
STARTCHAR uni3105
ENCODING 12549
BBX 6 7 0 -1
BITMAP
20
40
FC
04
04
04
18
ENDCHAR
STARTCHAR uni3106
ENCODING 12550
BBX 7 7 0 -1
BITMAP
20
7E
02
04
24
18
E4
ENDCHAR
STARTCHAR uni3107
ENCODING 12551
BBX 7 6 0 -1
BITMAP
FE
82
82
82
82
82
ENDCHAR
STARTCHAR uni3108
ENCODING 12552
BBX 6 7 1 -1
BITMAP
FC
80
80
80
80
80
7C
ENDCHAR
STARTCHAR uni3109
ENCODING 12553
BBX 6 7 1 -1
BITMAP
20
40
FC
24
24
44
8C
ENDCHAR
STARTCHAR uni310A
ENCODING 12554
BBX 7 7 0 -1
BITMAP
10
10
FE
10
20
44
FA
ENDCHAR
STARTCHAR uni310B
ENCODING 12555
BBX 5 7 1 -1
BITMAP
F0
20
40
78
08
08
30
ENDCHAR
STARTCHAR uni310C
ENCODING 12556
BBX 6 7 1 -1
BITMAP
90
90
FC
24
24
44
98
ENDCHAR
STARTCHAR uni310D
ENCODING 12557
BBX 6 7 0 -1
BITMAP
24
24
48
90
48
24
24
ENDCHAR
STARTCHAR uni310E
ENCODING 12558
BBX 7 7 0 -1
BITMAP
FE
10
10
3C
04
04
18
ENDCHAR
STARTCHAR uni310F
ENCODING 12559
BBX 7 7 0 -1
BITMAP
7E
40
40
40
40
40
80
ENDCHAR
STARTCHAR uni3110
ENCODING 12560
BBX 4 7 2 -1
BITMAP
10
90
90
90
B0
D0
10
ENDCHAR
STARTCHAR uni3111
ENCODING 12561
BBX 3 7 2 -1
BITMAP
20
40
40
80
40
20
20
ENDCHAR
STARTCHAR uni3112
ENCODING 12562
BBX 7 6 0 -1
BITMAP
FE
10
10
10
10
10
ENDCHAR
STARTCHAR uni3113
ENCODING 12563
BBX 7 7 0 -1
BITMAP
10
92
92
FE
10
10
FE
ENDCHAR
STARTCHAR uni3114
ENCODING 12564
BBX 5 7 1 -1
BITMAP
10
20
C8
10
30
D0
10
ENDCHAR
STARTCHAR uni3115
ENCODING 12565
BBX 7 7 0 -1
BITMAP
7E
02
7E
40
40
40
80
ENDCHAR
STARTCHAR uni3116
ENCODING 12566
BBX 6 7 1 -1
BITMAP
FC
84
A4
94
84
FC
84
ENDCHAR
STARTCHAR uni3117
ENCODING 12567
BBX 6 7 1 -1
BITMAP
FC
24
24
24
28
20
20
ENDCHAR
STARTCHAR uni3118
ENCODING 12568
BBX 7 7 0 -1
BITMAP
10
10
FE
20
3C
04
08
ENDCHAR
STARTCHAR uni3119
ENCODING 12569
BBX 6 7 0 -1
BITMAP
20
20
20
20
48
48
F4
ENDCHAR
STARTCHAR uni311A
ENCODING 12570
BBX 7 7 0 -1
BITMAP
82
44
08
10
10
10
10
ENDCHAR
STARTCHAR uni311B
ENCODING 12571
BBX 6 7 1 -1
BITMAP
FC
10
10
70
80
80
78
ENDCHAR
STARTCHAR uni311C
ENCODING 12572
BBX 7 7 0 -1
BITMAP
10
FE
10
30
40
40
38
ENDCHAR
STARTCHAR uni311D
ENCODING 12573
BBX 6 7 0 -1
BITMAP
48
48
FC
48
48
40
7C
ENDCHAR
STARTCHAR uni311E
ENCODING 12574
BBX 7 7 0 -1
BITMAP
FE
10
90
FE
12
22
C4
ENDCHAR
STARTCHAR uni311F
ENCODING 12575
BBX 6 7 0 -1
BITMAP
F0
10
10
10
10
08
04
ENDCHAR
STARTCHAR uni3120
ENCODING 12576
BBX 6 7 1 -1
BITMAP
20
20
48
F0
20
48
F4
ENDCHAR
STARTCHAR uni3121
ENCODING 12577
BBX 6 7 1 -1
BITMAP
7C
04
44
28
10
28
C4
ENDCHAR
STARTCHAR uni3122
ENCODING 12578
BBX 6 7 1 -1
BITMAP
F8
48
48
7C
04
04
08
ENDCHAR
STARTCHAR uni3123
ENCODING 12579
BBX 5 7 1 -1
BITMAP
80
80
F8
08
08
10
10
ENDCHAR
STARTCHAR uni3124
ENCODING 12580
BBX 7 7 0 -1
BITMAP
20
FE
20
28
28
48
8E
ENDCHAR
STARTCHAR uni3125
ENCODING 12581
BBX 6 7 1 -1
BITMAP
20
20
20
40
40
80
FC
ENDCHAR
STARTCHAR uni3126
ENCODING 12582
BBX 7 7 0 -1
BITMAP
28
28
28
28
28
4A
8E
ENDCHAR
STARTCHAR uni3127
ENCODING 12583
BBX 7 3 0 0
BITMAP
04
FE
40
ENDCHAR
STARTCHAR uni3128
ENCODING 12584
BBX 6 7 0 -1
BITMAP
04
04
48
28
10
28
C4
ENDCHAR
STARTCHAR uni3129
ENCODING 12585
BBX 6 7 1 -1
BITMAP
84
84
84
84
84
FC
04
ENDCHAR
STARTCHAR uni3220
ENCODING 12832
BBX 7 7 0 -1
BITMAP
44
82
82
BA
82
82
44
ENDCHAR
STARTCHAR uni3221
ENCODING 12833
BBX 7 7 0 -1
BITMAP
44
82
BA
82
FE
82
44
ENDCHAR
STARTCHAR uni3222
ENCODING 12834
BBX 7 7 0 -1
BITMAP
44
BA
82
BA
82
BA
44
ENDCHAR
STARTCHAR uni3223
ENCODING 12835
BBX 7 7 0 -1
BITMAP
44
82
FE
AA
FE
82
44
ENDCHAR
STARTCHAR uni3224
ENCODING 12836
BBX 8 7 0 -1
BITMAP
42
BD
91
BD
95
BD
42
ENDCHAR
STARTCHAR uni3225
ENCODING 12837
BBX 7 7 0 -1
BITMAP
44
92
82
FE
82
AA
44
ENDCHAR
STARTCHAR uni3226
ENCODING 12838
BBX 7 7 0 -1
BITMAP
44
92
9E
F2
92
9A
44
ENDCHAR
STARTCHAR uni3227
ENCODING 12839
BBX 7 7 0 -1
BITMAP
44
82
AA
AA
C6
82
44
ENDCHAR
STARTCHAR uni3228
ENCODING 12840
BBX 7 7 0 -1
BITMAP
44
92
FA
AA
CE
82
44
ENDCHAR
STARTCHAR uni3229
ENCODING 12841
BBX 7 7 0 -1
BITMAP
44
92
92
FE
92
92
44
ENDCHAR
STARTCHAR uni3231
ENCODING 12849
BBX 7 7 0 -1
BITMAP
7C
AE
82
B6
A2
96
7C
ENDCHAR
STARTCHAR uni32A3
ENCODING 12963
BBX 7 7 0 -1
BITMAP
7C
82
EE
A2
AE
82
7C
ENDCHAR
STARTCHAR uni338E
ENCODING 13198
BBX 7 5 0 -1
BITMAP
C6
EA
E6
E2
AC
ENDCHAR
STARTCHAR uni338F
ENCODING 13199
BBX 7 7 0 -1
BITMAP
80
80
A6
AA
C6
A2
AC
ENDCHAR
STARTCHAR uni339C
ENCODING 13212
BBX 7 5 0 -1
BITMAP
CC
EE
EE
EE
AA
ENDCHAR
STARTCHAR uni339D
ENCODING 13213
BBX 7 5 0 -1
BITMAP
6C
8E
8E
8E
6A
ENDCHAR
STARTCHAR uni339E
ENCODING 13214
BBX 7 7 0 -1
BITMAP
80
80
AC
AE
CE
AE
AA
ENDCHAR
STARTCHAR uni33A1
ENCODING 13217
BBX 7 7 0 -1
BITMAP
06
02
D4
AE
A8
A8
A8
ENDCHAR
STARTCHAR uni33C4
ENCODING 13252
BBX 7 5 0 -1
BITMAP
66
88
88
88
66
ENDCHAR
STARTCHAR uni33CE
ENCODING 13262
BBX 7 6 0 0
BITMAP
AA
AE
CE
AA
AA
AA
ENDCHAR
STARTCHAR uni33D1
ENCODING 13265
BBX 5 6 1 0
BITMAP
80
B0
A8
A8
A8
A8
ENDCHAR
STARTCHAR uni33D2
ENCODING 13266
BBX 7 7 0 -1
BITMAP
80
A6
DA
DA
D6
A2
0C
ENDCHAR
STARTCHAR uni33D5
ENCODING 13269
BBX 7 6 0 0
BITMAP
0A
A2
EA
EA
AA
AA
ENDCHAR
STARTCHAR uni4E00
ENCODING 19968
BBX 7 2 0 2
BITMAP
04
FE
ENDCHAR
STARTCHAR uni4E01
ENCODING 19969
BBX 7 7 0 -1
BITMAP
FE
10
10
10
10
10
30
ENDCHAR
STARTCHAR uni4E02
ENCODING 19970
BBX 7 7 0 -1
BITMAP
FE
20
20
3C
04
04
0C
ENDCHAR
STARTCHAR uni4E03
ENCODING 19971
BBX 7 7 0 -1
BITMAP
20
20
2E
F0
20
22
1E
ENDCHAR
STARTCHAR uni4E04
ENCODING 19972
BBX 7 7 0 -1
BITMAP
10
10
10
10
10
10
FE
ENDCHAR
STARTCHAR uni4E05
ENCODING 19973
BBX 7 7 0 -1
BITMAP
FE
10
10
10
10
10
10
ENDCHAR
STARTCHAR uni4E06
ENCODING 19974
BBX 7 5 0 1
BITMAP
FE
10
10
20
C0
ENDCHAR
STARTCHAR uni4E07
ENCODING 19975
BBX 7 7 0 -1
BITMAP
FE
20
3C
24
24
44
8C
ENDCHAR
STARTCHAR uni4E08
ENCODING 19976
BBX 7 7 0 -1
BITMAP
10
FE
10
30
10
28
C6
ENDCHAR
STARTCHAR uni4E09
ENCODING 19977
BBX 7 7 0 -1
BITMAP
FE
00
00
7C
00
00
FE
ENDCHAR
STARTCHAR uni4E0A
ENCODING 19978
BBX 7 7 0 -1
BITMAP
10
10
1C
10
10
10
FE
ENDCHAR
STARTCHAR uni4E0B
ENCODING 19979
BBX 7 7 0 -1
BITMAP
FE
10
10
14
12
10
10
ENDCHAR
STARTCHAR uni4E0C
ENCODING 19980
BBX 7 7 0 -1
BITMAP
FE
28
28
28
28
28
48
ENDCHAR
STARTCHAR uni4E0D
ENCODING 19981
BBX 7 7 0 -1
BITMAP
FE
10
10
34
D2
10
10
ENDCHAR
STARTCHAR uni4E0E
ENCODING 19982
BBX 7 7 0 -1
BITMAP
40
7E
40
7C
04
F4
0C
ENDCHAR
STARTCHAR uni4E0F
ENCODING 19983
BBX 7 7 0 -1
BITMAP
FE
10
5C
54
7C
04
0C
ENDCHAR
STARTCHAR uni4E10
ENCODING 19984
BBX 7 7 0 -1
BITMAP
FE
10
9E
90
FE
02
06
ENDCHAR
STARTCHAR uni4E11
ENCODING 19985
BBX 7 7 0 -1
BITMAP
FC
24
24
7C
24
24
FE
ENDCHAR
STARTCHAR uni4E12
ENCODING 19986
BBX 7 7 0 -1
BITMAP
FE
12
52
22
56
00
FE
ENDCHAR
STARTCHAR uni4E13
ENCODING 19987
BBX 7 7 0 -1
BITMAP
10
7C
10
FE
20
3C
04
ENDCHAR
STARTCHAR uni4E14
ENCODING 19988
BBX 7 7 0 -1
BITMAP
7C
44
7C
44
7C
44
FE
ENDCHAR
STARTCHAR uni4E15
ENCODING 19989
BBX 7 7 0 -1
BITMAP
FE
10
34
D2
10
10
FE
ENDCHAR
STARTCHAR uni4E16
ENCODING 19990
BBX 7 7 0 -1
BITMAP
54
54
FE
54
5C
40
7E
ENDCHAR
STARTCHAR uni4E17
ENCODING 19991
BBX 7 7 0 -1
BITMAP
54
54
FE
54
54
54
7C
ENDCHAR
STARTCHAR uni4E18
ENCODING 19992
BBX 7 7 0 -1
BITMAP
0C
70
40
7C
48
48
FE
ENDCHAR
STARTCHAR uni4E19
ENCODING 19993
BBX 7 7 0 -1
BITMAP
FE
10
FE
92
AA
C2
86
ENDCHAR
STARTCHAR uni4E1A
ENCODING 19994
BBX 7 7 0 -1
BITMAP
28
28
AA
6C
28
28
FE
ENDCHAR
STARTCHAR uni4E1B
ENCODING 19995
BBX 7 7 0 -1
BITMAP
44
44
44
AA
AA
00
FE
ENDCHAR
STARTCHAR uni4E1C
ENCODING 19996
BBX 6 7 0 -1
BITMAP
20
FC
50
FC
50
94
30
ENDCHAR
STARTCHAR uni4E1D
ENCODING 19997
BBX 7 7 0 -1
BITMAP
44
AA
44
AA
EE
00
FE
ENDCHAR
STARTCHAR uni4E1E
ENCODING 19998
BBX 7 7 0 -1
BITMAP
7C
08
D2
54
92
30
FE
ENDCHAR
STARTCHAR uni4E1F
ENCODING 19999
BBX 7 7 0 -1
BITMAP
FE
10
7C
10
FE
24
7C
ENDCHAR
STARTCHAR uni4E20
ENCODING 20000
BBX 7 7 0 -1
BITMAP
28
EE
28
EA
2E
00
FE
ENDCHAR
STARTCHAR uni4E21
ENCODING 20001
BBX 7 7 0 -1
BITMAP
FE
10
FE
92
D6
FE
82
ENDCHAR
STARTCHAR uni4E22
ENCODING 20002
BBX 7 7 0 -1
BITMAP
FE
10
7C
10
FE
24
7E
ENDCHAR
STARTCHAR uni4E23
ENCODING 20003
BBX 7 7 0 -1
BITMAP
FE
28
EE
AA
EE
28
48
ENDCHAR
STARTCHAR uni4E24
ENCODING 20004
BBX 7 7 0 -1
BITMAP
FE
28
FE
AA
D6
82
86
ENDCHAR
STARTCHAR uni4E25
ENCODING 20005
BBX 7 7 0 -1
BITMAP
FE
28
AA
28
FE
80
80
ENDCHAR
STARTCHAR uni4E26
ENCODING 20006
BBX 7 7 0 -1
BITMAP
44
FE
28
AA
6C
28
FE
ENDCHAR
STARTCHAR uni4E27
ENCODING 20007
BBX 7 7 0 -1
BITMAP
10
FE
54
FE
54
48
76
ENDCHAR
STARTCHAR uni4E28
ENCODING 20008
BBX 1 7 3 -1
BITMAP
80
80
80
80
80
80
80
ENDCHAR
STARTCHAR uni4E29
ENCODING 20009
BBX 4 7 2 -1
BITMAP
10
90
90
90
F0
10
10
ENDCHAR
STARTCHAR uni4E2A
ENCODING 20010
BBX 7 7 0 -1
BITMAP
10
28
D6
10
10
10
10
ENDCHAR
STARTCHAR uni4E2B
ENCODING 20011
BBX 7 7 0 -1
BITMAP
82
44
28
10
10
10
10
ENDCHAR
STARTCHAR uni4E2C
ENCODING 20012
BBX 3 7 0 -1
BITMAP
20
A0
60
20
60
A0
20
ENDCHAR
STARTCHAR uni4E2D
ENCODING 20013
BBX 7 7 0 -1
BITMAP
10
FE
92
92
FE
10
10
ENDCHAR
STARTCHAR uni4E2E
ENCODING 20014
BBX 7 7 0 -1
BITMAP
FC
24
FC
24
FC
24
22
ENDCHAR
STARTCHAR uni4E2F
ENCODING 20015
BBX 7 7 0 -1
BITMAP
16
38
D6
38
D6
38
D0
ENDCHAR
STARTCHAR uni4E30
ENCODING 20016
BBX 7 7 0 -1
BITMAP
10
FE
10
7C
10
FE
10
ENDCHAR
STARTCHAR uni4E31
ENCODING 20017
BBX 7 7 0 -1
BITMAP
28
AA
AA
AA
EE
28
48
ENDCHAR
STARTCHAR uni4E32
ENCODING 20018
BBX 7 7 0 -1
BITMAP
10
7C
54
FE
92
FE
10
ENDCHAR
STARTCHAR uni4E33
ENCODING 20019
BBX 7 7 0 -1
BITMAP
28
FE
AA
FE
AA
FE
28
ENDCHAR
STARTCHAR uni4E34
ENCODING 20020
BBX 7 7 0 -1
BITMAP
28
2E
B4
A0
BE
2A
3E
ENDCHAR
STARTCHAR uni4E35
ENCODING 20021
BBX 7 7 0 -1
BITMAP
AA
FE
28
7C
10
FE
10
ENDCHAR
STARTCHAR uni4E36
ENCODING 20022
BBX 3 4 2 1
BITMAP
80
40
20
20
ENDCHAR
STARTCHAR uni4E37
ENCODING 20023
BBX 7 3 0 2
BITMAP
82
44
28
ENDCHAR
STARTCHAR uni4E38
ENCODING 20024
BBX 7 7 0 -1
BITMAP
20
FC
24
A4
64
24
D6
ENDCHAR
STARTCHAR uni4E39
ENCODING 20025
BBX 7 7 0 -1
BITMAP
7C
44
54
44
FE
44
8C
ENDCHAR
STARTCHAR uni4E3A
ENCODING 20026
BBX 6 7 0 -1
BITMAP
A0
20
FC
24
54
44
8C
ENDCHAR
STARTCHAR uni4E3B
ENCODING 20027
BBX 7 7 0 -1
BITMAP
10
00
FE
10
7C
10
FE
ENDCHAR
STARTCHAR uni4E3C
ENCODING 20028
BBX 7 7 0 -1
BITMAP
44
FE
44
54
44
FE
44
ENDCHAR
STARTCHAR uni4E3D
ENCODING 20029
BBX 7 7 0 -1
BITMAP
FE
00
EE
AA
EE
AA
AA
ENDCHAR
STARTCHAR uni4E3E
ENCODING 20030
BBX 7 7 0 -1
BITMAP
54
FE
54
BA
10
7C
10
ENDCHAR
STARTCHAR uni4E3F
ENCODING 20031
BBX 7 5 0 -1
BITMAP
40
A0
10
08
06
ENDCHAR
STARTCHAR uni4E40
ENCODING 20032
BBX 7 5 0 -1
BITMAP
40
A0
10
08
06
ENDCHAR
STARTCHAR uni4E41
ENCODING 20033
BBX 7 6 0 -1
BITMAP
E0
20
20
10
08
06
ENDCHAR
STARTCHAR uni4E42
ENCODING 20034
BBX 7 7 0 -1
BITMAP
44
44
28
28
10
28
C6
ENDCHAR
STARTCHAR uni4E43
ENCODING 20035
BBX 7 7 0 -1
BITMAP
F8
48
4E
42
42
42
8E
ENDCHAR
STARTCHAR uni4E44
ENCODING 20036
BBX 6 7 1 -1
BITMAP
04
04
28
10
A8
C0
80
ENDCHAR
STARTCHAR uni4E45
ENCODING 20037
BBX 7 7 0 -1
BITMAP
40
70
50
90
10
28
C6
ENDCHAR
STARTCHAR uni4E46
ENCODING 20038
BBX 7 7 0 -1
BITMAP
90
90
90
F0
10
28
C6
ENDCHAR
STARTCHAR uni4E47
ENCODING 20039
BBX 7 7 0 -1
BITMAP
0C
70
10
FE
10
12
1E
ENDCHAR
STARTCHAR uni4E48
ENCODING 20040
BBX 7 7 0 -1
BITMAP
10
20
48
90
20
44
FA
ENDCHAR
STARTCHAR uni4E49
ENCODING 20041
BBX 7 6 0 -1
BITMAP
54
44
28
10
28
C6
ENDCHAR
STARTCHAR uni4E4A
ENCODING 20042
BBX 7 5 0 1
BITMAP
0E
F0
02
44
28
ENDCHAR
STARTCHAR uni4E4B
ENCODING 20043
BBX 7 7 0 -1
BITMAP
10
FC
04
08
30
42
BC
ENDCHAR
STARTCHAR uni4E4C
ENCODING 20044
BBX 7 7 0 -1
BITMAP
20
7C
44
4C
40
7E
AA
ENDCHAR
STARTCHAR uni4E4D
ENCODING 20045
BBX 7 7 0 -1
BITMAP
20
3E
50
9E
10
1E
10
ENDCHAR
STARTCHAR uni4E4E
ENCODING 20046
BBX 7 7 0 -1
BITMAP
FE
10
54
10
FE
10
30
ENDCHAR
STARTCHAR uni4E4F
ENCODING 20047
BBX 7 7 0 -1
BITMAP
7C
10
7C
08
50
60
9E
ENDCHAR
STARTCHAR uni4E50
ENCODING 20048
BBX 7 7 0 -1
BITMAP
FE
90
90
FE
10
54
B2
ENDCHAR
STARTCHAR uni4E51
ENCODING 20049
BBX 7 7 0 -1
BITMAP
FE
10
32
54
B8
54
92
ENDCHAR
STARTCHAR uni4E52
ENCODING 20050
BBX 7 7 0 -1
BITMAP
7C
40
7C
44
FE
20
40
ENDCHAR
STARTCHAR uni4E53
ENCODING 20051
BBX 7 7 0 -1
BITMAP
7C
40
7C
44
FE
08
04
ENDCHAR
STARTCHAR uni4E54
ENCODING 20052
BBX 7 7 0 -1
BITMAP
7C
10
FE
28
6C
AA
28
ENDCHAR
STARTCHAR uni4E55
ENCODING 20053
BBX 7 7 0 -1
BITMAP
FE
88
FE
88
FE
AA
AA
ENDCHAR
STARTCHAR uni4E56
ENCODING 20054
BBX 7 7 0 -1
BITMAP
7C
10
FE
54
D6
54
D6
ENDCHAR
STARTCHAR uni4E57
ENCODING 20055
BBX 7 7 0 -1
BITMAP
38
FE
54
FE
54
38
D6
ENDCHAR
STARTCHAR uni4E58
ENCODING 20056
BBX 7 7 0 -1
BITMAP
7C
10
FE
54
D6
38
D6
ENDCHAR
STARTCHAR uni4E59
ENCODING 20057
BBX 7 7 0 -1
BITMAP
78
08
10
20
40
82
7E
ENDCHAR
STARTCHAR uni4E5A
ENCODING 20058
BBX 6 7 1 -1
BITMAP
80
80
80
80
80
84
78
ENDCHAR
STARTCHAR uni4E5B
ENCODING 20059
BBX 6 3 1 3
BITMAP
FC
04
08
ENDCHAR
STARTCHAR uni4E5C
ENCODING 20060
BBX 7 7 0 -1
BITMAP
20
3C
E4
2C
20
22
3E
ENDCHAR
STARTCHAR uni4E5D
ENCODING 20061
BBX 7 7 0 -1
BITMAP
20
F8
28
28
28
4A
8E
ENDCHAR
STARTCHAR uni4E5E
ENCODING 20062
BBX 7 7 0 -1
BITMAP
40
7E
80
78
10
22
3E
ENDCHAR
STARTCHAR uni4E5F
ENCODING 20063
BBX 7 7 0 -1
BITMAP
10
5C
74
D4
50
42
3E
ENDCHAR
STARTCHAR uni4E60
ENCODING 20064
BBX 6 7 1 -1
BITMAP
FC
44
24
04
34
C4
0C
ENDCHAR
STARTCHAR uni4E61
ENCODING 20065
BBX 7 7 0 -1
BITMAP
10
24
78
12
3C
08
F0
ENDCHAR
STARTCHAR uni4E62
ENCODING 20066
BBX 7 7 0 -1
BITMAP
28
28
28
A8
A8
FA
0E
ENDCHAR
STARTCHAR uni4E63
ENCODING 20067
BBX 7 7 0 -1
BITMAP
48
88
E8
48
88
AA
EE
ENDCHAR
STARTCHAR uni4E64
ENCODING 20068
BBX 7 7 0 -1
BITMAP
FE
10
14
00
78
12
3E
ENDCHAR
STARTCHAR uni4E65
ENCODING 20069
BBX 7 7 0 -1
BITMAP
FE
28
00
70
10
24
3C
ENDCHAR
STARTCHAR uni4E66
ENCODING 20070
BBX 7 7 0 -1
BITMAP
24
FA
28
FC
24
2C
20
ENDCHAR
STARTCHAR uni4E67
ENCODING 20071
BBX 7 7 0 -1
BITMAP
28
48
FE
08
78
12
1E
ENDCHAR
STARTCHAR uni4E68
ENCODING 20072
BBX 7 7 0 -1
BITMAP
48
A8
E8
08
E8
AA
EE
ENDCHAR
STARTCHAR uni4E69
ENCODING 20073
BBX 7 7 0 -1
BITMAP
48
68
48
E8
A8
AA
EE
ENDCHAR
STARTCHAR uni4E6A
ENCODING 20074
BBX 7 7 0 -1
BITMAP
FE
6A
7E
AA
BE
80
FE
ENDCHAR
STARTCHAR uni4E6B
ENCODING 20075
BBX 7 7 0 -1
BITMAP
4E
EA
6A
AE
78
12
3E
ENDCHAR
STARTCHAR uni4E6C
ENCODING 20076
BBX 7 7 0 -1
BITMAP
FC
90
F0
80
F8
12
1E
ENDCHAR
STARTCHAR uni4E6D
ENCODING 20077
BBX 7 7 0 -1
BITMAP
FE
44
BC
00
F0
12
1E
ENDCHAR
STARTCHAR uni4E6E
ENCODING 20078
BBX 7 7 0 -1
BITMAP
EE
8A
EA
2C
F8
12
3E
ENDCHAR
STARTCHAR uni4E6F
ENCODING 20079
BBX 7 7 0 -1
BITMAP
FE
54
FE
10
78
0A
0E
ENDCHAR
STARTCHAR uni4E70
ENCODING 20080
BBX 7 7 0 -1
BITMAP
FE
52
10
50
FE
28
C6
ENDCHAR
STARTCHAR uni4E71
ENCODING 20081
BBX 7 7 0 -1
BITMAP
E8
48
E8
48
E8
AA
EE
ENDCHAR
STARTCHAR uni4E72
ENCODING 20082
BBX 7 7 0 -1
BITMAP
90
1E
AA
14
78
12
1E
ENDCHAR
STARTCHAR uni4E73
ENCODING 20083
BBX 7 7 0 -1
BITMAP
FC
AC
74
14
FC
24
66
ENDCHAR
STARTCHAR uni4E74
ENCODING 20084
BBX 7 7 0 -1
BITMAP
4E
E8
4E
CA
30
14
3C
ENDCHAR
STARTCHAR uni4E75
ENCODING 20085
BBX 7 7 0 -1
BITMAP
24
FC
54
FC
24
FC
26
ENDCHAR
STARTCHAR uni4E76
ENCODING 20086
BBX 7 7 0 -1
BITMAP
14
FE
54
7C
54
3A
0E
ENDCHAR
STARTCHAR uni4E77
ENCODING 20087
BBX 7 7 0 -1
BITMAP
FE
28
FE
AA
CE
82
FE
ENDCHAR
STARTCHAR uni4E78
ENCODING 20088
BBX 7 7 0 -1
BITMAP
2E
FA
6E
6A
5E
42
7E
ENDCHAR
STARTCHAR uni4E79
ENCODING 20089
BBX 7 7 0 -1
BITMAP
48
E8
48
A8
48
EA
4E
ENDCHAR
STARTCHAR uni4E7A
ENCODING 20090
BBX 7 7 0 -1
BITMAP
EE
88
EE
AA
F0
92
3E
ENDCHAR
STARTCHAR uni4E7B
ENCODING 20091
BBX 7 7 0 -1
BITMAP
44
EA
44
62
B0
14
1C
ENDCHAR
STARTCHAR uni4E7C
ENCODING 20092
BBX 7 7 0 -1
BITMAP
88
3E
88
3E
80
1A
0E
ENDCHAR
STARTCHAR uni4E7D
ENCODING 20093
BBX 7 7 0 -1
BITMAP
14
FE
64
BC
08
12
3E
ENDCHAR
STARTCHAR uni4E7E
ENCODING 20094
BBX 7 7 0 -1
BITMAP
48
EE
40
AC
44
E8
4E
ENDCHAR
STARTCHAR uni4E7F
ENCODING 20095
BBX 7 7 0 -1
BITMAP
E8
48
A8
48
E8
4A
CE
ENDCHAR
STARTCHAR uni4E80
ENCODING 20096
BBX 7 7 0 -1
BITMAP
18
E8
54
7C
54
7C
1E
ENDCHAR
STARTCHAR uni4E81
ENCODING 20097
BBX 7 7 0 -1
BITMAP
48
EE
40
EE
44
E8
4E
ENDCHAR
STARTCHAR uni4E82
ENCODING 20098
BBX 7 7 0 -1
BITMAP
F8
58
F8
A8
D8
AA
DE
ENDCHAR
STARTCHAR uni4E83
ENCODING 20099
BBX 7 7 0 -1
BITMAP
AC
74
AC
54
BC
54
96
ENDCHAR
STARTCHAR uni4E84
ENCODING 20100
BBX 7 7 0 -1
BITMAP
24
FC
AC
54
74
54
FE
ENDCHAR
STARTCHAR uni4E85
ENCODING 20101
BBX 2 7 2 -1
BITMAP
40
40
40
40
40
40
C0
ENDCHAR
STARTCHAR uni4E86
ENCODING 20102
BBX 7 7 0 -1
BITMAP
FE
04
08
10
10
10
30
ENDCHAR
STARTCHAR uni4E87
ENCODING 20103
BBX 7 7 0 -1
BITMAP
40
7E
92
10
10
10
70
ENDCHAR
STARTCHAR uni4E88
ENCODING 20104
BBX 7 7 0 -1
BITMAP
7C
28
10
FE
12
10
30
ENDCHAR
STARTCHAR uni4E89
ENCODING 20105
BBX 7 7 0 -1
BITMAP
3C
48
FC
16
FC
10
30
ENDCHAR
STARTCHAR uni4E8A
ENCODING 20106
BBX 7 7 0 -1
BITMAP
10
FE
54
FC
16
FC
30
ENDCHAR
STARTCHAR uni4E8B
ENCODING 20107
BBX 7 7 0 -1
BITMAP
10
FE
54
FC
16
FC
30
ENDCHAR
STARTCHAR uni4E8C
ENCODING 20108
BBX 7 6 0 -1
BITMAP
7C
00
00
00
00
FE
ENDCHAR
STARTCHAR uni4E8D
ENCODING 20109
BBX 7 7 0 -1
BITMAP
7C
00
FE
10
10
10
30
ENDCHAR
STARTCHAR uni4E8E
ENCODING 20110
BBX 7 7 0 -1
BITMAP
7C
10
10
FE
10
10
30
ENDCHAR
STARTCHAR uni4E8F
ENCODING 20111
BBX 7 7 0 -1
BITMAP
7C
00
FE
20
3C
04
0C
ENDCHAR
STARTCHAR uni4E90
ENCODING 20112
BBX 7 7 0 -1
BITMAP
7C
20
FE
20
3C
04
0C
ENDCHAR
STARTCHAR uni4E91
ENCODING 20113
BBX 7 7 0 -1
BITMAP
7C
00
FE
10
10
24
FA
ENDCHAR
STARTCHAR uni4E92
ENCODING 20114
BBX 7 7 0 -1
BITMAP
FE
40
7C
44
7C
04
FE
ENDCHAR
STARTCHAR uni4E93
ENCODING 20115
BBX 7 7 0 -1
BITMAP
7C
00
FE
24
24
24
44
ENDCHAR
STARTCHAR uni4E94
ENCODING 20116
BBX 7 7 0 -1
BITMAP
7C
10
10
7C
24
24
FE
ENDCHAR
STARTCHAR uni4E95
ENCODING 20117
BBX 6 7 1 -1
BITMAP
48
FC
48
48
FC
48
88
ENDCHAR
STARTCHAR uni4E96
ENCODING 20118
BBX 7 7 0 -1
BITMAP
7C
00
FE
00
7C
00
FE
ENDCHAR
STARTCHAR uni4E97
ENCODING 20119
BBX 7 7 0 -1
BITMAP
92
92
FE
00
7C
00
FE
ENDCHAR
STARTCHAR uni4E98
ENCODING 20120
BBX 7 7 0 -1
BITMAP
FE
44
7C
44
7C
00
FE
ENDCHAR
STARTCHAR uni4E99
ENCODING 20121
BBX 7 7 0 -1
BITMAP
FE
20
3C
54
A8
10
FE
ENDCHAR
STARTCHAR uni4E9A
ENCODING 20122
BBX 7 7 0 -1
BITMAP
FE
28
AA
AA
AA
28
FE
ENDCHAR
STARTCHAR uni4E9B
ENCODING 20123
BBX 7 7 0 -1
BITMAP
24
B6
A4
F6
38
00
FE
ENDCHAR
STARTCHAR uni4E9C
ENCODING 20124
BBX 7 7 0 -1
BITMAP
FE
28
FE
AA
FE
28
FE
ENDCHAR
STARTCHAR uni4E9D
ENCODING 20125
BBX 7 7 0 -1
BITMAP
28
7C
44
AA
FE
00
FE
ENDCHAR
STARTCHAR uni4E9E
ENCODING 20126
BBX 7 7 0 -1
BITMAP
FE
28
EE
82
EE
28
FE
ENDCHAR
STARTCHAR uni4E9F
ENCODING 20127
BBX 7 7 0 -1
BITMAP
F8
08
FE
BA
D4
3A
FE
ENDCHAR
STARTCHAR uni4EA0
ENCODING 20128
BBX 7 4 0 2
BITMAP
20
10
00
FE
ENDCHAR
STARTCHAR uni4EA1
ENCODING 20129
BBX 7 7 0 -1
BITMAP
10
FE
40
40
40
40
3E
ENDCHAR
STARTCHAR uni4EA2
ENCODING 20130
BBX 7 7 0 -1
BITMAP
10
FE
00
38
28
2A
CE
ENDCHAR
STARTCHAR uni4EA3
ENCODING 20131
BBX 7 7 0 -1
BITMAP
10
00
FE
24
24
24
44
ENDCHAR
STARTCHAR uni4EA4
ENCODING 20132
BBX 7 7 0 -1
BITMAP
10
FE
28
C6
28
10
EE
ENDCHAR
STARTCHAR uni4EA5
ENCODING 20133
BBX 7 7 0 -1
BITMAP
10
FE
20
54
28
14
E2
ENDCHAR
STARTCHAR uni4EA6
ENCODING 20134
BBX 7 7 0 -1
BITMAP
10
FE
28
AA
AA
28
58
ENDCHAR
STARTCHAR uni4EA7
ENCODING 20135
BBX 7 7 0 -1
BITMAP
10
FE
28
FE
80
80
80
ENDCHAR
STARTCHAR uni4EA8
ENCODING 20136
BBX 7 7 0 -1
BITMAP
10
FE
28
7C
04
08
38
ENDCHAR
STARTCHAR uni4EA9
ENCODING 20137
BBX 7 7 0 -1
BITMAP
10
00
FE
54
7C
54
7C
ENDCHAR
STARTCHAR uni4EAA
ENCODING 20138
BBX 7 7 0 -1
BITMAP
10
FE
28
AA
00
7C
06
ENDCHAR
STARTCHAR uni4EAB
ENCODING 20139
BBX 7 7 0 -1
BITMAP
10
FE
44
7C
08
FE
10
ENDCHAR
STARTCHAR uni4EAC
ENCODING 20140
BBX 7 7 0 -1
BITMAP
10
FE
44
7C
10
54
B2
ENDCHAR
STARTCHAR uni4EAD
ENCODING 20141
BBX 7 7 0 -1
BITMAP
10
FE
44
FE
BA
10
30
ENDCHAR
STARTCHAR uni4EAE
ENCODING 20142
BBX 7 7 0 -1
BITMAP
10
FE
44
FE
82
38
CE
ENDCHAR
STARTCHAR uni4EAF
ENCODING 20143
BBX 7 7 0 -1
BITMAP
10
FE
44
7C
FE
82
FE
ENDCHAR
STARTCHAR uni4EB0
ENCODING 20144
BBX 7 7 0 -1
BITMAP
10
FE
44
7C
44
7C
92
ENDCHAR
STARTCHAR uni4EB1
ENCODING 20145
BBX 7 7 0 -1
BITMAP
10
FE
5C
D4
5C
54
7E
ENDCHAR
STARTCHAR uni4EB2
ENCODING 20146
BBX 7 7 0 -1
BITMAP
10
FE
44
FE
10
FE
54
ENDCHAR
STARTCHAR uni4EB3
ENCODING 20147
BBX 7 7 0 -1
BITMAP
10
FE
44
FE
9A
70
1E
ENDCHAR
STARTCHAR uni4EB4
ENCODING 20148
BBX 7 7 0 -1
BITMAP
10
FE
28
FE
92
7C
26
ENDCHAR
STARTCHAR uni4EB5
ENCODING 20149
BBX 7 7 0 -1
BITMAP
10
FE
48
7C
D6
68
B6
ENDCHAR
STARTCHAR uni4EB6
ENCODING 20150
BBX 7 7 0 -1
BITMAP
10
FE
AA
BA
FE
44
FE
ENDCHAR
STARTCHAR uni4EB7
ENCODING 20151
BBX 7 7 0 -1
BITMAP
10
FE
28
7E
6A
7C
AA
ENDCHAR
STARTCHAR uni4EB8
ENCODING 20152
BBX 7 7 0 -1
BITMAP
4A
E0
AE
EA
44
EE
44
ENDCHAR
STARTCHAR uni4EB9
ENCODING 20153
BBX 7 7 0 -1
BITMAP
10
FE
AA
FE
BA
28
FE
ENDCHAR
STARTCHAR uni4EBA
ENCODING 20154
BBX 7 7 0 -1
BITMAP
10
10
10
28
28
44
82
ENDCHAR
STARTCHAR uni4EBB
ENCODING 20155
BBX 3 7 1 -1
BITMAP
20
40
C0
40
40
40
40
ENDCHAR
STARTCHAR uni4EBC
ENCODING 20156
BBX 7 7 0 -1
BITMAP
10
10
10
28
C6
00
FE
ENDCHAR
STARTCHAR uni4EBD
ENCODING 20157
BBX 7 7 0 -1
BITMAP
10
10
28
C6
00
30
08
ENDCHAR
STARTCHAR uni4EBE
ENCODING 20158
BBX 7 7 0 -1
BITMAP
88
88
88
94
A2
80
FE
ENDCHAR
STARTCHAR uni4EBF
ENCODING 20159
BBX 7 7 0 -1
BITMAP
5E
42
C4
48
50
52
5E
ENDCHAR
STARTCHAR uni4EC0
ENCODING 20160
BBX 7 7 0 -1
BITMAP
48
48
C8
7E
48
48
48
ENDCHAR
STARTCHAR uni4EC1
ENCODING 20161
BBX 7 7 0 -1
BITMAP
40
5C
C0
40
40
7E
40
ENDCHAR
STARTCHAR uni4EC2
ENCODING 20162
BBX 7 7 0 -1
BITMAP
48
48
DE
4A
4A
4A
56
ENDCHAR
STARTCHAR uni4EC3
ENCODING 20163
BBX 7 7 0 -1
BITMAP
2E
44
C4
44
44
44
4C
ENDCHAR
STARTCHAR uni4EC4
ENCODING 20164
BBX 7 7 0 -1
BITMAP
7E
48
48
48
48
54
A2
ENDCHAR
STARTCHAR uni4EC5
ENCODING 20165
BBX 7 7 0 -1
BITMAP
5E
D2
52
52
4C
4C
52
ENDCHAR
STARTCHAR uni4EC6
ENCODING 20166
BBX 7 7 0 -1
BITMAP
28
48
C8
4C
4A
48
48
ENDCHAR
STARTCHAR uni4EC7
ENCODING 20167
BBX 7 7 0 -1
BITMAP
28
7C
D4
54
54
54
66
ENDCHAR
STARTCHAR uni4EC8
ENCODING 20168
BBX 7 7 0 -1
BITMAP
54
54
D4
54
54
62
62
ENDCHAR
STARTCHAR uni4EC9
ENCODING 20169
BBX 7 7 0 -1
BITMAP
5C
54
D4
54
54
54
66
ENDCHAR
STARTCHAR uni4ECA
ENCODING 20170
BBX 7 7 0 -1
BITMAP
10
28
D6
00
7C
08
30
ENDCHAR
STARTCHAR uni4ECB
ENCODING 20171
BBX 7 7 0 -1
BITMAP
10
28
C6
28
28
28
48
ENDCHAR
STARTCHAR uni4ECC
ENCODING 20172
BBX 7 7 0 -1
BITMAP
10
10
28
C6
10
28
C6
ENDCHAR
STARTCHAR uni4ECD
ENCODING 20173
BBX 7 7 0 -1
BITMAP
3C
54
D6
52
52
52
66
ENDCHAR
STARTCHAR uni4ECE
ENCODING 20174
BBX 7 7 0 -1
BITMAP
24
24
24
24
34
4A
92
ENDCHAR
STARTCHAR uni4ECF
ENCODING 20175
BBX 7 7 0 -1
BITMAP
28
48
C8
48
50
54
7A
ENDCHAR
STARTCHAR uni4ED0
ENCODING 20176
BBX 7 7 0 -1
BITMAP
10
28
D6
10
FE
10
10
ENDCHAR
STARTCHAR uni4ED1
ENCODING 20177
BBX 7 7 0 -1
BITMAP
10
28
C6
48
70
44
7C
ENDCHAR
STARTCHAR uni4ED2
ENCODING 20178
BBX 7 7 0 -1
BITMAP
10
28
44
92
08
20
18
ENDCHAR
STARTCHAR uni4ED3
ENCODING 20179
BBX 7 7 0 -1
BITMAP
38
C6
78
48
58
44
7C
ENDCHAR
STARTCHAR uni4ED4
ENCODING 20180
BBX 7 7 0 -1
BITMAP
3C
44
C8
7E
48
48
58
ENDCHAR
STARTCHAR uni4ED5
ENCODING 20181
BBX 7 7 0 -1
BITMAP
28
48
FE
48
48
48
5C
ENDCHAR
STARTCHAR uni4ED6
ENCODING 20182
BBX 7 7 0 -1
BITMAP
24
54
DE
76
54
52
5E
ENDCHAR
STARTCHAR uni4ED7
ENCODING 20183
BBX 7 7 0 -1
BITMAP
28
7E
C8
58
48
54
62
ENDCHAR
STARTCHAR uni4ED8
ENCODING 20184
BBX 7 7 0 -1
BITMAP
44
5E
C4
54
44
44
4C
ENDCHAR
STARTCHAR uni4ED9
ENCODING 20185
BBX 7 7 0 -1
BITMAP
48
88
AA
AA
AA
AA
BE
ENDCHAR
STARTCHAR uni4EDA
ENCODING 20186
BBX 7 7 0 -1
BITMAP
10
28
C6
10
54
54
7C
ENDCHAR
STARTCHAR uni4EDB
ENCODING 20187
BBX 7 7 0 -1
BITMAP
26
5C
C4
5E
44
44
44
ENDCHAR
STARTCHAR uni4EDC
ENCODING 20188
BBX 7 7 0 -1
BITMAP
5E
48
C8
48
48
48
5E
ENDCHAR
STARTCHAR uni4EDD
ENCODING 20189
BBX 7 7 0 -1
BITMAP
10
28
C6
7C
10
10
FE
ENDCHAR
STARTCHAR uni4EDE
ENCODING 20190
BBX 7 7 0 -1
BITMAP
5E
4A
CA
5A
6A
4A
56
ENDCHAR
STARTCHAR uni4EDF
ENCODING 20191
BBX 7 7 0 -1
BITMAP
24
58
C8
7E
48
48
48
ENDCHAR
STARTCHAR uni4EE0
ENCODING 20192
BBX 7 7 0 -1
BITMAP
26
5C
C4
5E
44
44
44
ENDCHAR
STARTCHAR uni4EE1
ENCODING 20193
BBX 7 7 0 -1
BITMAP
48
CE
50
4E
44
48
4E
ENDCHAR
STARTCHAR uni4EE2
ENCODING 20194
BBX 7 7 0 -1
BITMAP
48
CE
52
42
4A
42
46
ENDCHAR
STARTCHAR uni4EE3
ENCODING 20195
BBX 7 7 0 -1
BITMAP
4A
48
FE
48
48
4A
46
ENDCHAR
STARTCHAR uni4EE4
ENCODING 20196
BBX 7 7 0 -1
BITMAP
10
28
D6
7C
04
28
10
ENDCHAR
STARTCHAR uni4EE5
ENCODING 20197
BBX 7 7 0 -1
BITMAP
44
54
44
44
64
8C
32
ENDCHAR
STARTCHAR uni4EE6
ENCODING 20198
BBX 7 7 0 -1
BITMAP
48
48
DC
5A
6A
48
58
ENDCHAR
STARTCHAR uni4EE7
ENCODING 20199
BBX 7 7 0 -1
BITMAP
10
1E
10
FE
10
28
C6
ENDCHAR
STARTCHAR uni4EE8
ENCODING 20200
BBX 7 7 0 -1
BITMAP
5E
C0
40
5E
40
40
5E
ENDCHAR
STARTCHAR uni4EE9
ENCODING 20201
BBX 7 7 0 -1
BITMAP
48
48
CE
48
48
48
5E
ENDCHAR
STARTCHAR uni4EEA
ENCODING 20202
BBX 7 7 0 -1
BITMAP
40
6A
E2
54
48
54
62
ENDCHAR
STARTCHAR uni4EEB
ENCODING 20203
BBX 7 7 0 -1
BITMAP
48
50
C4
48
50
64
7A
ENDCHAR
STARTCHAR uni4EEC
ENCODING 20204
BBX 7 7 0 -1
BITMAP
56
C2
52
52
52
52
56
ENDCHAR
STARTCHAR uni4EED
ENCODING 20205
BBX 7 7 0 -1
BITMAP
3E
4A
DA
4A
4E
4A
56
ENDCHAR
STARTCHAR uni4EEE
ENCODING 20206
BBX 7 7 0 -1
BITMAP
5E
50
DE
52
5A
54
6A
ENDCHAR
STARTCHAR uni4EEF
ENCODING 20207
BBX 7 7 0 -1
BITMAP
48
DC
5A
68
4A
44
58
ENDCHAR
STARTCHAR uni4EF0
ENCODING 20208
BBX 7 7 0 -1
BITMAP
50
6E
EA
6A
7A
6C
48
ENDCHAR
STARTCHAR uni4EF1
ENCODING 20209
BBX 7 7 0 -1
BITMAP
48
D4
6A
40
5C
44
48
ENDCHAR
STARTCHAR uni4EF2
ENCODING 20210
BBX 7 7 0 -1
BITMAP
48
7E
EA
6A
7E
48
48
ENDCHAR
STARTCHAR uni4EF3
ENCODING 20211
BBX 7 7 0 -1
BITMAP
54
D4
5E
54
54
5C
56
ENDCHAR
STARTCHAR uni4EF4
ENCODING 20212
BBX 7 7 0 -1
BITMAP
5E
52
DE
52
5E
52
66
ENDCHAR
STARTCHAR uni4EF5
ENCODING 20213
BBX 8 7 0 -1
BITMAP
48
4F
D4
44
5F
44
44
ENDCHAR
STARTCHAR uni4EF6
ENCODING 20214
BBX 7 7 0 -1
BITMAP
54
5E
D4
44
5E
44
44
ENDCHAR
STARTCHAR uni4EF7
ENCODING 20215
BBX 7 7 0 -1
BITMAP
28
54
E2
54
54
54
64
ENDCHAR
STARTCHAR uni4EF8
ENCODING 20216
BBX 7 7 0 -1
BITMAP
4C
58
C8
7E
48
54
62
ENDCHAR
STARTCHAR uni4EF9
ENCODING 20217
BBX 7 7 0 -1
BITMAP
48
7E
C8
5C
48
7E
48
ENDCHAR
STARTCHAR uni4EFA
ENCODING 20218
BBX 7 7 0 -1
BITMAP
10
28
7C
C2
78
40
7C
ENDCHAR
STARTCHAR uni4EFB
ENCODING 20219
BBX 7 7 0 -1
BITMAP
24
58
C8
7E
48
48
5C
ENDCHAR
STARTCHAR uni4EFC
ENCODING 20220
BBX 7 7 0 -1
BITMAP
2E
44
C4
4E
44
44
4E
ENDCHAR
STARTCHAR uni4EFD
ENCODING 20221
BBX 7 7 0 -1
BITMAP
54
D4
62
40
5E
4A
56
ENDCHAR
STARTCHAR uni4EFE
ENCODING 20222
BBX 7 7 0 -1
BITMAP
7E
50
DC
54
5C
44
7E
ENDCHAR
STARTCHAR uni4EFF
ENCODING 20223
BBX 7 7 0 -1
BITMAP
28
40
DE
48
4E
52
56
ENDCHAR
STARTCHAR uni4F00
ENCODING 20224
BBX 7 7 0 -1
BITMAP
54
54
E2
48
48
54
5A
ENDCHAR
STARTCHAR uni4F01
ENCODING 20225
BBX 7 7 0 -1
BITMAP
10
28
D6
10
5C
50
FE
ENDCHAR
STARTCHAR uni4F02
ENCODING 20226
BBX 7 7 0 -1
BITMAP
48
7E
C8
7E
6A
6E
48
ENDCHAR
STARTCHAR uni4F03
ENCODING 20227
BBX 7 7 0 -1
BITMAP
5E
C2
54
48
5E
4A
58
ENDCHAR
STARTCHAR uni4F04
ENCODING 20228
BBX 7 7 0 -1
BITMAP
5E
4A
FE
68
7E
4A
48
ENDCHAR
STARTCHAR uni4F05
ENCODING 20229
BBX 7 7 0 -1
BITMAP
48
FE
48
6A
7E
48
4E
ENDCHAR
STARTCHAR uni4F06
ENCODING 20230
BBX 7 7 0 -1
BITMAP
50
7E
CA
56
6A
52
46
ENDCHAR
STARTCHAR uni4F07
ENCODING 20231
BBX 7 7 0 -1
BITMAP
5C
54
E2
5C
54
48
54
ENDCHAR
STARTCHAR uni4F08
ENCODING 20232
BBX 7 7 0 -1
BITMAP
28
44
D0
64
52
54
5C
ENDCHAR
STARTCHAR uni4F09
ENCODING 20233
BBX 7 7 0 -1
BITMAP
28
7E
C0
5C
54
54
66
ENDCHAR
STARTCHAR uni4F0A
ENCODING 20234
BBX 7 7 0 -1
BITMAP
3E
4A
FE
4A
5E
48
50
ENDCHAR
STARTCHAR uni4F0B
ENCODING 20235
BBX 7 7 0 -1
BITMAP
5E
52
D4
5E
5A
54
6A
ENDCHAR
STARTCHAR uni4F0C
ENCODING 20236
BBX 7 7 0 -1
BITMAP
5E
50
DE
5A
5E
68
6E
ENDCHAR
STARTCHAR uni4F0D
ENCODING 20237
BBX 7 7 0 -1
BITMAP
3C
48
C8
7C
54
54
7E
ENDCHAR
STARTCHAR uni4F0E
ENCODING 20238
BBX 7 7 0 -1
BITMAP
28
7E
C8
7C
54
48
76
ENDCHAR
STARTCHAR uni4F0F
ENCODING 20239
BBX 7 7 0 -1
BITMAP
2A
48
FE
48
48
54
62
ENDCHAR
STARTCHAR uni4F10
ENCODING 20240
BBX 7 7 0 -1
BITMAP
2A
48
DE
48
4A
44
5A
ENDCHAR
STARTCHAR uni4F11
ENCODING 20241
BBX 7 7 0 -1
BITMAP
28
48
FE
48
5C
6A
48
ENDCHAR
STARTCHAR uni4F12
ENCODING 20242
BBX 7 7 0 -1
BITMAP
22
5C
D0
5E
54
54
64
ENDCHAR
STARTCHAR uni4F13
ENCODING 20243
BBX 7 7 0 -1
BITMAP
2E
44
CC
56
44
44
44
ENDCHAR
STARTCHAR uni4F14
ENCODING 20244
BBX 7 7 0 -1
BITMAP
5E
52
C0
54
54
54
56
ENDCHAR
STARTCHAR uni4F15
ENCODING 20245
BBX 7 7 0 -1
BITMAP
48
5C
C8
7E
48
54
62
ENDCHAR
STARTCHAR uni4F16
ENCODING 20246
BBX 7 7 0 -1
BITMAP
48
5E
C8
4E
4A
54
4A
ENDCHAR
STARTCHAR uni4F17
ENCODING 20247
BBX 7 7 0 -1
BITMAP
10
28
C6
00
44
44
AA
ENDCHAR
STARTCHAR uni4F18
ENCODING 20248
BBX 7 7 0 -1
BITMAP
52
D0
7E
54
54
54
66
ENDCHAR
STARTCHAR uni4F19
ENCODING 20249
BBX 7 7 0 -1
BITMAP
48
6A
DC
48
48
54
62
ENDCHAR
STARTCHAR uni4F1A
ENCODING 20250
BBX 7 7 0 -1
BITMAP
38
C6
7C
00
FE
24
7A
ENDCHAR
STARTCHAR uni4F1B
ENCODING 20251
BBX 7 7 0 -1
BITMAP
5E
50
DA
54
5A
50
5E
ENDCHAR
STARTCHAR uni4F1C
ENCODING 20252
BBX 7 7 0 -1
BITMAP
28
7C
D4
66
48
7E
48
ENDCHAR
STARTCHAR uni4F1D
ENCODING 20253
BBX 7 7 0 -1
BITMAP
3C
40
FE
48
48
54
7A
ENDCHAR
STARTCHAR uni4F1E
ENCODING 20254
BBX 7 7 0 -1
BITMAP
10
38
D6
54
FE
10
10
ENDCHAR
STARTCHAR uni4F1F
ENCODING 20255
BBX 7 7 0 -1
BITMAP
48
5E
C8
5E
4A
4E
48
ENDCHAR
STARTCHAR uni4F20
ENCODING 20256
BBX 7 7 0 -1
BITMAP
28
5E
C8
5E
48
4E
42
ENDCHAR
STARTCHAR uni4F21
ENCODING 20257
BBX 7 7 0 -1
BITMAP
48
7E
D4
5E
44
5E
44
ENDCHAR
STARTCHAR uni4F22
ENCODING 20258
BBX 7 7 0 -1
BITMAP
5C
C4
54
5E
4C
54
4C
ENDCHAR
STARTCHAR uni4F23
ENCODING 20259
BBX 7 7 0 -1
BITMAP
5E
52
DA
5A
48
4A
56
ENDCHAR
STARTCHAR uni4F24
ENCODING 20260
BBX 7 7 0 -1
BITMAP
50
5E
E8
5E
4A
4A
56
ENDCHAR
STARTCHAR uni4F25
ENCODING 20261
BBX 7 7 0 -1
BITMAP
52
D4
7E
50
58
54
5A
ENDCHAR
STARTCHAR uni4F26
ENCODING 20262
BBX 7 7 0 -1
BITMAP
28
54
E2
54
58
52
5E
ENDCHAR
STARTCHAR uni4F27
ENCODING 20263
BBX 7 7 0 -1
BITMAP
28
54
FE
54
5C
52
5E
ENDCHAR
STARTCHAR uni4F28
ENCODING 20264
BBX 7 7 0 -1
BITMAP
50
5E
E2
56
4A
52
46
ENDCHAR
STARTCHAR uni4F29
ENCODING 20265
BBX 7 7 0 -1
BITMAP
48
7E
D4
54
48
54
62
ENDCHAR
STARTCHAR uni4F2A
ENCODING 20266
BBX 7 7 0 -1
BITMAP
58
48
FE
4A
4E
52
66
ENDCHAR
STARTCHAR uni4F2B
ENCODING 20267
BBX 7 7 0 -1
BITMAP
48
40
DE
52
40
40
5E
ENDCHAR
STARTCHAR uni4F2C
ENCODING 20268
BBX 7 7 0 -1
BITMAP
5E
52
D2
5E
54
54
52
ENDCHAR
STARTCHAR uni4F2D
ENCODING 20269
BBX 7 7 0 -1
BITMAP
48
7E
C8
54
48
52
5E
ENDCHAR
STARTCHAR uni4F2E
ENCODING 20270
BBX 7 7 0 -1
BITMAP
AE
FA
AA
AA
AC
94
AA
ENDCHAR
STARTCHAR uni4F2F
ENCODING 20271
BBX 7 7 0 -1
BITMAP
28
5E
D2
5E
52
52
5E
ENDCHAR
STARTCHAR uni4F30
ENCODING 20272
BBX 7 7 0 -1
BITMAP
28
48
FE
48
5C
54
5C
ENDCHAR
STARTCHAR uni4F31
ENCODING 20273
BBX 7 7 0 -1
BITMAP
28
54
E2
48
6A
48
58
ENDCHAR
STARTCHAR uni4F32
ENCODING 20274
BBX 7 7 0 -1
BITMAP
5E
52
DE
50
5E
68
6E
ENDCHAR
STARTCHAR uni4F33
ENCODING 20275
BBX 7 7 0 -1
BITMAP
54
54
FE
54
5C
50
5E
ENDCHAR
STARTCHAR uni4F34
ENCODING 20276
BBX 7 7 0 -1
BITMAP
6A
48
DC
48
7E
48
48
ENDCHAR
STARTCHAR uni4F35
ENCODING 20277
BBX 7 7 0 -1
BITMAP
BE
AA
AA
B6
A2
A2
BE
ENDCHAR
STARTCHAR uni4F36
ENCODING 20278
BBX 7 7 0 -1
BITMAP
5C
6A
C0
7E
54
48
44
ENDCHAR
STARTCHAR uni4F37
ENCODING 20279
BBX 7 7 0 -1
BITMAP
48
88
BE
AA
BE
AA
BE
ENDCHAR
STARTCHAR uni4F38
ENCODING 20280
BBX 7 7 0 -1
BITMAP
48
BE
AA
BE
AA
BE
88
ENDCHAR
STARTCHAR uni4F39
ENCODING 20281
BBX 7 7 0 -1
BITMAP
5C
54
DC
54
5C
54
7E
ENDCHAR
STARTCHAR uni4F3A
ENCODING 20282
BBX 7 7 0 -1
BITMAP
5E
42
DA
42
5A
5A
46
ENDCHAR
STARTCHAR uni4F3B
ENCODING 20283
BBX 7 7 0 -1
BITMAP
7E
48
EA
48
7E
48
48
ENDCHAR
STARTCHAR uni4F3C
ENCODING 20284
BBX 7 7 0 -1
BITMAP
44
54
C4
64
74
64
5A
ENDCHAR
STARTCHAR uni4F3D
ENCODING 20285
BBX 7 7 0 -1
BITMAP
50
7E
DA
DA
5A
6A
6E
ENDCHAR
STARTCHAR uni4F3E
ENCODING 20286
BBX 7 7 0 -1
BITMAP
7E
44
C8
5C
6A
48
48
ENDCHAR
STARTCHAR uni4F3F
ENCODING 20287
BBX 7 7 0 -1
BITMAP
5E
52
D2
5E
40
52
52
ENDCHAR
STARTCHAR uni4F40
ENCODING 20288
BBX 7 7 0 -1
BITMAP
5E
52
DE
50
5E
52
5E
ENDCHAR
STARTCHAR uni4F41
ENCODING 20289
BBX 7 7 0 -1
BITMAP
48
52
DE
40
5E
52
5E
ENDCHAR
STARTCHAR uni4F42
ENCODING 20290
BBX 7 7 0 -1
BITMAP
5E
44
C4
46
54
54
5E
ENDCHAR
STARTCHAR uni4F43
ENCODING 20291
BBX 7 7 0 -1
BITMAP
7E
AA
AA
BE
AA
AA
BE
ENDCHAR
STARTCHAR uni4F44
ENCODING 20292
BBX 7 7 0 -1
BITMAP
54
D4
7E
54
5C
54
5C
ENDCHAR
STARTCHAR uni4F45
ENCODING 20293
BBX 7 7 0 -1
BITMAP
48
5C
C8
7E
5C
6A
48
ENDCHAR
STARTCHAR uni4F46
ENCODING 20294
BBX 7 7 0 -1
BITMAP
5E
52
DE
52
5E
40
5E
ENDCHAR
STARTCHAR uni4F47
ENCODING 20295
BBX 7 7 0 -1
BITMAP
24
5E
D2
4E
44
44
4C
ENDCHAR
STARTCHAR uni4F48
ENCODING 20296
BBX 7 7 0 -1
BITMAP
48
7E
D8
7E
6A
6E
48
ENDCHAR
STARTCHAR uni4F49
ENCODING 20297
BBX 7 7 0 -1
BITMAP
48
5C
C8
7E
50
54
7A
ENDCHAR
STARTCHAR uni4F4A
ENCODING 20298
BBX 7 7 0 -1
BITMAP
48
BE
AA
BC
B4
A8
B6
ENDCHAR
STARTCHAR uni4F4B
ENCODING 20299
BBX 7 7 0 -1
BITMAP
5E
4A
D6
40
5E
52
5E
ENDCHAR
STARTCHAR uni4F4C
ENCODING 20300
BBX 7 7 0 -1
BITMAP
54
54
DE
54
54
5C
76
ENDCHAR
STARTCHAR uni4F4D
ENCODING 20301
BBX 7 7 0 -1
BITMAP
48
7E
D4
54
54
54
7E
ENDCHAR
STARTCHAR uni4F4E
ENCODING 20302
BBX 7 7 0 -1
BITMAP
5E
54
DE
54
52
58
56
ENDCHAR
STARTCHAR uni4F4F
ENCODING 20303
BBX 7 7 0 -1
BITMAP
28
40
DE
48
5C
48
5E
ENDCHAR
STARTCHAR uni4F50
ENCODING 20304
BBX 7 7 0 -1
BITMAP
28
7E
D0
5E
54
64
5E
ENDCHAR
STARTCHAR uni4F51
ENCODING 20305
BBX 7 7 0 -1
BITMAP
28
7E
D0
5E
72
52
5E
ENDCHAR
STARTCHAR uni4F52
ENCODING 20306
BBX 7 7 0 -1
BITMAP
48
7E
EA
7E
48
54
62
ENDCHAR
STARTCHAR uni4F53
ENCODING 20307
BBX 7 7 0 -1
BITMAP
28
7E
C8
5C
6A
5C
48
ENDCHAR
STARTCHAR uni4F54
ENCODING 20308
BBX 7 7 0 -1
BITMAP
48
4E
C8
5E
52
52
5E
ENDCHAR
STARTCHAR uni4F55
ENCODING 20309
BBX 7 7 0 -1
BITMAP
5E
42
DE
56
5E
42
4E
ENDCHAR
STARTCHAR uni4F56
ENCODING 20310
BBX 7 7 0 -1
BITMAP
48
42
D2
54
6A
48
56
ENDCHAR
STARTCHAR uni4F57
ENCODING 20311
BBX 7 7 0 -1
BITMAP
28
7E
E2
54
58
52
5E
ENDCHAR
STARTCHAR uni4F58
ENCODING 20312
BBX 7 7 0 -1
BITMAP
38
C6
38
00
FE
54
92
ENDCHAR
STARTCHAR uni4F59
ENCODING 20313
BBX 7 7 0 -1
BITMAP
38
C6
7C
10
FE
54
B2
ENDCHAR
STARTCHAR uni4F5A
ENCODING 20314
BBX 7 7 0 -1
BITMAP
58
5C
E8
7E
48
54
62
ENDCHAR
STARTCHAR uni4F5B
ENCODING 20315
BBX 7 7 0 -1
BITMAP
54
7E
DE
F4
7E
56
64
ENDCHAR
STARTCHAR uni4F5C
ENCODING 20316
BBX 7 7 0 -1
BITMAP
28
4E
D8
4E
48
4E
48
ENDCHAR
STARTCHAR uni4F5D
ENCODING 20317
BBX 7 7 0 -1
BITMAP
50
5E
E2
5A
5A
42
46
ENDCHAR
STARTCHAR uni4F5E
ENCODING 20318
BBX 7 7 0 -1
BITMAP
5C
40
FE
50
7E
48
76
ENDCHAR
STARTCHAR uni4F5F
ENCODING 20319
BBX 7 7 0 -1
BITMAP
50
5E
F4
48
76
40
4C
ENDCHAR
STARTCHAR uni4F60
ENCODING 20320
BBX 7 7 0 -1
BITMAP
50
5E
EA
48
5C
6A
58
ENDCHAR
STARTCHAR uni4F61
ENCODING 20321
BBX 7 7 0 -1
BITMAP
48
94
A2
88
AA
AA
BE
ENDCHAR
STARTCHAR uni4F62
ENCODING 20322
BBX 7 7 0 -1
BITMAP
5E
50
DE
52
5E
50
5E
ENDCHAR
STARTCHAR uni4F63
ENCODING 20323
BBX 7 7 0 -1
BITMAP
7E
AA
BE
AA
BE
AA
C6
ENDCHAR
STARTCHAR uni4F64
ENCODING 20324
BBX 7 7 0 -1
BITMAP
7E
50
DC
54
5C
56
5A
ENDCHAR
STARTCHAR uni4F65
ENCODING 20325
BBX 7 7 0 -1
BITMAP
38
44
BA
00
A2
54
FE
ENDCHAR
STARTCHAR uni4F66
ENCODING 20326
BBX 7 7 0 -1
BITMAP
5E
48
D0
7E
52
52
5E
ENDCHAR
STARTCHAR uni4F67
ENCODING 20327
BBX 7 7 0 -1
BITMAP
50
5C
D0
7E
50
54
50
ENDCHAR
STARTCHAR uni4F68
ENCODING 20328
BBX 7 7 0 -1
BITMAP
50
5E
E2
5A
58
52
5E
ENDCHAR
STARTCHAR uni4F69
ENCODING 20329
BBX 7 7 0 -1
BITMAP
5E
52
DE
5A
5E
5E
6A
ENDCHAR
STARTCHAR uni4F6A
ENCODING 20330
BBX 7 7 0 -1
BITMAP
5E
52
DE
56
5E
52
5E
ENDCHAR
STARTCHAR uni4F6B
ENCODING 20331
BBX 7 7 0 -1
BITMAP
50
7E
D4
48
7E
54
5C
ENDCHAR
STARTCHAR uni4F6C
ENCODING 20332
BBX 7 7 0 -1
BITMAP
48
7E
CC
7E
54
7A
5E
ENDCHAR
STARTCHAR uni4F6D
ENCODING 20333
BBX 7 7 0 -1
BITMAP
50
7E
DC
6A
54
5E
44
ENDCHAR
STARTCHAR uni4F6E
ENCODING 20334
BBX 7 7 0 -1
BITMAP
48
54
FE
40
5C
54
5C
ENDCHAR
STARTCHAR uni4F6F
ENCODING 20335
BBX 7 7 0 -1
BITMAP
54
7E
C8
DC
48
7E
48
ENDCHAR
STARTCHAR uni4F70
ENCODING 20336
BBX 7 7 0 -1
BITMAP
5E
48
DE
52
5E
52
5E
ENDCHAR
STARTCHAR uni4F71
ENCODING 20337
BBX 7 7 0 -1
BITMAP
38
C6
7C
10
5C
50
FE
ENDCHAR
STARTCHAR uni4F72
ENCODING 20338
BBX 7 7 0 -1
BITMAP
48
5E
F4
48
7E
52
5E
ENDCHAR
STARTCHAR uni4F73
ENCODING 20339
BBX 7 7 0 -1
BITMAP
48
5C
C8
7E
5C
48
7E
ENDCHAR
STARTCHAR uni4F74
ENCODING 20340
BBX 7 7 0 -1
BITMAP
7E
54
DC
54
5E
74
44
ENDCHAR
STARTCHAR uni4F75
ENCODING 20341
BBX 7 7 0 -1
BITMAP
54
40
FE
54
7E
54
54
ENDCHAR
STARTCHAR uni4F76
ENCODING 20342
BBX 7 7 0 -1
BITMAP
48
FE
48
5C
40
5C
5C
ENDCHAR
STARTCHAR uni4F77
ENCODING 20343
BBX 7 7 0 -1
BITMAP
5E
52
DE
52
5E
54
5A
ENDCHAR
STARTCHAR uni4F78
ENCODING 20344
BBX 7 7 0 -1
BITMAP
5E
48
DE
48
5E
52
5E
ENDCHAR
STARTCHAR uni4F79
ENCODING 20345
BBX 7 7 0 -1
BITMAP
5C
E4
7E
54
5C
52
6E
ENDCHAR
STARTCHAR uni4F7A
ENCODING 20346
BBX 7 7 0 -1
BITMAP
5C
62
DC
48
5C
48
7E
ENDCHAR
STARTCHAR uni4F7B
ENCODING 20347
BBX 7 7 0 -1
BITMAP
54
76
D4
F6
54
54
66
ENDCHAR
STARTCHAR uni4F7C
ENCODING 20348
BBX 7 7 0 -1
BITMAP
28
7E
D4
62
54
48
76
ENDCHAR
STARTCHAR uni4F7D
ENCODING 20349
BBX 7 7 0 -1
BITMAP
48
6E
D2
44
54
64
4A
ENDCHAR
STARTCHAR uni4F7E
ENCODING 20350
BBX 7 7 0 -1
BITMAP
48
54
FE
54
5C
54
6C
ENDCHAR
STARTCHAR uni4F7F
ENCODING 20351
BBX 7 7 0 -1
BITMAP
48
7E
EA
7E
68
58
66
ENDCHAR
STARTCHAR uni4F80
ENCODING 20352
BBX 7 7 0 -1
BITMAP
7A
56
D6
7E
56
52
56
ENDCHAR
STARTCHAR uni4F81
ENCODING 20353
BBX 7 7 0 -1
BITMAP
54
5E
C4
7E
4C
54
56
ENDCHAR
STARTCHAR uni4F82
ENCODING 20354
BBX 7 7 0 -1
BITMAP
48
BE
A4
B8
AC
BA
AE
ENDCHAR
STARTCHAR uni4F83
ENCODING 20355
BBX 7 7 0 -1
BITMAP
5E
52
DE
40
5A
5A
6A
ENDCHAR
STARTCHAR uni4F84
ENCODING 20356
BBX 7 7 0 -1
BITMAP
7E
48
D4
48
5C
48
7E
ENDCHAR
STARTCHAR uni4F85
ENCODING 20357
BBX 7 7 0 -1
BITMAP
48
7E
D0
6A
54
48
76
ENDCHAR
STARTCHAR uni4F86
ENCODING 20358
BBX 7 7 0 -1
BITMAP
10
FE
54
54
BA
54
92
ENDCHAR
STARTCHAR uni4F87
ENCODING 20359
BBX 7 7 0 -1
BITMAP
48
7E
D4
68
7E
4A
54
ENDCHAR
STARTCHAR uni4F88
ENCODING 20360
BBX 7 7 0 -1
BITMAP
2C
54
C8
76
4A
44
58
ENDCHAR
STARTCHAR uni4F89
ENCODING 20361
BBX 7 7 0 -1
BITMAP
48
7E
D4
62
5C
4E
42
ENDCHAR
STARTCHAR uni4F8A
ENCODING 20362
BBX 7 7 0 -1
BITMAP
48
6A
C8
7E
54
54
66
ENDCHAR
STARTCHAR uni4F8B
ENCODING 20363
BBX 7 7 0 -1
BITMAP
3A
56
DE
6E
5A
52
66
ENDCHAR
STARTCHAR uni4F8C
ENCODING 20364
BBX 7 7 0 -1
BITMAP
38
D6
38
08
FE
24
7A
ENDCHAR
STARTCHAR uni4F8D
ENCODING 20365
BBX 7 7 0 -1
BITMAP
28
5C
C8
7E
44
7E
54
ENDCHAR
STARTCHAR uni4F8E
ENCODING 20366
BBX 7 7 0 -1
BITMAP
48
6A
C8
7E
5C
6A
48
ENDCHAR
STARTCHAR uni4F8F
ENCODING 20367
BBX 7 7 0 -1
BITMAP
38
5C
E8
7E
48
5C
6A
ENDCHAR
STARTCHAR uni4F90
ENCODING 20368
BBX 7 7 0 -1
BITMAP
48
5C
D4
54
54
7E
40
ENDCHAR
STARTCHAR uni4F91
ENCODING 20369
BBX 7 7 0 -1
BITMAP
28
5E
C8
4E
5A
4E
4A
ENDCHAR
STARTCHAR uni4F92
ENCODING 20370
BBX 7 7 0 -1
BITMAP
48
7E
EA
7E
54
48
54
ENDCHAR
STARTCHAR uni4F93
ENCODING 20371
BBX 7 7 0 -1
BITMAP
48
5E
CA
5E
48
5E
48
ENDCHAR
STARTCHAR uni4F94
ENCODING 20372
BBX 7 7 0 -1
BITMAP
44
CA
54
5E
64
5E
44
ENDCHAR
STARTCHAR uni4F95
ENCODING 20373
BBX 7 7 0 -1
BITMAP
5E
48
DE
56
56
56
52
ENDCHAR
STARTCHAR uni4F96
ENCODING 20374
BBX 7 7 0 -1
BITMAP
38
C6
38
FE
AA
FE
AA
ENDCHAR
STARTCHAR uni4F97
ENCODING 20375
BBX 7 7 0 -1
BITMAP
5E
52
DE
52
5E
5E
52
ENDCHAR
STARTCHAR uni4F98
ENCODING 20376
BBX 7 7 0 -1
BITMAP
28
7E
E6
58
7E
48
4E
ENDCHAR
STARTCHAR uni4F99
ENCODING 20377
BBX 7 7 0 -1
BITMAP
4A
7E
C8
78
54
7C
46
ENDCHAR
STARTCHAR uni4F9A
ENCODING 20378
BBX 7 7 0 -1
BITMAP
50
BE
EA
BA
AA
BA
86
ENDCHAR
STARTCHAR uni4F9B
ENCODING 20379
BBX 7 7 0 -1
BITMAP
54
7E
D4
D4
7E
40
62
ENDCHAR
STARTCHAR uni4F9C
ENCODING 20380
BBX 7 7 0 -1
BITMAP
48
5C
D4
7E
54
5C
64
ENDCHAR
STARTCHAR uni4F9D
ENCODING 20381
BBX 7 7 0 -1
BITMAP
28
7E
C8
5A
74
54
5A
ENDCHAR
STARTCHAR uni4F9E
ENCODING 20382
BBX 7 7 0 -1
BITMAP
50
56
FA
6A
6A
56
68
ENDCHAR
STARTCHAR uni4F9F
ENCODING 20383
BBX 7 7 0 -1
BITMAP
48
7E
D4
72
54
5E
54
ENDCHAR
STARTCHAR uni4FA0
ENCODING 20384
BBX 7 7 0 -1
BITMAP
48
7E
C8
6A
7E
48
76
ENDCHAR
STARTCHAR uni4FA1
ENCODING 20385
BBX 7 7 0 -1
BITMAP
5E
48
DE
5A
5A
5A
5E
ENDCHAR
STARTCHAR uni4FA2
ENCODING 20386
BBX 7 7 0 -1
BITMAP
5C
48
DC
5C
7E
54
54
ENDCHAR
STARTCHAR uni4FA3
ENCODING 20387
BBX 7 7 0 -1
BITMAP
5E
52
DE
40
5E
52
5E
ENDCHAR
STARTCHAR uni4FA4
ENCODING 20388
BBX 7 7 0 -1
BITMAP
4A
4C
FE
48
5E
62
4E
ENDCHAR
STARTCHAR uni4FA5
ENCODING 20389
BBX 7 7 0 -1
BITMAP
50
7E
C8
54
7E
54
66
ENDCHAR
STARTCHAR uni4FA6
ENCODING 20390
BBX 7 7 0 -1
BITMAP
4E
88
BE
A2
AA
88
B6
ENDCHAR
STARTCHAR uni4FA7
ENCODING 20391
BBX 7 7 0 -1
BITMAP
42
BA
AA
AA
AA
92
AA
ENDCHAR
STARTCHAR uni4FA8
ENCODING 20392
BBX 7 7 0 -1
BITMAP
5C
48
FE
54
76
54
54
ENDCHAR
STARTCHAR uni4FA9
ENCODING 20393
BBX 7 7 0 -1
BITMAP
48
76
DC
40
7E
54
7A
ENDCHAR
STARTCHAR uni4FAA
ENCODING 20394
BBX 7 7 0 -1
BITMAP
48
7E
D4
48
76
54
54
ENDCHAR
STARTCHAR uni4FAB
ENCODING 20395
BBX 7 7 0 -1
BITMAP
28
7E
D0
5C
7E
54
7A
ENDCHAR
STARTCHAR uni4FAC
ENCODING 20396
BBX 7 7 0 -1
BITMAP
48
7E
EA
50
7A
54
5A
ENDCHAR
STARTCHAR uni4FAD
ENCODING 20397
BBX 7 7 0 -1
BITMAP
3E
52
DE
54
6A
40
4C
ENDCHAR
STARTCHAR uni4FAE
ENCODING 20398
BBX 7 7 0 -1
BITMAP
50
5E
D4
7E
54
5E
44
ENDCHAR
STARTCHAR uni4FAF
ENCODING 20399
BBX 7 7 0 -1
BITMAP
2C
44
DE
48
5E
44
5A
ENDCHAR
STARTCHAR uni4FB0
ENCODING 20400
BBX 7 7 0 -1
BITMAP
5C
46
DC
48
5E
6A
4E
ENDCHAR
STARTCHAR uni4FB1
ENCODING 20401
BBX 7 7 0 -1
BITMAP
5C
54
FE
48
5C
48
7E
ENDCHAR
STARTCHAR uni4FB2
ENCODING 20402
BBX 7 7 0 -1
BITMAP
5E
50
DE
50
5A
54
6A
ENDCHAR
STARTCHAR uni4FB3
ENCODING 20403
BBX 7 7 0 -1
BITMAP
54
54
EA
48
5C
48
7E
ENDCHAR
STARTCHAR uni4FB4
ENCODING 20404
BBX 7 7 0 -1
BITMAP
38
C6
7A
56
F2
56
FA
ENDCHAR
STARTCHAR uni4FB5
ENCODING 20405
BBX 7 7 0 -1
BITMAP
3C
44
DC
7E
76
48
76
ENDCHAR
STARTCHAR uni4FB6
ENCODING 20406
BBX 7 7 0 -1
BITMAP
3E
52
DE
48
5E
52
5E
ENDCHAR
STARTCHAR uni4FB7
ENCODING 20407
BBX 7 7 0 -1
BITMAP
5E
52
DE
50
5E
5A
62
ENDCHAR
STARTCHAR uni4FB8
ENCODING 20408
BBX 7 7 0 -1
BITMAP
40
7E
D4
5C
40
54
7E
ENDCHAR
STARTCHAR uni4FB9
ENCODING 20409
BBX 7 7 0 -1
BITMAP
4E
74
DE
54
6E
50
6E
ENDCHAR
STARTCHAR uni4FBA
ENCODING 20410
BBX 7 7 0 -1
BITMAP
48
6A
FE
54
6A
5C
44
ENDCHAR
STARTCHAR uni4FBB
ENCODING 20411
BBX 7 7 0 -1
BITMAP
54
7E
E2
7E
54
54
66
ENDCHAR
STARTCHAR uni4FBC
ENCODING 20412
BBX 7 7 0 -1
BITMAP
5C
48
FE
6A
44
7E
48
ENDCHAR
STARTCHAR uni4FBD
ENCODING 20413
BBX 7 7 0 -1
BITMAP
5E
5A
DE
48
5E
4A
56
ENDCHAR
STARTCHAR uni4FBE
ENCODING 20414
BBX 7 7 0 -1
BITMAP
4A
5C
C8
76
48
7E
58
ENDCHAR
STARTCHAR uni4FBF
ENCODING 20415
BBX 7 7 0 -1
BITMAP
7E
5C
DC
48
58
48
76
ENDCHAR
STARTCHAR uni4FC0
ENCODING 20416
BBX 7 7 0 -1
BITMAP
7E
6A
D0
7E
54
48
76
ENDCHAR
STARTCHAR uni4FC1
ENCODING 20417
BBX 7 7 0 -1
BITMAP
5C
74
FE
4A
7E
48
76
ENDCHAR
STARTCHAR uni4FC2
ENCODING 20418
BBX 7 7 0 -1
BITMAP
3E
48
D0
4A
7E
48
6A
ENDCHAR
STARTCHAR uni4FC3
ENCODING 20419
BBX 7 7 0 -1
BITMAP
3E
52
DE
44
56
54
6E
ENDCHAR
STARTCHAR uni4FC4
ENCODING 20420
BBX 7 7 0 -1
BITMAP
76
54
FE
54
56
7C
52
ENDCHAR
STARTCHAR uni4FC5
ENCODING 20421
BBX 7 7 0 -1
BITMAP
4A
C8
7E
48
6A
5C
6A
ENDCHAR
STARTCHAR uni4FC6
ENCODING 20422
BBX 7 7 0 -1
BITMAP
5C
62
DC
48
7E
48
6A
ENDCHAR
STARTCHAR uni4FC7
ENCODING 20423
BBX 7 7 0 -1
BITMAP
A8
9E
B4
9E
B4
9E
A0
ENDCHAR
STARTCHAR uni4FC8
ENCODING 20424
BBX 7 7 0 -1
BITMAP
54
DE
44
5E
40
5E
5E
ENDCHAR
STARTCHAR uni4FC9
ENCODING 20425
BBX 7 7 0 -1
BITMAP
7E
48
DE
4A
7E
54
5C
ENDCHAR
STARTCHAR uni4FCA
ENCODING 20426
BBX 7 7 0 -1
BITMAP
32
7E
D4
66
5C
68
56
ENDCHAR
STARTCHAR uni4FCB
ENCODING 20427
BBX 7 7 0 -1
BITMAP
5C
94
BE
AA
BE
A0
BE
ENDCHAR
STARTCHAR uni4FCC
ENCODING 20428
BBX 7 7 0 -1
BITMAP
4A
BE
88
BE
AA
BE
AA
ENDCHAR
STARTCHAR uni4FCD
ENCODING 20429
BBX 7 7 0 -1
BITMAP
28
5E
D2
5C
5A
54
5A
ENDCHAR
STARTCHAR uni4FCE
ENCODING 20430
BBX 7 7 0 -1
BITMAP
5C
54
BC
14
5C
54
BE
ENDCHAR
STARTCHAR uni4FCF
ENCODING 20431
BBX 7 7 0 -1
BITMAP
6A
48
D4
5C
54
5C
54
ENDCHAR
STARTCHAR uni4FD0
ENCODING 20432
BBX 7 7 0 -1
BITMAP
3A
56
FE
56
7A
72
56
ENDCHAR
STARTCHAR uni4FD1
ENCODING 20433
BBX 7 7 0 -1
BITMAP
3E
44
FE
6A
7E
6A
6A
ENDCHAR
STARTCHAR uni4FD2
ENCODING 20434
BBX 7 7 0 -1
BITMAP
48
7E
E2
5C
40
7E
54
ENDCHAR
STARTCHAR uni4FD3
ENCODING 20435
BBX 7 7 0 -1
BITMAP
7E
D4
68
54
7E
48
7E
ENDCHAR
STARTCHAR uni4FD4
ENCODING 20436
BBX 7 7 0 -1
BITMAP
3E
52
DE
52
5E
4C
56
ENDCHAR
STARTCHAR uni4FD5
ENCODING 20437
BBX 7 7 0 -1
BITMAP
48
7E
EA
5C
48
5C
6A
ENDCHAR
STARTCHAR uni4FD6
ENCODING 20438
BBX 7 7 0 -1
BITMAP
5C
48
DC
6A
5C
54
5C
ENDCHAR
STARTCHAR uni4FD7
ENCODING 20439
BBX 7 7 0 -1
BITMAP
54
62
C8
D4
7E
54
5C
ENDCHAR
STARTCHAR uni4FD8
ENCODING 20440
BBX 7 7 0 -1
BITMAP
3C
6A
C0
5C
44
7E
48
ENDCHAR
STARTCHAR uni4FD9
ENCODING 20441
BBX 7 7 0 -1
BITMAP
54
48
D4
7E
6A
6E
48
ENDCHAR
STARTCHAR uni4FDA
ENCODING 20442
BBX 7 7 0 -1
BITMAP
3E
6A
FE
6A
7E
48
7E
ENDCHAR
STARTCHAR uni4FDB
ENCODING 20443
BBX 7 7 0 -1
BITMAP
2C
54
FE
6A
7E
54
66
ENDCHAR
STARTCHAR uni4FDC
ENCODING 20444
BBX 7 7 0 -1
BITMAP
48
5C
DC
7E
50
5C
44
ENDCHAR
STARTCHAR uni4FDD
ENCODING 20445
BBX 7 7 0 -1
BITMAP
3C
54
DC
48
7E
5C
6A
ENDCHAR
STARTCHAR uni4FDE
ENCODING 20446
BBX 7 7 0 -1
BITMAP
38
C6
7C
E2
AA
EA
A6
ENDCHAR
STARTCHAR uni4FDF
ENCODING 20447
BBX 7 7 0 -1
BITMAP
28
52
DE
48
5E
44
5A
ENDCHAR
STARTCHAR uni4FE0
ENCODING 20448
BBX 7 7 0 -1
BITMAP
48
7E
DA
6C
7E
54
62
ENDCHAR
STARTCHAR uni4FE1
ENCODING 20449
BBX 7 7 0 -1
BITMAP
5E
40
DE
40
5E
52
5E
ENDCHAR
STARTCHAR uni4FE2
ENCODING 20450
BBX 7 7 0 -1
BITMAP
50
7E
C8
76
58
44
58
ENDCHAR
STARTCHAR uni4FE3
ENCODING 20451
BBX 7 7 0 -1
BITMAP
3C
54
FE
48
5C
48
76
ENDCHAR
STARTCHAR uni4FE4
ENCODING 20452
BBX 7 7 0 -1
BITMAP
54
7E
CA
FE
68
5E
6A
ENDCHAR
STARTCHAR uni4FE5
ENCODING 20453
BBX 7 7 0 -1
BITMAP
48
7E
DC
5C
5C
7E
48
ENDCHAR
STARTCHAR uni4FE6
ENCODING 20454
BBX 7 7 0 -1
BITMAP
48
7E
C8
7E
54
6E
54
ENDCHAR
STARTCHAR uni4FE7
ENCODING 20455
BBX 7 7 0 -1
BITMAP
48
7E
C8
5C
40
6A
5C
ENDCHAR
STARTCHAR uni4FE8
ENCODING 20456
BBX 7 7 0 -1
BITMAP
7E
94
B6
94
BE
A0
A0
ENDCHAR
STARTCHAR uni4FE9
ENCODING 20457
BBX 7 7 0 -1
BITMAP
5C
48
FE
6A
7E
7E
62
ENDCHAR
STARTCHAR uni4FEA
ENCODING 20458
BBX 7 7 0 -1
BITMAP
BE
80
BE
AA
BE
AA
AA
ENDCHAR
STARTCHAR uni4FEB
ENCODING 20459
BBX 7 7 0 -1
BITMAP
48
7E
EA
5C
7E
5C
6A
ENDCHAR
STARTCHAR uni4FEC
ENCODING 20460
BBX 7 7 0 -1
BITMAP
B4
E4
A4
F4
A4
FA
AE
ENDCHAR
STARTCHAR uni4FED
ENCODING 20461
BBX 7 7 0 -1
BITMAP
5C
62
DC
40
6A
54
7E
ENDCHAR
STARTCHAR uni4FEE
ENCODING 20462
BBX 7 7 0 -1
BITMAP
50
5E
F4
6A
64
42
4C
ENDCHAR
STARTCHAR uni4FEF
ENCODING 20463
BBX 7 7 0 -1
BITMAP
48
7E
D2
7E
56
52
56
ENDCHAR
STARTCHAR uni4FF0
ENCODING 20464
BBX 7 7 0 -1
BITMAP
78
D6
7E
56
7E
76
50
ENDCHAR
STARTCHAR uni4FF1
ENCODING 20465
BBX 7 7 0 -1
BITMAP
5C
54
DC
54
7E
40
54
ENDCHAR
STARTCHAR uni4FF2
ENCODING 20466
BBX 7 7 0 -1
BITMAP
54
7E
D6
6E
56
6E
4A
ENDCHAR
STARTCHAR uni4FF3
ENCODING 20467
BBX 7 7 0 -1
BITMAP
54
76
D4
76
54
76
54
ENDCHAR
STARTCHAR uni4FF4
ENCODING 20468
BBX 7 7 0 -1
BITMAP
54
4A
D6
40
54
4A
56
ENDCHAR
STARTCHAR uni4FF5
ENCODING 20469
BBX 7 7 0 -1
BITMAP
28
7E
C8
7C
5A
74
5A
ENDCHAR
STARTCHAR uni4FF6
ENCODING 20470
BBX 7 7 0 -1
BITMAP
36
5A
D2
7A
54
74
5A
ENDCHAR
STARTCHAR uni4FF7
ENCODING 20471
BBX 7 7 0 -1
BITMAP
7E
AA
BA
AE
B8
AA
DE
ENDCHAR
STARTCHAR uni4FF8
ENCODING 20472
BBX 7 7 0 -1
BITMAP
28
5C
FE
54
6A
5C
48
ENDCHAR
STARTCHAR uni4FF9
ENCODING 20473
BBX 7 7 0 -1
BITMAP
7E
54
F6
62
76
54
7E
ENDCHAR
STARTCHAR uni4FFA
ENCODING 20474
BBX 7 7 0 -1
BITMAP
48
7E
D4
6A
5C
5C
4E
ENDCHAR
STARTCHAR uni4FFB
ENCODING 20475
BBX 7 7 0 -1
BITMAP
5E
74
C8
76
5C
5C
5C
ENDCHAR
STARTCHAR uni4FFC
ENCODING 20476
BBX 7 7 0 -1
BITMAP
48
7E
D4
7E
54
5C
54
ENDCHAR
STARTCHAR uni4FFD
ENCODING 20477
BBX 7 7 0 -1
BITMAP
48
7E
CA
7E
54
54
5A
ENDCHAR
STARTCHAR uni4FFE
ENCODING 20478
BBX 7 7 0 -1
BITMAP
28
7E
EA
7E
54
7E
44
ENDCHAR
STARTCHAR uni4FFF
ENCODING 20479
BBX 7 7 0 -1
BITMAP
44
5E
D4
56
50
54
6A
ENDCHAR
STARTCHAR uni5000
ENCODING 20480
BBX 7 7 0 -1
BITMAP
5E
50
DE
50
7A
54
5A
ENDCHAR
STARTCHAR uni5001
ENCODING 20481
BBX 7 7 0 -1
BITMAP
60
FE
56
7E
56
56
68
ENDCHAR
STARTCHAR uni5002
ENCODING 20482
BBX 7 7 0 -1
BITMAP
54
40
FE
54
7E
54
54
ENDCHAR
STARTCHAR uni5003
ENCODING 20483
BBX 7 7 0 -1
BITMAP
54
6E
D4
6E
5C
54
5C
ENDCHAR
STARTCHAR uni5004
ENCODING 20484
BBX 7 7 0 -1
BITMAP
54
48
D4
48
76
5C
54
ENDCHAR
STARTCHAR uni5005
ENCODING 20485
BBX 7 7 0 -1
BITMAP
28
7E
D4
54
6A
7E
48
ENDCHAR
STARTCHAR uni5006
ENCODING 20486
BBX 7 7 0 -1
BITMAP
3E
48
FE
6A
7E
7E
6A
ENDCHAR
STARTCHAR uni5007
ENCODING 20487
BBX 7 7 0 -1
BITMAP
48
7E
E2
5E
6A
58
6E
ENDCHAR
STARTCHAR uni5008
ENCODING 20488
BBX 7 7 0 -1
BITMAP
48
7E
EA
5C
6A
54
62
ENDCHAR
STARTCHAR uni5009
ENCODING 20489
BBX 7 7 0 -1
BITMAP
38
D6
7C
44
7E
42
BE
ENDCHAR
STARTCHAR uni500A
ENCODING 20490
BBX 7 7 0 -1
BITMAP
54
6A
D4
5C
40
6A
5C
ENDCHAR
STARTCHAR uni500B
ENCODING 20491
BBX 7 7 0 -1
BITMAP
7E
AA
BE
AA
B6
AA
BE
ENDCHAR
STARTCHAR uni500C
ENCODING 20492
BBX 7 7 0 -1
BITMAP
48
7E
E2
58
58
54
5C
ENDCHAR
STARTCHAR uni500D
ENCODING 20493
BBX 7 7 0 -1
BITMAP
28
7E
D4
7E
5C
54
5C
ENDCHAR
STARTCHAR uni500E
ENCODING 20494
BBX 7 7 0 -1
BITMAP
48
5C
DC
5C
7E
40
54
ENDCHAR
STARTCHAR uni500F
ENCODING 20495
BBX 7 7 0 -1
BITMAP
2C
74
E8
74
7E
48
76
ENDCHAR
STARTCHAR uni5010
ENCODING 20496
BBX 7 7 0 -1
BITMAP
50
7E
C8
76
6A
48
76
ENDCHAR
STARTCHAR uni5011
ENCODING 20497
BBX 7 7 0 -1
BITMAP
7E
AA
BE
AA
BE
A2
A6
ENDCHAR
STARTCHAR uni5012
ENCODING 20498
BBX 7 7 0 -1
BITMAP
3A
56
E6
7E
52
7A
46
ENDCHAR
STARTCHAR uni5013
ENCODING 20499
BBX 7 7 0 -1
BITMAP
6A
48
F6
40
6A
48
76
ENDCHAR
STARTCHAR uni5014
ENCODING 20500
BBX 7 7 0 -1
BITMAP
7E
A2
BE
AA
BC
AA
DE
ENDCHAR
STARTCHAR uni5015
ENCODING 20501
BBX 7 7 0 -1
BITMAP
7E
88
BE
9C
BE
88
BE
ENDCHAR
STARTCHAR uni5016
ENCODING 20502
BBX 7 7 0 -1
BITMAP
28
5C
FE
54
7E
5C
48
ENDCHAR
STARTCHAR uni5017
ENCODING 20503
BBX 7 7 0 -1
BITMAP
7E
AA
BE
AA
BE
AA
D6
ENDCHAR
STARTCHAR uni5018
ENCODING 20504
BBX 7 7 0 -1
BITMAP
6A
88
BE
AA
BA
A2
A6
ENDCHAR
STARTCHAR uni5019
ENCODING 20505
BBX 7 7 0 -1
BITMAP
2C
64
FE
68
7E
64
5A
ENDCHAR
STARTCHAR uni501A
ENCODING 20506
BBX 7 7 0 -1
BITMAP
28
7E
C8
54
7E
44
54
ENDCHAR
STARTCHAR uni501B
ENCODING 20507
BBX 7 7 0 -1
BITMAP
54
BE
94
9C
BE
80
94
ENDCHAR
STARTCHAR uni501C
ENCODING 20508
BBX 7 7 0 -1
BITMAP
5E
52
D6
5A
56
5A
56
ENDCHAR
STARTCHAR uni501D
ENCODING 20509
BBX 7 8 0 -1
BITMAP
04
44
E4
44
A4
44
EA
4A
ENDCHAR
STARTCHAR uni501F
ENCODING 20511
BBX 7 7 0 -1
BITMAP
54
7E
D4
FE
5C
54
5C
ENDCHAR
STARTCHAR uni5021
ENCODING 20513
BBX 7 7 0 -1
BITMAP
5C
D4
7E
62
7E
62
7E
ENDCHAR
STARTCHAR uni5023
ENCODING 20515
BBX 7 7 0 -1
BITMAP
54
7E
D6
DE
5E
6C
6A
ENDCHAR
STARTCHAR uni5024
ENCODING 20516
BBX 6 7 1 -1
BITMAP
A4
68
FC
84
FC
84
8C
ENDCHAR
STARTCHAR uni5025
ENCODING 20517
BBX 7 7 0 -1
BITMAP
28
7E
F6
40
5C
48
7E
ENDCHAR
STARTCHAR uni5026
ENCODING 20518
BBX 7 7 0 -1
BITMAP
48
6E
B4
10
FE
10
EE
ENDCHAR
STARTCHAR uni5028
ENCODING 20520
BBX 7 7 0 -1
BITMAP
3E
5E
D4
5E
54
5A
6E
ENDCHAR
STARTCHAR uni5029
ENCODING 20521
BBX 7 7 0 -1
BITMAP
28
5C
C8
7E
54
5C
54
ENDCHAR
STARTCHAR uni502A
ENCODING 20522
BBX 7 7 0 -1
BITMAP
36
62
F6
62
7E
54
66
ENDCHAR
STARTCHAR uni502B
ENCODING 20523
BBX 7 7 0 -1
BITMAP
5C
F4
BC
FE
52
7A
C6
ENDCHAR
STARTCHAR uni502C
ENCODING 20524
BBX 7 7 0 -1
BITMAP
28
5E
D4
5C
54
7E
48
ENDCHAR
STARTCHAR uni502D
ENCODING 20525
BBX 7 7 0 -1
BITMAP
5C
7E
DC
EA
7E
54
7A
ENDCHAR
STARTCHAR uni502E
ENCODING 20526
BBX 7 7 0 -1
BITMAP
5E
5E
DE
48
7E
5C
6A
ENDCHAR
STARTCHAR uni5036
ENCODING 20534
BBX 7 7 0 -1
BITMAP
3C
54
DC
54
7E
40
62
ENDCHAR
STARTCHAR uni5039
ENCODING 20537
BBX 7 7 0 -1
BITMAP
28
54
FE
6A
7E
48
76
ENDCHAR
STARTCHAR uni503A
ENCODING 20538
BBX 7 7 0 -1
BITMAP
48
7E
C8
7E
5C
48
76
ENDCHAR
STARTCHAR uni503C
ENCODING 20540
BBX 7 7 0 -1
BITMAP
48
7E
D4
5C
5C
54
7E
ENDCHAR
STARTCHAR uni503E
ENCODING 20542
BBX 7 7 0 -1
BITMAP
4E
E4
7E
6A
7A
64
4A
ENDCHAR
STARTCHAR uni5043
ENCODING 20547
BBX 7 7 0 -1
BITMAP
3E
6C
EC
7A
64
6A
7E
ENDCHAR
STARTCHAR uni5047
ENCODING 20551
BBX 7 7 0 -1
BITMAP
76
B2
A6
BA
AA
B4
AA
ENDCHAR
STARTCHAR uni5048
ENCODING 20552
BBX 7 7 0 -1
BITMAP
3C
54
DC
5E
72
5A
46
ENDCHAR
STARTCHAR uni5049
ENCODING 20553
BBX 7 7 0 -1
BITMAP
28
5E
CA
7E
54
7E
44
ENDCHAR
STARTCHAR uni504C
ENCODING 20556
BBX 7 7 0 -1
BITMAP
54
FE
54
7E
5C
74
5C
ENDCHAR
STARTCHAR uni504E
ENCODING 20558
BBX 7 7 0 -1
BITMAP
5C
5C
FE
50
54
58
56
ENDCHAR
STARTCHAR uni504F
ENCODING 20559
BBX 7 7 0 -1
BITMAP
3E
54
DC
50
5E
6E
4A
ENDCHAR
STARTCHAR uni5050
ENCODING 20560
BBX 7 7 0 -1
BITMAP
28
7E
D4
7E
68
62
4C
ENDCHAR
STARTCHAR uni5055
ENCODING 20565
BBX 7 7 0 -1
BITMAP
24
76
E4
76
48
5C
5C
ENDCHAR
STARTCHAR uni5056
ENCODING 20566
BBX 7 7 0 -1
BITMAP
2A
5C
C8
7E
54
6E
4E
ENDCHAR
STARTCHAR uni505A
ENCODING 20570
BBX 7 7 0 -1
BITMAP
54
7E
D6
FE
6E
7C
4A
ENDCHAR
STARTCHAR uni505C
ENCODING 20572
BBX 7 7 0 -1
BITMAP
28
7E
D4
7E
5E
48
58
ENDCHAR
STARTCHAR uni5065
ENCODING 20581
BBX 7 7 0 -1
BITMAP
34
5E
EE
54
7E
54
6E
ENDCHAR
STARTCHAR uni506C
ENCODING 20588
BBX 7 7 0 -1
BITMAP
30
5E
EA
5A
44
72
6E
ENDCHAR
STARTCHAR uni5072
ENCODING 20594
BBX 7 7 0 -1
BITMAP
3E
6A
FE
7E
40
72
6E
ENDCHAR
STARTCHAR uni5074
ENCODING 20596
BBX 7 7 0 -1
BITMAP
3A
6E
FE
6E
7A
42
6A
ENDCHAR
STARTCHAR uni5075
ENCODING 20597
BBX 7 7 0 -1
BITMAP
28
4E
DC
54
5C
5C
62
ENDCHAR
STARTCHAR uni5076
ENCODING 20598
BBX 7 7 0 -1
BITMAP
3C
5C
C8
7E
6A
6E
7A
ENDCHAR
STARTCHAR uni5077
ENCODING 20599
BBX 7 7 0 -1
BITMAP
5C
A2
9C
BA
AA
BA
AA
ENDCHAR
STARTCHAR uni5078
ENCODING 20600
BBX 7 7 0 -1
BITMAP
38
54
EE
40
5A
5C
5A
ENDCHAR
STARTCHAR uni507B
ENCODING 20603
BBX 7 7 0 -1
BITMAP
6A
5C
EA
48
76
48
76
ENDCHAR
STARTCHAR uni507D
ENCODING 20605
BBX 7 7 0 -1
BITMAP
54
7C
CC
D4
7E
42
6A
ENDCHAR
STARTCHAR uni507E
ENCODING 20606
BBX 7 7 0 -1
BITMAP
48
7E
D4
7E
5C
5C
62
ENDCHAR
STARTCHAR uni507F
ENCODING 20607
BBX 7 7 0 -1
BITMAP
6A
48
FE
62
5C
48
5C
ENDCHAR
STARTCHAR uni5080
ENCODING 20608
BBX 7 7 0 -1
BITMAP
28
7E
EA
7E
6A
5C
6E
ENDCHAR
STARTCHAR uni5085
ENCODING 20613
BBX 7 7 0 -1
BITMAP
2A
7E
DC
54
7E
54
4C
ENDCHAR
STARTCHAR uni5088
ENCODING 20616
BBX 7 7 0 -1
BITMAP
7E
94
BE
B6
BE
9C
AA
ENDCHAR
STARTCHAR uni508D
ENCODING 20621
BBX 7 7 0 -1
BITMAP
28
7E
D4
7E
6A
4C
54
ENDCHAR
STARTCHAR uni5091
ENCODING 20625
BBX 7 7 0 -1
BITMAP
5A
6E
D6
EA
7E
5C
6A
ENDCHAR
STARTCHAR uni5098
ENCODING 20632
BBX 7 7 0 -1
BITMAP
10
28
D6
38
54
FE
10
ENDCHAR
STARTCHAR uni5099
ENCODING 20633
BBX 7 7 0 -1
BITMAP
54
7E
D4
FE
60
6E
4A
ENDCHAR
STARTCHAR uni509A
ENCODING 20634
BBX 7 7 0 -1
BITMAP
54
7E
EE
C6
6E
54
6A
ENDCHAR
STARTCHAR uni50A3
ENCODING 20643
BBX 7 7 0 -1
BITMAP
48
7E
C8
7E
54
6A
58
ENDCHAR
STARTCHAR uni50A5
ENCODING 20645
BBX 7 7 0 -1
BITMAP
54
7E
E2
5C
54
5C
66
ENDCHAR
STARTCHAR uni50A7
ENCODING 20647
BBX 7 7 0 -1
BITMAP
48
7E
E2
5C
54
7E
54
ENDCHAR
STARTCHAR uni50A8
ENCODING 20648
BBX 7 7 0 -1
BITMAP
A4
8E
E4
BE
AC
BE
8E
ENDCHAR
STARTCHAR uni50A9
ENCODING 20649
BBX 7 7 0 -1
BITMAP
54
7E
D4
6E
54
6E
48
ENDCHAR
STARTCHAR uni50AC
ENCODING 20652
BBX 7 7 0 -1
BITMAP
2A
7E
D4
5E
74
54
5E
ENDCHAR
STARTCHAR uni50AD
ENCODING 20653
BBX 7 7 0 -1
BITMAP
24
7E
EC
7E
76
7E
56
ENDCHAR
STARTCHAR uni50B2
ENCODING 20658
BBX 7 7 0 -1
BITMAP
54
7E
D6
FE
56
5C
6A
ENDCHAR
STARTCHAR uni50B3
ENCODING 20659
BBX 7 7 0 -1
BITMAP
28
7E
DC
5A
7E
54
4C
ENDCHAR
STARTCHAR uni50B4
ENCODING 20660
BBX 7 7 0 -1
BITMAP
5E
D6
56
50
5A
5A
5E
ENDCHAR
STARTCHAR uni50B5
ENCODING 20661
BBX 7 7 0 -1
BITMAP
28
5C
C8
7E
5C
5C
62
ENDCHAR
STARTCHAR uni50B7
ENCODING 20663
BBX 7 7 0 -1
BITMAP
30
5E
F4
5C
5E
6A
56
ENDCHAR
STARTCHAR uni50B8
ENCODING 20664
BBX 7 7 0 -1
BITMAP
48
BE
DA
AC
DA
88
B6
ENDCHAR
STARTCHAR uni50BA
ENCODING 20666
BBX 7 7 0 -1
BITMAP
56
6A
D4
62
5C
48
6A
ENDCHAR
STARTCHAR uni50BB
ENCODING 20667
BBX 7 7 0 -1
BITMAP
50
BE
AA
9C
B6
88
B6
ENDCHAR
STARTCHAR uni50BE
ENCODING 20670
BBX 7 7 0 -1
BITMAP
2E
64
FE
6A
6E
70
4A
ENDCHAR
STARTCHAR uni50C2
ENCODING 20674
BBX 7 7 0 -1
BITMAP
28
5C
F6
5C
7E
54
7A
ENDCHAR
STARTCHAR uni50C5
ENCODING 20677
BBX 7 7 0 -1
BITMAP
54
7E
D4
FE
7E
48
7E
ENDCHAR
STARTCHAR uni50C9
ENCODING 20681
BBX 7 7 0 -1
BITMAP
10
28
FE
AA
EE
44
AA
ENDCHAR
STARTCHAR uni50CA
ENCODING 20682
BBX 7 7 0 -1
BITMAP
3E
5C
FE
54
6A
50
5C
ENDCHAR
STARTCHAR uni50CD
ENCODING 20685
BBX 7 7 0 -1
BITMAP
34
5E
F6
76
56
7A
4A
ENDCHAR
STARTCHAR uni50CF
ENCODING 20687
BBX 7 7 0 -1
BITMAP
4C
D4
7E
6A
5E
6C
5A
ENDCHAR
STARTCHAR uni50D1
ENCODING 20689
BBX 7 7 0 -1
BITMAP
5C
7E
D4
EA
7E
62
6A
ENDCHAR
STARTCHAR uni50D5
ENCODING 20693
BBX 7 7 0 -1
BITMAP
2A
7E
D4
7E
5C
48
76
ENDCHAR
STARTCHAR uni50D6
ENCODING 20694
BBX 7 7 0 -1
BITMAP
28
7E
DC
54
7E
54
5C
ENDCHAR
STARTCHAR uni50DA
ENCODING 20698
BBX 7 7 0 -1
BITMAP
28
7E
D4
7E
54
48
6A
ENDCHAR
STARTCHAR uni50DE
ENCODING 20702
BBX 7 7 0 -1
BITMAP
3C
6A
DC
54
7E
42
6A
ENDCHAR
STARTCHAR uni50E3
ENCODING 20707
BBX 7 7 0 -1
BITMAP
54
7E
D4
EA
5C
54
5C
ENDCHAR
STARTCHAR uni50E5
ENCODING 20709
BBX 7 7 0 -1
BITMAP
28
5C
FE
76
7E
54
66
ENDCHAR
STARTCHAR uni50E6
ENCODING 20710
BBX 7 7 0 -1
BITMAP
54
7E
D4
6C
54
7C
56
ENDCHAR
STARTCHAR uni50E7
ENCODING 20711
BBX 7 7 0 -1
BITMAP
54
7E
EA
FE
5C
54
5C
ENDCHAR
STARTCHAR uni50EC
ENCODING 20716
BBX 7 7 0 -1
BITMAP
54
DE
74
5E
54
5E
6A
ENDCHAR
STARTCHAR uni50ED
ENCODING 20717
BBX 7 7 0 -1
BITMAP
54
5E
FE
D4
6A
5C
5C
ENDCHAR
STARTCHAR uni50EE
ENCODING 20718
BBX 7 7 0 -1
BITMAP
28
7E
D4
7E
5C
48
7E
ENDCHAR
STARTCHAR uni50F3
ENCODING 20723
BBX 7 7 0 -1
BITMAP
7E
5C
DC
48
6A
5C
6A
ENDCHAR
STARTCHAR uni50F5
ENCODING 20725
BBX 7 7 0 -1
BITMAP
7E
5C
DC
7E
5C
5C
7E
ENDCHAR
STARTCHAR uni50F9
ENCODING 20729
BBX 7 7 0 -1
BITMAP
7E
5C
C0
5C
5C
5C
62
ENDCHAR
STARTCHAR uni50FB
ENCODING 20731
BBX 7 7 0 -1
BITMAP
24
7E
FA
6E
74
7E
44
ENDCHAR
STARTCHAR uni5100
ENCODING 20736
BBX 7 7 0 -1
BITMAP
54
7E
C8
FE
56
7C
52
ENDCHAR
STARTCHAR uni5101
ENCODING 20737
BBX 7 7 0 -1
BITMAP
54
5E
F4
DE
76
6A
62
ENDCHAR
STARTCHAR uni5102
ENCODING 20738
BBX 7 7 0 -1
BITMAP
54
7E
FE
40
7E
74
5A
ENDCHAR
STARTCHAR uni5104
ENCODING 20740
BBX 7 7 0 -1
BITMAP
28
7E
D4
7E
5C
72
6E
ENDCHAR
STARTCHAR uni5106
ENCODING 20742
BBX 7 7 0 -1
BITMAP
A8
FE
AA
DA
B4
94
BA
ENDCHAR
STARTCHAR uni5107
ENCODING 20743
BBX 7 7 0 -1
BITMAP
5C
5C
FE
54
7E
54
5A
ENDCHAR
STARTCHAR uni5109
ENCODING 20745
BBX 7 7 0 -1
BITMAP
28
54
FE
6A
7E
54
6A
ENDCHAR
STARTCHAR uni510B
ENCODING 20747
BBX 7 7 0 -1
BITMAP
58
6E
D4
5E
50
5E
6E
ENDCHAR
STARTCHAR uni5112
ENCODING 20754
BBX 7 7 0 -1
BITMAP
5C
7E
EA
DC
48
7E
6A
ENDCHAR
STARTCHAR uni5114
ENCODING 20756
BBX 7 7 0 -1
BITMAP
28
5C
FE
48
7E
74
4C
ENDCHAR
STARTCHAR uni5115
ENCODING 20757
BBX 7 7 0 -1
BITMAP
28
7E
D4
6A
54
5C
64
ENDCHAR
STARTCHAR uni5116
ENCODING 20758
BBX 7 7 0 -1
BITMAP
34
66
E0
76
40
5C
7E
ENDCHAR
STARTCHAR uni5118
ENCODING 20760
BBX 7 7 0 -1
BITMAP
28
5C
CE
5C
6A
5C
7E
ENDCHAR
STARTCHAR uni511A
ENCODING 20762
BBX 7 7 0 -1
BITMAP
54
7E
DC
FE
6E
44
58
ENDCHAR
STARTCHAR uni511F
ENCODING 20767
BBX 7 7 0 -1
BITMAP
2A
5C
F6
5C
5C
5C
62
ENDCHAR
STARTCHAR uni5121
ENCODING 20769
BBX 7 7 0 -1
BITMAP
5C
5C
DC
40
76
76
76
ENDCHAR
STARTCHAR uni512A
ENCODING 20778
BBX 7 7 0 -1
BITMAP
3E
5C
DC
7E
76
48
76
ENDCHAR
STARTCHAR uni5132
ENCODING 20786
BBX 7 7 0 -1
BITMAP
24
7E
C4
6E
48
76
76
ENDCHAR
STARTCHAR uni5137
ENCODING 20791
BBX 7 7 0 -1
BITMAP
36
6A
FE
6C
7E
64
76
ENDCHAR
STARTCHAR uni513A
ENCODING 20794
BBX 7 7 0 -1
BITMAP
2A
7C
D6
7C
7E
54
6E
ENDCHAR
STARTCHAR uni513B
ENCODING 20795
BBX 7 7 0 -1
BITMAP
2A
7E
EA
5C
7E
40
6A
ENDCHAR
STARTCHAR uni513C
ENCODING 20796
BBX 7 7 0 -1
BITMAP
36
7E
F4
7E
7A
7C
6A
ENDCHAR
STARTCHAR uni513F
ENCODING 20799
BBX 7 7 0 -1
BITMAP
28
28
28
28
28
4A
8E
ENDCHAR
STARTCHAR uni5140
ENCODING 20800
BBX 7 7 0 -1
BITMAP
FE
28
28
28
28
4A
8E
ENDCHAR
STARTCHAR uni5141
ENCODING 20801
BBX 7 7 0 -1
BITMAP
10
24
FA
28
28
4A
8E
ENDCHAR
STARTCHAR uni5142
ENCODING 20802
BBX 7 7 0 -1
BITMAP
10
FE
50
7E
10
2A
CE
ENDCHAR
STARTCHAR uni5143
ENCODING 20803
BBX 7 7 0 -1
BITMAP
7C
00
FE
28
28
4A
8E
ENDCHAR
STARTCHAR uni5144
ENCODING 20804
BBX 7 7 0 -1
BITMAP
7C
44
44
7C
28
2A
CE
ENDCHAR
STARTCHAR uni5145
ENCODING 20805
BBX 7 7 0 -1
BITMAP
10
FE
28
74
28
2A
CE
ENDCHAR
STARTCHAR uni5146
ENCODING 20806
BBX 7 7 0 -1
BITMAP
28
AA
6C
2C
EA
28
CE
ENDCHAR
STARTCHAR uni5147
ENCODING 20807
BBX 7 7 0 -1
BITMAP
6C
54
6C
44
7C
2A
CE
ENDCHAR
STARTCHAR uni5148
ENCODING 20808
BBX 7 7 0 -1
BITMAP
50
7C
90
FE
28
2A
CE
ENDCHAR
STARTCHAR uni5149
ENCODING 20809
BBX 7 7 0 -1
BITMAP
92
54
10
FE
28
2A
CE
ENDCHAR
STARTCHAR uni514A
ENCODING 20810
BBX 7 7 0 -1
BITMAP
44
92
24
7C
28
2A
CE
ENDCHAR
STARTCHAR uni514B
ENCODING 20811
BBX 7 7 0 -1
BITMAP
10
FE
7C
44
7C
2A
CE
ENDCHAR
STARTCHAR uni514C
ENCODING 20812
BBX 7 7 0 -1
BITMAP
28
44
FE
44
7C
2A
CE
ENDCHAR
STARTCHAR uni514D
ENCODING 20813
BBX 7 7 0 -1
BITMAP
38
C8
7C
54
7C
2A
CE
ENDCHAR
STARTCHAR uni514E
ENCODING 20814
BBX 7 7 0 -1
BITMAP
FC
10
7C
54
7C
2A
CE
ENDCHAR
STARTCHAR uni514F
ENCODING 20815
BBX 7 7 0 -1
BITMAP
7E
48
4E
48
7E
54
E6
ENDCHAR
STARTCHAR uni5150
ENCODING 20816
BBX 7 7 0 -1
BITMAP
5C
54
5C
54
5C
2A
CE
ENDCHAR
STARTCHAR uni5151
ENCODING 20817
BBX 7 7 0 -1
BITMAP
44
28
7C
44
7C
28
CE
ENDCHAR
STARTCHAR uni5152
ENCODING 20818
BBX 7 7 0 -1
BITMAP
2C
44
6C
44
7C
2A
CE
ENDCHAR
STARTCHAR uni5153
ENCODING 20819
BBX 7 7 0 -1
BITMAP
EE
44
D4
FE
4C
54
A6
ENDCHAR
STARTCHAR uni5154
ENCODING 20820
BBX 7 7 0 -1
BITMAP
38
C8
7E
52
7E
34
DE
ENDCHAR
STARTCHAR uni5155
ENCODING 20821
BBX 7 7 0 -1
BITMAP
EE
BA
82
FE
28
2A
CE
ENDCHAR
STARTCHAR uni5156
ENCODING 20822
BBX 7 7 0 -1
BITMAP
10
FE
54
AA
7C
2A
CE
ENDCHAR
STARTCHAR uni515A
ENCODING 20826
BBX 7 7 0 -1
BITMAP
54
FE
BA
28
38
2A
CE
ENDCHAR
STARTCHAR uni515C
ENCODING 20828
BBX 7 7 0 -1
BITMAP
56
AA
BA
AA
FE
28
CE
ENDCHAR
STARTCHAR uni5162
ENCODING 20834
BBX 7 7 0 -1
BITMAP
24
FE
24
5A
7E
6C
B6
ENDCHAR
STARTCHAR uni5165
ENCODING 20837
BBX 7 7 0 -1
BITMAP
70
10
10
10
28
44
82
ENDCHAR
STARTCHAR uni5166
ENCODING 20838
BBX 7 7 0 -1
BITMAP
90
88
88
94
A2
80
FE
ENDCHAR
STARTCHAR uni5167
ENCODING 20839
BBX 7 7 0 -1
BITMAP
20
10
FE
92
92
AA
C6
ENDCHAR
STARTCHAR uni5168
ENCODING 20840
BBX 7 7 0 -1
BITMAP
38
C6
7C
10
7C
10
FE
ENDCHAR
STARTCHAR uni5169
ENCODING 20841
BBX 7 7 0 -1
BITMAP
FE
10
FE
DA
DA
B6
92
ENDCHAR
STARTCHAR uni516A
ENCODING 20842
BBX 7 7 0 -1
BITMAP
70
28
DE
00
EA
F4
AA
ENDCHAR
STARTCHAR uni516B
ENCODING 20843
BBX 7 7 0 -1
BITMAP
28
28
28
28
44
44
82
ENDCHAR
STARTCHAR uni516C
ENCODING 20844
BBX 7 7 0 -1
BITMAP
28
28
44
92
10
24
FA
ENDCHAR
STARTCHAR uni516D
ENCODING 20845
BBX 7 7 0 -1
BITMAP
10
FE
00
28
28
44
82
ENDCHAR
STARTCHAR uni516E
ENCODING 20846
BBX 7 7 0 -1
BITMAP
28
44
FA
20
3C
04
0C
ENDCHAR
STARTCHAR uni516F
ENCODING 20847
BBX 7 7 0 -1
BITMAP
44
28
FE
22
22
2E
20
ENDCHAR
STARTCHAR uni5170
ENCODING 20848
BBX 7 7 0 -1
BITMAP
44
28
FE
00
7C
00
FE
ENDCHAR
STARTCHAR uni5171
ENCODING 20849
BBX 7 7 0 -1
BITMAP
44
FE
44
44
FE
00
C6
ENDCHAR
STARTCHAR uni5172
ENCODING 20850
BBX 7 7 0 -1
BITMAP
FE
10
FE
10
FE
44
82
ENDCHAR
STARTCHAR uni5173
ENCODING 20851
BBX 7 7 0 -1
BITMAP
44
00
FE
10
FE
28
C6
ENDCHAR
STARTCHAR uni5174
ENCODING 20852
BBX 7 7 0 -1
BITMAP
22
92
44
FE
00
44
82
ENDCHAR
STARTCHAR uni5175
ENCODING 20853
BBX 7 7 0 -1
BITMAP
7C
40
7C
48
FE
44
82
ENDCHAR
STARTCHAR uni5176
ENCODING 20854
BBX 7 7 0 -1
BITMAP
28
FE
28
38
FE
00
C6
ENDCHAR
STARTCHAR uni5177
ENCODING 20855
BBX 7 7 0 -1
BITMAP
7C
44
7C
44
FE
00
C6
ENDCHAR
STARTCHAR uni5178
ENCODING 20856
BBX 7 7 0 -1
BITMAP
28
7C
6C
7C
FE
00
C6
ENDCHAR
STARTCHAR uni5179
ENCODING 20857
BBX 7 7 0 -1
BITMAP
28
FE
44
AA
44
AA
EE
ENDCHAR
STARTCHAR uni517B
ENCODING 20859
BBX 7 7 0 -1
BITMAP
24
FE
10
FE
44
AA
28
ENDCHAR
STARTCHAR uni517C
ENCODING 20860
BBX 7 7 0 -1
BITMAP
28
FE
2C
7C
28
7C
AA
ENDCHAR
STARTCHAR uni517D
ENCODING 20861
BBX 7 7 0 -1
BITMAP
28
54
7C
54
FE
44
7C
ENDCHAR
STARTCHAR uni5180
ENCODING 20864
BBX 7 7 0 -1
BITMAP
28
EE
28
FE
38
FE
44
ENDCHAR
STARTCHAR uni5181
ENCODING 20865
BBX 7 7 0 -1
BITMAP
AE
0E
EE
AC
4A
F4
5A
ENDCHAR
STARTCHAR uni5182
ENCODING 20866
BBX 7 7 0 -1
BITMAP
FE
82
82
82
82
82
86
ENDCHAR
STARTCHAR uni5183
ENCODING 20867
BBX 7 7 0 -1
BITMAP
FE
82
BA
82
BA
82
86
ENDCHAR
STARTCHAR uni5184
ENCODING 20868
BBX 7 7 0 -1
BITMAP
7C
44
FE
44
FE
44
4C
ENDCHAR
STARTCHAR uni5185
ENCODING 20869
BBX 7 7 0 -1
BITMAP
10
FE
92
AA
C6
82
86
ENDCHAR
STARTCHAR uni5186
ENCODING 20870
BBX 7 7 0 -1
BITMAP
FE
92
92
FE
82
82
86
ENDCHAR
STARTCHAR uni5187
ENCODING 20871
BBX 7 7 0 -1
BITMAP
20
FE
20
7C
A4
24
2C
ENDCHAR
STARTCHAR uni5188
ENCODING 20872
BBX 7 7 0 -1
BITMAP
FE
82
AA
92
AA
82
86
ENDCHAR
STARTCHAR uni5189
ENCODING 20873
BBX 7 7 0 -1
BITMAP
10
7C
54
7C
54
FE
44
ENDCHAR
STARTCHAR uni518A
ENCODING 20874
BBX 7 7 0 -1
BITMAP
FE
AA
AA
FE
AA
AA
82
ENDCHAR
STARTCHAR uni518B
ENCODING 20875
BBX 7 7 0 -1
BITMAP
FE
82
BA
AA
BA
82
86
ENDCHAR
STARTCHAR uni518C
ENCODING 20876
BBX 7 7 0 -1
BITMAP
7C
54
54
FE
54
54
AC
ENDCHAR
STARTCHAR uni518D
ENCODING 20877
BBX 7 7 0 -1
BITMAP
FE
54
7C
54
FE
44
4C
ENDCHAR
STARTCHAR uni518E
ENCODING 20878
BBX 7 7 0 -1
BITMAP
7C
44
74
54
FE
82
86
ENDCHAR
STARTCHAR uni518F
ENCODING 20879
BBX 7 7 0 -1
BITMAP
FE
AA
CE
BA
AA
BA
86
ENDCHAR
STARTCHAR uni5190
ENCODING 20880
BBX 7 7 0 -1
BITMAP
FE
82
BA
7C
44
7C
44
ENDCHAR
STARTCHAR uni5191
ENCODING 20881
BBX 7 7 0 -1
BITMAP
10
FE
92
FE
44
5C
44
ENDCHAR
STARTCHAR uni5192
ENCODING 20882
BBX 7 7 0 -1
BITMAP
FE
82
FE
44
7C
44
7C
ENDCHAR
STARTCHAR uni5193
ENCODING 20883
BBX 7 7 0 -1
BITMAP
28
FE
28
FE
54
FE
44
ENDCHAR
STARTCHAR uni5194
ENCODING 20884
BBX 7 7 0 -1
BITMAP
FE
BA
00
78
EE
A4
EC
ENDCHAR
STARTCHAR uni5195
ENCODING 20885
BBX 7 7 0 -1
BITMAP
7C
44
3C
D4
7C
2A
CE
ENDCHAR
STARTCHAR uni5196
ENCODING 20886
BBX 7 2 0 2
BITMAP
FE
82
ENDCHAR
STARTCHAR uni5197
ENCODING 20887
BBX 7 7 0 -1
BITMAP
FE
82
38
28
28
4A
8E
ENDCHAR
STARTCHAR uni5198
ENCODING 20888
BBX 7 7 0 -1
BITMAP
10
FE
92
10
28
4A
8E
ENDCHAR
STARTCHAR uni5199
ENCODING 20889
BBX 7 7 0 -1
BITMAP
FE
A2
3C
20
3C
04
F4
ENDCHAR
STARTCHAR uni519B
ENCODING 20891
BBX 7 7 0 -1
BITMAP
FE
A2
7C
38
08
FE
08
ENDCHAR
STARTCHAR uni519C
ENCODING 20892
BBX 7 7 0 -1
BITMAP
10
FE
92
34
68
A4
32
ENDCHAR
STARTCHAR uni519D
ENCODING 20893
BBX 7 7 0 -1
BITMAP
FE
82
7C
44
7C
44
FE
ENDCHAR
STARTCHAR uni519E
ENCODING 20894
BBX 7 7 0 -1
BITMAP
FE
92
54
10
FE
54
92
ENDCHAR
STARTCHAR uni51A0
ENCODING 20896
BBX 7 7 0 -1
BITMAP
FE
82
64
0E
F4
6C
BE
ENDCHAR
STARTCHAR uni51A2
ENCODING 20898
BBX 7 7 0 -1
BITMAP
FE
BA
30
DA
2C
CA
30
ENDCHAR
STARTCHAR uni51A4
ENCODING 20900
BBX 7 7 0 -1
BITMAP
FE
BA
3C
D4
7C
2A
CE
ENDCHAR
STARTCHAR uni51A5
ENCODING 20901
BBX 7 7 0 -1
BITMAP
FE
BA
28
38
FE
00
C6
ENDCHAR
STARTCHAR uni51A6
ENCODING 20902
BBX 7 7 0 -1
BITMAP
FE
86
6C
0A
E4
6A
BE
ENDCHAR
STARTCHAR uni51A8
ENCODING 20904
BBX 7 7 0 -1
BITMAP
FE
BA
28
38
7C
54
7C
ENDCHAR
STARTCHAR uni51A9
ENCODING 20905
BBX 7 7 0 -1
BITMAP
FE
82
6C
44
7E
82
56
ENDCHAR
STARTCHAR uni51AA
ENCODING 20906
BBX 7 7 0 -1
BITMAP
FE
AA
7C
28
FE
7C
92
ENDCHAR
STARTCHAR uni51AB
ENCODING 20907
BBX 4 7 1 -1
BITMAP
80
40
00
10
20
40
80
ENDCHAR
STARTCHAR uni51AC
ENCODING 20908
BBX 7 7 0 -1
BITMAP
20
7C
A8
10
EE
00
38
ENDCHAR
STARTCHAR uni51AD
ENCODING 20909
BBX 8 7 0 -1
BITMAP
10
FF
28
C6
30
00
38
ENDCHAR
STARTCHAR uni51AE
ENCODING 20910
BBX 7 7 0 -1
BITMAP
9C
48
08
08
48
88
BE
ENDCHAR
STARTCHAR uni51AF
ENCODING 20911
BBX 7 7 0 -1
BITMAP
BC
94
14
1E
82
BA
86
ENDCHAR
STARTCHAR uni51B0
ENCODING 20912
BBX 7 7 0 -1
BITMAP
88
0A
3C
18
AC
8A
98
ENDCHAR
STARTCHAR uni51B1
ENCODING 20913
BBX 7 7 0 -1
BITMAP
BE
48
0E
12
5C
84
BE
ENDCHAR
STARTCHAR uni51B2
ENCODING 20914
BBX 7 7 0 -1
BITMAP
88
3E
2A
2A
BE
88
88
ENDCHAR
STARTCHAR uni51B3
ENCODING 20915
BBX 7 7 0 -1
BITMAP
90
BC
14
7E
10
90
AC
ENDCHAR
STARTCHAR uni51B4
ENCODING 20916
BBX 7 7 0 -1
BITMAP
BE
14
14
3E
8C
B4
8C
ENDCHAR
STARTCHAR uni51B5
ENCODING 20917
BBX 7 7 0 -1
BITMAP
BE
22
22
3E
94
94
A6
ENDCHAR
STARTCHAR uni51B6
ENCODING 20918
BBX 7 7 0 -1
BITMAP
90
24
3A
00
BC
A4
BC
ENDCHAR
STARTCHAR uni51B7
ENCODING 20919
BBX 7 7 0 -1
BITMAP
9C
A2
08
3E
04
88
84
ENDCHAR
STARTCHAR uni51BB
ENCODING 20923
BBX 7 7 0 -1
BITMAP
88
BE
14
3E
04
B6
8C
ENDCHAR
STARTCHAR uni51BC
ENCODING 20924
BBX 7 7 0 -1
BITMAP
A8
BE
08
3E
94
94
A6
ENDCHAR
STARTCHAR uni51BD
ENCODING 20925
BBX 7 7 0 -1
BITMAP
BA
16
1E
2E
9A
92
A6
ENDCHAR
STARTCHAR uni51C0
ENCODING 20928
BBX 7 7 0 -1
BITMAP
98
A8
14
7E
94
BC
90
ENDCHAR
STARTCHAR uni51C4
ENCODING 20932
BBX 7 7 0 -1
BITMAP
88
3E
0C
1C
BE
94
BA
ENDCHAR
STARTCHAR uni51C5
ENCODING 20933
BBX 7 7 0 -1
BITMAP
BE
2A
3E
2A
B6
AA
BE
ENDCHAR
STARTCHAR uni51C6
ENCODING 20934
BBX 7 7 0 -1
BITMAP
94
1E
34
1E
54
94
9E
ENDCHAR
STARTCHAR uni51C7
ENCODING 20935
BBX 7 7 0 -1
BITMAP
AA
AA
70
24
74
EA
AE
ENDCHAR
STARTCHAR uni51C9
ENCODING 20937
BBX 7 7 0 -1
BITMAP
88
3E
14
1C
88
AA
98
ENDCHAR
STARTCHAR uni51CB
ENCODING 20939
BBX 7 7 0 -1
BITMAP
BE
2A
3E
2A
B6
BE
A2
ENDCHAR
STARTCHAR uni51CC
ENCODING 20940
BBX 7 7 0 -1
BITMAP
88
1C
08
3E
94
A8
96
ENDCHAR
STARTCHAR uni51CD
ENCODING 20941
BBX 7 7 0 -1
BITMAP
88
3E
1C
1C
48
9C
AA
ENDCHAR
STARTCHAR uni51CE
ENCODING 20942
BBX 7 7 0 -1
BITMAP
9C
A2
1C
08
BE
9C
BE
ENDCHAR
STARTCHAR uni51CF
ENCODING 20943
BBX 7 7 0 -1
BITMAP
84
7E
44
7C
46
F4
B2
ENDCHAR
STARTCHAR uni51D1
ENCODING 20945
BBX 7 7 0 -1
BITMAP
88
BE
14
2A
9C
88
36
ENDCHAR
STARTCHAR uni51D6
ENCODING 20950
BBX 7 7 0 -1
BITMAP
94
1E
34
9E
10
FE
10
ENDCHAR
STARTCHAR uni51DB
ENCODING 20955
BBX 7 7 0 -1
BITMAP
88
3E
14
1C
BE
88
AA
ENDCHAR
STARTCHAR uni51DC
ENCODING 20956
BBX 7 7 0 -1
BITMAP
88
3E
14
1C
BE
9C
AA
ENDCHAR
STARTCHAR uni51DD
ENCODING 20957
BBX 7 7 0 -1
BITMAP
A6
3A
26
1C
BE
94
AA
ENDCHAR
STARTCHAR uni51E0
ENCODING 20960
BBX 7 7 0 -1
BITMAP
7C
44
44
44
44
44
86
ENDCHAR
STARTCHAR uni51E1
ENCODING 20961
BBX 7 7 0 -1
BITMAP
7C
44
64
54
54
44
86
ENDCHAR
STARTCHAR uni51E2
ENCODING 20962
BBX 7 7 0 -1
BITMAP
10
20
78
48
48
4A
8E
ENDCHAR
STARTCHAR uni51E4
ENCODING 20964
BBX 7 7 0 -1
BITMAP
FC
84
BC
AC
94
AC
82
ENDCHAR
STARTCHAR uni51E5
ENCODING 20965
BBX 7 7 0 -1
BITMAP
FE
82
FE
80
B8
AA
AE
ENDCHAR
STARTCHAR uni51E6
ENCODING 20966
BBX 7 7 0 -1
BITMAP
40
7C
54
D4
26
50
8E
ENDCHAR
STARTCHAR uni51E7
ENCODING 20967
BBX 7 7 0 -1
BITMAP
7C
44
54
7C
7C
54
96
ENDCHAR
STARTCHAR uni51E9
ENCODING 20969
BBX 7 7 0 -1
BITMAP
7C
44
54
7C
54
7C
96
ENDCHAR
STARTCHAR uni51EA
ENCODING 20970
BBX 7 7 0 -1
BITMAP
FC
84
94
DC
D4
FC
86
ENDCHAR
STARTCHAR uni51EB
ENCODING 20971
BBX 7 7 0 -1
BITMAP
20
FC
94
FE
02
74
9C
ENDCHAR
STARTCHAR uni51ED
ENCODING 20973
BBX 7 7 0 -1
BITMAP
24
58
FE
48
3C
28
CE
ENDCHAR
STARTCHAR uni51EE
ENCODING 20974
BBX 7 7 0 -1
BITMAP
FC
84
F4
A4
F4
D4
F6
ENDCHAR
STARTCHAR uni51EF
ENCODING 20975
BBX 7 7 0 -1
BITMAP
AC
F4
14
D4
54
94
D6
ENDCHAR
STARTCHAR uni51F0
ENCODING 20976
BBX 7 7 0 -1
BITMAP
7C
54
7C
6C
7C
54
BA
ENDCHAR
STARTCHAR uni51F1
ENCODING 20977
BBX 7 7 0 -1
BITMAP
AE
FA
0A
FA
5A
2A
F2
ENDCHAR
STARTCHAR uni51F3
ENCODING 20979
BBX 7 7 0 -1
BITMAP
AA
44
BA
44
FE
28
CE
ENDCHAR
STARTCHAR uni51F4
ENCODING 20980
BBX 7 7 0 -1
BITMAP
9E
14
9E
AA
00
38
CE
ENDCHAR
STARTCHAR uni51F5
ENCODING 20981
BBX 7 7 0 -1
BITMAP
82
82
82
82
82
82
FE
ENDCHAR
STARTCHAR uni51F6
ENCODING 20982
BBX 7 7 0 -1
BITMAP
82
82
AA
92
AA
82
FE
ENDCHAR
STARTCHAR uni51F7
ENCODING 20983
BBX 7 7 0 -1
BITMAP
10
92
BA
92
BA
82
FE
ENDCHAR
STARTCHAR uni51F8
ENCODING 20984
BBX 7 7 0 -1
BITMAP
38
28
28
EE
82
82
FE
ENDCHAR
STARTCHAR uni51F9
ENCODING 20985
BBX 7 7 0 -1
BITMAP
EE
AA
AA
BA
82
82
FE
ENDCHAR
STARTCHAR uni51FA
ENCODING 20986
BBX 7 7 0 -1
BITMAP
10
54
54
7C
92
92
FE
ENDCHAR
STARTCHAR uni51FB
ENCODING 20987
BBX 7 7 0 -1
BITMAP
10
7C
10
FE
10
54
7C
ENDCHAR
STARTCHAR uni51FC
ENCODING 20988
BBX 7 7 0 -1
BITMAP
92
F6
BA
D6
92
B2
FE
ENDCHAR
STARTCHAR uni51FD
ENCODING 20989
BBX 7 7 0 -1
BITMAP
FE
20
B2
D6
BA
D6
FE
ENDCHAR
STARTCHAR uni51FE
ENCODING 20990
BBX 7 7 0 -1
BITMAP
7C
08
9A
F6
DA
F6
FE
ENDCHAR
STARTCHAR uni51FF
ENCODING 20991
BBX 7 7 0 -1
BITMAP
AA
FE
28
92
BA
92
FE
ENDCHAR
STARTCHAR uni5200
ENCODING 20992
BBX 7 7 0 -1
BITMAP
FE
12
12
22
22
42
86
ENDCHAR
STARTCHAR uni5201
ENCODING 20993
BBX 6 7 1 -1
BITMAP
FC
04
14
24
44
84
0C
ENDCHAR
STARTCHAR uni5202
ENCODING 20994
BBX 3 7 3 -1
BITMAP
20
A0
A0
A0
A0
20
60
ENDCHAR
STARTCHAR uni5203
ENCODING 20995
BBX 7 7 0 -1
BITMAP
FE
12
12
72
2A
42
86
ENDCHAR
STARTCHAR uni5204
ENCODING 20996
BBX 7 7 0 -1
BITMAP
FE
12
52
32
2E
42
86
ENDCHAR
STARTCHAR uni5205
ENCODING 20997
BBX 7 7 0 -1
BITMAP
F8
28
28
AA
AA
28
D8
ENDCHAR
STARTCHAR uni5206
ENCODING 20998
BBX 7 7 0 -1
BITMAP
28
28
44
BE
14
24
CC
ENDCHAR
STARTCHAR uni5207
ENCODING 20999
BBX 7 7 0 -1
BITMAP
5E
4A
EA
4A
4A
6A
16
ENDCHAR
STARTCHAR uni5208
ENCODING 21000
BBX 7 7 0 -1
BITMAP
22
AA
AA
4A
4A
A2
A6
ENDCHAR
STARTCHAR uni5209
ENCODING 21001
BBX 7 7 0 -1
BITMAP
42
F2
0A
EA
4A
92
F6
ENDCHAR
STARTCHAR uni520A
ENCODING 21002
BBX 7 7 0 -1
BITMAP
72
2A
2A
FA
22
22
26
ENDCHAR
STARTCHAR uni520B
ENCODING 21003
BBX 7 7 0 -1
BITMAP
22
C2
4A
EA
4A
42
86
ENDCHAR
STARTCHAR uni520C
ENCODING 21004
BBX 7 7 0 -1
BITMAP
22
F2
2A
AA
6A
22
66
ENDCHAR
STARTCHAR uni520D
ENCODING 21005
BBX 7 7 0 -1
BITMAP
3C
C4
7E
02
3E
02
7E
ENDCHAR
STARTCHAR uni520E
ENCODING 21006
BBX 7 7 0 -1
BITMAP
42
7A
9A
2A
5A
AA
5A
ENDCHAR
STARTCHAR uni5211
ENCODING 21009
BBX 7 7 0 -1
BITMAP
FA
56
56
FE
52
52
96
ENDCHAR
STARTCHAR uni5212
ENCODING 21010
BBX 7 7 0 -1
BITMAP
52
42
F6
46
56
22
D6
ENDCHAR
STARTCHAR uni5214
ENCODING 21012
BBX 7 7 0 -1
BITMAP
42
F2
56
F6
46
42
B6
ENDCHAR
STARTCHAR uni5215
ENCODING 21013
BBX 7 7 0 -1
BITMAP
FE
22
C6
00
EE
66
AA
ENDCHAR
STARTCHAR uni5216
ENCODING 21014
BBX 7 7 0 -1
BITMAP
72
52
7A
5A
7A
52
B6
ENDCHAR
STARTCHAR uni5217
ENCODING 21015
BBX 7 7 0 -1
BITMAP
F2
4A
6A
AA
62
42
86
ENDCHAR
STARTCHAR uni5218
ENCODING 21016
BBX 7 7 0 -1
BITMAP
22
FA
56
56
26
22
56
ENDCHAR
STARTCHAR uni5219
ENCODING 21017
BBX 7 7 0 -1
BITMAP
F2
96
D6
D6
D6
42
B6
ENDCHAR
STARTCHAR uni521A
ENCODING 21018
BBX 7 7 0 -1
BITMAP
FA
8A
DE
AE
DA
8A
8A
ENDCHAR
STARTCHAR uni521B
ENCODING 21019
BBX 7 7 0 -1
BITMAP
72
8A
72
56
76
42
76
ENDCHAR
STARTCHAR uni521D
ENCODING 21021
BBX 7 7 0 -1
BITMAP
5E
EA
2A
4A
EA
6A
56
ENDCHAR
STARTCHAR uni5220
ENCODING 21024
BBX 7 7 0 -1
BITMAP
FA
AA
AA
FA
AA
AA
A6
ENDCHAR
STARTCHAR uni5224
ENCODING 21028
BBX 7 7 0 -1
BITMAP
22
AA
22
FA
22
FA
26
ENDCHAR
STARTCHAR uni5225
ENCODING 21029
BBX 7 7 0 -1
BITMAP
F2
9A
FA
4A
72
52
B6
ENDCHAR
STARTCHAR uni5227
ENCODING 21031
BBX 7 7 0 -1
BITMAP
5E
EA
4A
EA
4A
AA
D6
ENDCHAR
STARTCHAR uni5228
ENCODING 21032
BBX 7 7 0 -1
BITMAP
42
72
D6
76
56
42
76
ENDCHAR
STARTCHAR uni5229
ENCODING 21033
BBX 7 7 0 -1
BITMAP
72
2A
FA
2A
72
A2
26
ENDCHAR
STARTCHAR uni522A
ENCODING 21034
BBX 7 7 0 -1
BITMAP
FA
AA
AA
FA
AA
AA
86
ENDCHAR
STARTCHAR uni522B
ENCODING 21035
BBX 7 7 0 -1
BITMAP
F2
92
F6
46
F6
52
B6
ENDCHAR
STARTCHAR uni522D
ENCODING 21037
BBX 7 7 0 -1
BITMAP
E2
42
AA
0A
EA
42
E6
ENDCHAR
STARTCHAR uni522E
ENCODING 21038
BBX 7 7 0 -1
BITMAP
72
2A
FA
2A
72
52
76
ENDCHAR
STARTCHAR uni5230
ENCODING 21040
BBX 7 7 0 -1
BITMAP
F2
2A
5A
FA
62
32
C6
ENDCHAR
STARTCHAR uni5233
ENCODING 21043
BBX 7 7 0 -1
BITMAP
22
FA
52
AA
72
7A
0A
ENDCHAR
STARTCHAR uni5236
ENCODING 21046
BBX 7 7 0 -1
BITMAP
62
7A
AA
7A
22
FA
AA
ENDCHAR
STARTCHAR uni5237
ENCODING 21047
BBX 7 7 0 -1
BITMAP
7A
4A
7A
52
7A
5A
96
ENDCHAR
STARTCHAR uni5238
ENCODING 21048
BBX 7 7 0 -1
BITMAP
54
38
FE
44
BE
14
6C
ENDCHAR
STARTCHAR uni5239
ENCODING 21049
BBX 7 7 0 -1
BITMAP
52
2A
DA
2A
FA
72
AA
ENDCHAR
STARTCHAR uni523A
ENCODING 21050
BBX 7 7 0 -1
BITMAP
22
FA
22
FA
AA
72
AA
ENDCHAR
STARTCHAR uni523B
ENCODING 21051
BBX 7 7 0 -1
BITMAP
22
FA
4A
AA
52
22
D6
ENDCHAR
STARTCHAR uni523D
ENCODING 21053
BBX 7 7 0 -1
BITMAP
72
8A
76
06
FA
56
EA
ENDCHAR
STARTCHAR uni523F
ENCODING 21055
BBX 7 7 0 -1
BITMAP
AA
FA
46
76
D2
22
C6
ENDCHAR
STARTCHAR uni5240
ENCODING 21056
BBX 7 7 0 -1
BITMAP
22
AA
FE
16
76
42
76
ENDCHAR
STARTCHAR uni5241
ENCODING 21057
BBX 7 8 0 -1
BITMAP
02
72
9A
06
26
FA
76
AA
ENDCHAR
STARTCHAR uni5242
ENCODING 21058
BBX 7 7 0 -1
BITMAP
22
FA
56
26
DE
52
56
ENDCHAR
STARTCHAR uni5243
ENCODING 21059
BBX 7 7 0 -1
BITMAP
52
FA
2A
FA
A2
7A
AA
ENDCHAR
STARTCHAR uni5244
ENCODING 21060
BBX 7 7 0 -1
BITMAP
FA
56
A6
56
FA
22
FA
ENDCHAR
STARTCHAR uni5247
ENCODING 21063
BBX 7 7 0 -1
BITMAP
E2
AA
EA
AA
E2
02
A6
ENDCHAR
STARTCHAR uni524A
ENCODING 21066
BBX 7 7 0 -1
BITMAP
B2
2A
FA
9A
F2
92
B6
ENDCHAR
STARTCHAR uni524B
ENCODING 21067
BBX 7 7 0 -1
BITMAP
42
EA
4A
AA
E2
46
BE
ENDCHAR
STARTCHAR uni524C
ENCODING 21068
BBX 7 7 0 -1
BITMAP
22
FA
6A
7A
22
72
AA
ENDCHAR
STARTCHAR uni524D
ENCODING 21069
BBX 7 7 0 -1
BITMAP
24
FE
00
EA
AA
E2
A6
ENDCHAR
STARTCHAR uni524F
ENCODING 21071
BBX 7 7 0 -1
BITMAP
BE
4A
FA
6A
EE
6A
B6
ENDCHAR
STARTCHAR uni5250
ENCODING 21072
BBX 7 7 0 -1
BITMAP
72
56
26
FE
AA
DA
8E
ENDCHAR
STARTCHAR uni5251
ENCODING 21073
BBX 7 7 0 -1
BITMAP
72
8A
76
06
AE
52
FA
ENDCHAR
STARTCHAR uni5254
ENCODING 21076
BBX 7 7 0 -1
BITMAP
F2
9A
FA
4A
72
B2
56
ENDCHAR
STARTCHAR uni5256
ENCODING 21078
BBX 7 7 0 -1
BITMAP
22
FA
56
FE
06
72
76
ENDCHAR
STARTCHAR uni525B
ENCODING 21083
BBX 7 7 0 -1
BITMAP
FA
8E
DE
AE
DA
FA
8A
ENDCHAR
STARTCHAR uni525C
ENCODING 21084
BBX 7 7 0 -1
BITMAP
22
FE
86
5A
AA
52
9A
ENDCHAR
STARTCHAR uni525E
ENCODING 21086
BBX 7 7 0 -1
BITMAP
22
FA
2A
5A
FA
12
56
ENDCHAR
STARTCHAR uni5261
ENCODING 21089
BBX 7 7 0 -1
BITMAP
AA
22
DA
02
AA
22
D6
ENDCHAR
STARTCHAR uni5263
ENCODING 21091
BBX 7 7 0 -1
BITMAP
22
56
FE
AE
FA
22
DA
ENDCHAR
STARTCHAR uni5265
ENCODING 21093
BBX 7 7 0 -1
BITMAP
62
2A
FA
2A
AA
72
AA
ENDCHAR
STARTCHAR uni5267
ENCODING 21095
BBX 7 7 0 -1
BITMAP
F2
D2
A6
F6
A6
D2
F6
ENDCHAR
STARTCHAR uni5269
ENCODING 21097
BBX 7 7 0 -1
BITMAP
72
FA
52
DA
22
72
AA
ENDCHAR
STARTCHAR uni526A
ENCODING 21098
BBX 7 7 0 -1
BITMAP
24
FE
74
54
FE
22
C6
ENDCHAR
STARTCHAR uni526F
ENCODING 21103
BBX 7 7 0 -1
BITMAP
FA
52
76
06
FA
AA
FE
ENDCHAR
STARTCHAR uni5270
ENCODING 21104
BBX 7 7 0 -1
BITMAP
72
FA
AA
FA
AA
72
AA
ENDCHAR
STARTCHAR uni5271
ENCODING 21105
BBX 7 7 0 -1
BITMAP
2E
56
FE
B6
F6
2A
DA
ENDCHAR
STARTCHAR uni5272
ENCODING 21106
BBX 7 7 0 -1
BITMAP
22
FA
AA
7A
22
FA
76
ENDCHAR
STARTCHAR uni5273
ENCODING 21107
BBX 7 7 0 -1
BITMAP
52
FA
2A
5A
FA
52
76
ENDCHAR
STARTCHAR uni5274
ENCODING 21108
BBX 7 7 0 -1
BITMAP
AA
FA
0A
FA
52
3A
E6
ENDCHAR
STARTCHAR uni5275
ENCODING 21109
BBX 7 7 0 -1
BITMAP
72
AA
76
56
7A
4A
B6
ENDCHAR
STARTCHAR uni527D
ENCODING 21117
BBX 7 7 0 -1
BITMAP
FA
52
FA
FA
72
22
AA
ENDCHAR
STARTCHAR uni527F
ENCODING 21119
BBX 7 7 0 -1
BITMAP
52
AA
7A
7A
FA
72
AA
ENDCHAR
STARTCHAR uni5281
ENCODING 21121
BBX 7 7 0 -1
BITMAP
52
FA
52
7A
52
02
AA
ENDCHAR
STARTCHAR uni5282
ENCODING 21122
BBX 7 7 0 -1
BITMAP
FA
D2
FE
AA
FA
AA
D6
ENDCHAR
STARTCHAR uni5283
ENCODING 21123
BBX 7 7 0 -1
BITMAP
22
F2
3A
F2
72
7A
E6
ENDCHAR
STARTCHAR uni5287
ENCODING 21127
BBX 7 7 0 -1
BITMAP
22
3A
EA
DA
B2
DA
B6
ENDCHAR
STARTCHAR uni5288
ENCODING 21128
BBX 7 7 0 -1
BITMAP
64
6E
CA
64
FE
22
C6
ENDCHAR
STARTCHAR uni5289
ENCODING 21129
BBX 7 7 0 -1
BITMAP
5A
9A
EA
52
AA
72
FA
ENDCHAR
STARTCHAR uni528D
ENCODING 21133
BBX 7 7 0 -1
BITMAP
22
5A
FA
AA
FA
52
AA
ENDCHAR
STARTCHAR uni5290
ENCODING 21136
BBX 7 7 0 -1
BITMAP
52
7A
D2
52
FA
22
D6
ENDCHAR
STARTCHAR uni5291
ENCODING 21137
BBX 7 7 0 -1
BITMAP
22
FA
5A
AA
52
72
96
ENDCHAR
STARTCHAR uni5292
ENCODING 21138
BBX 7 7 0 -1
BITMAP
2E
56
F6
BE
F6
5A
AA
ENDCHAR
STARTCHAR uni5293
ENCODING 21139
BBX 7 7 0 -1
BITMAP
22
72
52
FA
AA
FA
56
ENDCHAR
STARTCHAR uni5294
ENCODING 21140
BBX 7 7 0 -1
BITMAP
2E
56
FE
B6
F6
5A
AA
ENDCHAR
STARTCHAR uni529B
ENCODING 21147
BBX 7 7 0 -1
BITMAP
10
FE
12
22
22
42
86
ENDCHAR
STARTCHAR uni529C
ENCODING 21148
BBX 7 7 0 -1
BITMAP
44
F4
54
54
54
54
B6
ENDCHAR
STARTCHAR uni529D
ENCODING 21149
BBX 7 7 0 -1
BITMAP
08
E8
3E
AA
4A
AA
16
ENDCHAR
STARTCHAR uni529E
ENCODING 21150
BBX 7 7 0 -1
BITMAP
20
F8
28
AA
AA
48
98
ENDCHAR
STARTCHAR uni529F
ENCODING 21151
BBX 7 7 0 -1
BITMAP
08
FE
4A
4A
6A
CA
16
ENDCHAR
STARTCHAR uni52A0
ENCODING 21152
BBX 7 7 0 -1
BITMAP
40
FE
5A
5A
5A
5E
B0
ENDCHAR
STARTCHAR uni52A1
ENCODING 21153
BBX 7 7 0 -1
BITMAP
7E
A4
38
D6
3C
14
6C
ENDCHAR
STARTCHAR uni52A2
ENCODING 21154
BBX 7 7 0 -1
BITMAP
F4
4E
76
56
56
56
BA
ENDCHAR
STARTCHAR uni52A3
ENCODING 21155
BBX 7 7 0 -1
BITMAP
10
54
9A
30
FE
22
C6
ENDCHAR
STARTCHAR uni52A8
ENCODING 21160
BBX 7 7 0 -1
BITMAP
E8
1E
EA
4A
AA
EA
36
ENDCHAR
STARTCHAR uni52A9
ENCODING 21161
BBX 7 7 0 -1
BITMAP
74
5E
76
56
76
5A
EA
ENDCHAR
STARTCHAR uni52AA
ENCODING 21162
BBX 7 7 0 -1
BITMAP
2E
FA
54
6A
BC
14
6C
ENDCHAR
STARTCHAR uni52AB
ENCODING 21163
BBX 7 7 0 -1
BITMAP
24
7E
26
F6
26
5A
EA
ENDCHAR
STARTCHAR uni52AC
ENCODING 21164
BBX 7 7 0 -1
BITMAP
44
7E
96
76
76
1A
3A
ENDCHAR
STARTCHAR uni52AD
ENCODING 21165
BBX 7 7 0 -1
BITMAP
E8
7E
AA
0A
EA
AA
F6
ENDCHAR
STARTCHAR uni52B1
ENCODING 21169
BBX 7 7 0 -1
BITMAP
F4
8E
F6
A6
B6
DA
DA
ENDCHAR
STARTCHAR uni52B2
ENCODING 21170
BBX 7 7 0 -1
BITMAP
E8
5E
AA
0A
EA
4A
F6
ENDCHAR
STARTCHAR uni52B3
ENCODING 21171
BBX 7 7 0 -1
BITMAP
28
FE
28
FE
92
7C
24
ENDCHAR
STARTCHAR uni52B4
ENCODING 21172
BBX 7 7 0 -1
BITMAP
54
FE
92
7C
14
24
CC
ENDCHAR
STARTCHAR uni52B5
ENCODING 21173
BBX 7 7 0 -1
BITMAP
54
92
7C
28
DE
14
6C
ENDCHAR
STARTCHAR uni52B9
ENCODING 21177
BBX 7 7 0 -1
BITMAP
28
FE
5A
8A
5A
2A
D6
ENDCHAR
STARTCHAR uni52BC
ENCODING 21180
BBX 7 7 0 -1
BITMAP
48
FE
4A
EA
0A
EA
F6
ENDCHAR
STARTCHAR uni52BE
ENCODING 21182
BBX 7 7 0 -1
BITMAP
28
FE
4A
AA
5A
2A
D6
ENDCHAR
STARTCHAR uni52BF
ENCODING 21183
BBX 7 7 0 -1
BITMAP
50
FC
54
A6
7C
24
4C
ENDCHAR
STARTCHAR uni52C1
ENCODING 21185
BBX 7 7 0 -1
BITMAP
F4
5E
A6
56
F6
2A
FA
ENDCHAR
STARTCHAR uni52C3
ENCODING 21187
BBX 7 7 0 -1
BITMAP
24
6E
F6
96
26
FA
6A
ENDCHAR
STARTCHAR uni52C5
ENCODING 21189
BBX 7 7 0 -1
BITMAP
24
FE
AE
FE
26
7A
AA
ENDCHAR
STARTCHAR uni52C7
ENCODING 21191
BBX 7 7 0 -1
BITMAP
7C
08
7C
54
FE
22
C6
ENDCHAR
STARTCHAR uni52C9
ENCODING 21193
BBX 7 7 0 -1
BITMAP
64
AE
F6
B6
FA
6A
BE
ENDCHAR
STARTCHAR uni52CB
ENCODING 21195
BBX 7 7 0 -1
BITMAP
E8
FE
0A
EA
AA
4A
B2
ENDCHAR
STARTCHAR uni52CD
ENCODING 21197
BBX 7 7 0 -1
BITMAP
24
FE
56
76
26
AA
6A
ENDCHAR
STARTCHAR uni52D0
ENCODING 21200
BBX 7 7 0 -1
BITMAP
F4
2E
F6
26
76
76
FA
ENDCHAR
STARTCHAR uni52D2
ENCODING 21202
BBX 7 7 0 -1
BITMAP
A8
FE
EA
4A
EA
EA
56
ENDCHAR
STARTCHAR uni52D5
ENCODING 21205
BBX 7 7 0 -1
BITMAP
E8
5E
EA
EA
EA
4A
F6
ENDCHAR
STARTCHAR uni52D6
ENCODING 21206
BBX 7 7 0 -1
BITMAP
E8
BE
0A
EA
EA
AA
F2
ENDCHAR
STARTCHAR uni52D7
ENCODING 21207
BBX 7 7 0 -1
BITMAP
7C
44
E8
BE
EA
AA
F6
ENDCHAR
STARTCHAR uni52D8
ENCODING 21208
BBX 7 7 0 -1
BITMAP
54
FE
56
56
F6
AA
FA
ENDCHAR
STARTCHAR uni52D9
ENCODING 21209
BBX 7 7 0 -1
BITMAP
E8
2E
54
EA
7E
AA
76
ENDCHAR
STARTCHAR uni52DD
ENCODING 21213
BBX 7 7 0 -1
BITMAP
F6
A4
FE
AC
FE
AA
B6
ENDCHAR
STARTCHAR uni52DE
ENCODING 21214
BBX 7 7 0 -1
BITMAP
AA
44
FE
92
7C
24
CC
ENDCHAR
STARTCHAR uni52DF
ENCODING 21215
BBX 7 7 0 -1
BITMAP
28
FE
38
FE
7C
AA
58
ENDCHAR
STARTCHAR uni52E0
ENCODING 21216
BBX 7 7 0 -1
BITMAP
F4
5E
26
56
A6
1A
6A
ENDCHAR
STARTCHAR uni52E2
ENCODING 21218
BBX 7 7 0 -1
BITMAP
28
7C
EC
76
BC
14
6C
ENDCHAR
STARTCHAR uni52E3
ENCODING 21219
BBX 7 7 0 -1
BITMAP
28
FE
2A
FA
6A
6A
96
ENDCHAR
STARTCHAR uni52E4
ENCODING 21220
BBX 7 7 0 -1
BITMAP
54
FE
56
F6
F6
2A
FA
ENDCHAR
STARTCHAR uni52E6
ENCODING 21222
BBX 7 7 0 -1
BITMAP
54
AE
76
76
F6
7A
AA
ENDCHAR
STARTCHAR uni52E7
ENCODING 21223
BBX 7 7 0 -1
BITMAP
44
7E
A6
76
E6
6A
7A
ENDCHAR
STARTCHAR uni52F0
ENCODING 21232
BBX 7 7 0 -1
BITMAP
4E
FA
5E
BE
04
52
AE
ENDCHAR
STARTCHAR uni52F2
ENCODING 21234
BBX 7 7 0 -1
BITMAP
64
FE
66
6A
FA
00
AA
ENDCHAR
STARTCHAR uni52F3
ENCODING 21235
BBX 7 7 0 -1
BITMAP
64
FE
66
66
F6
0A
AA
ENDCHAR
STARTCHAR uni52F5
ENCODING 21237
BBX 7 7 0 -1
BITMAP
F4
AE
F6
F6
A6
FA
DA
ENDCHAR
STARTCHAR uni52F8
ENCODING 21240
BBX 7 7 0 -1
BITMAP
54
FE
56
AE
7E
D6
7A
ENDCHAR
STARTCHAR uni52F9
ENCODING 21241
BBX 7 7 0 -1
BITMAP
40
7E
82
02
02
02
06
ENDCHAR
STARTCHAR uni52FA
ENCODING 21242
BBX 7 7 0 -1
BITMAP
40
7E
82
22
12
02
06
ENDCHAR
STARTCHAR uni52FB
ENCODING 21243
BBX 7 7 0 -1
BITMAP
40
7E
82
32
02
72
06
ENDCHAR
STARTCHAR uni52FC
ENCODING 21244
BBX 7 7 0 -1
BITMAP
40
7E
A2
7A
2A
4E
06
ENDCHAR
STARTCHAR uni52FD
ENCODING 21245
BBX 7 7 0 -1
BITMAP
40
7E
82
22
22
52
06
ENDCHAR
STARTCHAR uni52FE
ENCODING 21246
BBX 7 7 0 -1
BITMAP
40
7E
52
92
2A
76
02
ENDCHAR
STARTCHAR uni52FF
ENCODING 21247
BBX 7 7 0 -1
BITMAP
40
7E
AA
2A
4A
92
26
ENDCHAR
STARTCHAR uni5300
ENCODING 21248
BBX 7 7 0 -1
BITMAP
20
3E
42
92
0A
12
66
ENDCHAR
STARTCHAR uni5301
ENCODING 21249
BBX 7 7 0 -1
BITMAP
40
7E
52
B2
1E
22
C6
ENDCHAR
STARTCHAR uni5302
ENCODING 21250
BBX 7 7 0 -1
BITMAP
40
7E
A2
3A
22
3A
06
ENDCHAR
STARTCHAR uni5303
ENCODING 21251
BBX 7 7 0 -1
BITMAP
40
FE
12
AA
82
FA
06
ENDCHAR
STARTCHAR uni5305
ENCODING 21253
BBX 7 7 0 -1
BITMAP
7E
82
7A
4A
7A
40
7E
ENDCHAR
STARTCHAR uni5306
ENCODING 21254
BBX 7 7 0 -1
BITMAP
40
7E
AA
3A
4E
92
26
ENDCHAR
STARTCHAR uni5308
ENCODING 21256
BBX 7 7 0 -1
BITMAP
40
7E
AA
52
6A
7A
06
ENDCHAR
STARTCHAR uni530A
ENCODING 21258
BBX 7 7 0 -1
BITMAP
40
FE
AA
72
FA
72
AA
ENDCHAR
STARTCHAR uni530D
ENCODING 21261
BBX 7 7 0 -1
BITMAP
40
7E
92
7A
12
7A
5A
ENDCHAR
STARTCHAR uni530F
ENCODING 21263
BBX 7 7 0 -1
BITMAP
24
F6
6A
96
66
74
16
ENDCHAR
STARTCHAR uni5310
ENCODING 21264
BBX 7 7 0 -1
BITMAP
40
7E
BA
2A
7E
56
7E
ENDCHAR
STARTCHAR uni5315
ENCODING 21269
BBX 7 7 0 -1
BITMAP
40
44
58
E0
40
42
3E
ENDCHAR
STARTCHAR uni5316
ENCODING 21270
BBX 7 7 0 -1
BITMAP
30
50
D2
5C
50
52
5E
ENDCHAR
STARTCHAR uni5317
ENCODING 21271
BBX 7 7 0 -1
BITMAP
28
28
EA
2C
68
AA
2E
ENDCHAR
STARTCHAR uni5318
ENCODING 21272
BBX 7 7 0 -1
BITMAP
8A
94
CA
9E
9A
96
DE
ENDCHAR
STARTCHAR uni5319
ENCODING 21273
BBX 7 7 0 -1
BITMAP
68
6A
FC
28
7A
6E
9E
ENDCHAR
STARTCHAR uni531A
ENCODING 21274
BBX 7 7 0 -1
BITMAP
FE
80
80
80
80
80
FE
ENDCHAR
STARTCHAR uni531B
ENCODING 21275
BBX 8 7 0 -1
BITMAP
FF
90
9C
A4
88
94
FE
ENDCHAR
STARTCHAR uni531C
ENCODING 21276
BBX 7 7 0 -1
BITMAP
FE
A8
FE
AA
A0
BE
FE
ENDCHAR
STARTCHAR uni531D
ENCODING 21277
BBX 7 7 0 -1
BITMAP
FE
88
BE
AA
AA
88
FE
ENDCHAR
STARTCHAR uni531E
ENCODING 21278
BBX 7 7 0 -1
BITMAP
FE
80
BE
88
BE
80
FE
ENDCHAR
STARTCHAR uni531F
ENCODING 21279
BBX 7 7 0 -1
BITMAP
FE
90
BC
80
98
AC
FE
ENDCHAR
STARTCHAR uni5320
ENCODING 21280
BBX 7 7 0 -1
BITMAP
FE
8C
B0
BE
A8
C8
FE
ENDCHAR
STARTCHAR uni5321
ENCODING 21281
BBX 7 7 0 -1
BITMAP
FE
BC
88
9C
88
BC
FE
ENDCHAR
STARTCHAR uni5323
ENCODING 21283
BBX 7 7 0 -1
BITMAP
FE
AA
BE
AA
BE
88
FE
ENDCHAR
STARTCHAR uni5326
ENCODING 21286
BBX 7 7 0 -1
BITMAP
FE
A8
DC
AC
CC
B2
FE
ENDCHAR
STARTCHAR uni532A
ENCODING 21290
BBX 7 7 0 -1
BITMAP
FE
A4
E6
A4
E6
A4
FE
ENDCHAR
STARTCHAR uni532E
ENCODING 21294
BBX 7 7 0 -1
BITMAP
FE
98
98
BC
98
A4
FE
ENDCHAR
STARTCHAR uni532F
ENCODING 21295
BBX 7 7 0 -1
BITMAP
FE
D4
BE
D4
9E
D4
FE
ENDCHAR
STARTCHAR uni5331
ENCODING 21297
BBX 7 7 0 -1
BITMAP
FE
98
BC
98
98
A4
FE
ENDCHAR
STARTCHAR uni5333
ENCODING 21299
BBX 7 7 0 -1
BITMAP
FE
88
9C
BE
94
AA
FE
ENDCHAR
STARTCHAR uni5338
ENCODING 21304
BBX 7 7 0 -1
BITMAP
FE
40
40
40
40
40
7E
ENDCHAR
STARTCHAR uni5339
ENCODING 21305
BBX 7 7 0 -1
BITMAP
FE
A8
A8
AA
CE
80
FE
ENDCHAR
STARTCHAR uni533A
ENCODING 21306
BBX 6 7 1 -1
BITMAP
FC
80
A8
90
A8
80
FC
ENDCHAR
STARTCHAR uni533B
ENCODING 21307
BBX 7 7 0 -1
BITMAP
FE
90
9C
BE
88
B6
FE
ENDCHAR
STARTCHAR uni533E
ENCODING 21310
BBX 7 7 0 -1
BITMAP
FE
A2
BE
A0
BE
AA
FE
ENDCHAR
STARTCHAR uni533F
ENCODING 21311
BBX 7 7 0 -1
BITMAP
FE
A8
FE
B0
DC
94
FE
ENDCHAR
STARTCHAR uni5340
ENCODING 21312
BBX 7 7 0 -1
BITMAP
FE
A4
BC
80
EE
AA
FE
ENDCHAR
STARTCHAR uni5341
ENCODING 21313
BBX 7 7 0 -1
BITMAP
10
10
FE
10
10
10
10
ENDCHAR
STARTCHAR uni5342
ENCODING 21314
BBX 7 7 0 -1
BITMAP
FC
24
24
FC
24
24
26
ENDCHAR
STARTCHAR uni5343
ENCODING 21315
BBX 7 7 0 -1
BITMAP
0C
70
10
FE
10
10
10
ENDCHAR
STARTCHAR uni5344
ENCODING 21316
BBX 7 7 0 -1
BITMAP
44
44
44
FE
44
44
44
ENDCHAR
STARTCHAR uni5345
ENCODING 21317
BBX 7 7 0 -1
BITMAP
54
54
54
FE
54
54
94
ENDCHAR
STARTCHAR uni5346
ENCODING 21318
BBX 7 7 0 -1
BITMAP
10
F8
2A
CE
10
FE
10
ENDCHAR
STARTCHAR uni5347
ENCODING 21319
BBX 7 7 0 -1
BITMAP
14
E4
24
FE
24
24
44
ENDCHAR
STARTCHAR uni5348
ENCODING 21320
BBX 7 7 0 -1
BITMAP
40
7C
90
10
FE
10
10
ENDCHAR
STARTCHAR uni5349
ENCODING 21321
BBX 7 7 0 -1
BITMAP
10
7C
10
24
FE
24
44
ENDCHAR
STARTCHAR uni534A
ENCODING 21322
BBX 7 7 0 -1
BITMAP
10
54
10
7C
10
FE
10
ENDCHAR
STARTCHAR uni534B
ENCODING 21323
BBX 7 7 0 -1
BITMAP
10
FE
10
44
FE
44
7C
ENDCHAR
STARTCHAR uni534C
ENCODING 21324
BBX 7 7 0 -1
BITMAP
AA
AA
AA
FE
AA
AA
AA
ENDCHAR
STARTCHAR uni534D
ENCODING 21325
BBX 7 7 0 -1
BITMAP
F2
12
12
FE
90
90
9E
ENDCHAR
STARTCHAR uni534E
ENCODING 21326
BBX 7 7 0 -1
BITMAP
2A
CC
48
46
10
FE
10
ENDCHAR
STARTCHAR uni534F
ENCODING 21327
BBX 7 7 0 -1
BITMAP
50
50
FC
54
76
54
6C
ENDCHAR
STARTCHAR uni5350
ENCODING 21328
BBX 7 7 0 -1
BITMAP
9E
90
90
FE
12
12
F2
ENDCHAR
STARTCHAR uni5351
ENCODING 21329
BBX 7 7 0 -1
BITMAP
10
7C
54
7C
28
FE
08
ENDCHAR
STARTCHAR uni5352
ENCODING 21330
BBX 7 7 0 -1
BITMAP
10
FE
44
AA
10
FE
10
ENDCHAR
STARTCHAR uni5353
ENCODING 21331
BBX 7 7 0 -1
BITMAP
10
7E
44
7C
44
FE
10
ENDCHAR
STARTCHAR uni5354
ENCODING 21332
BBX 7 7 0 -1
BITMAP
48
5E
EA
40
4A
7E
56
ENDCHAR
STARTCHAR uni5355
ENCODING 21333
BBX 7 7 0 -1
BITMAP
28
7C
54
7C
54
FE
10
ENDCHAR
STARTCHAR uni5356
ENCODING 21334
BBX 7 7 0 -1
BITMAP
08
FE
42
28
7E
08
76
ENDCHAR
STARTCHAR uni5357
ENCODING 21335
BBX 7 7 0 -1
BITMAP
10
FE
10
FE
AA
FE
92
ENDCHAR
STARTCHAR uni5358
ENCODING 21336
BBX 7 7 0 -1
BITMAP
54
7C
54
7C
54
FE
10
ENDCHAR
STARTCHAR uni535A
ENCODING 21338
BBX 7 7 0 -1
BITMAP
4A
7E
DC
5C
7E
54
4C
ENDCHAR
STARTCHAR uni535C
ENCODING 21340
BBX 4 7 2 -1
BITMAP
80
80
C0
A0
90
80
80
ENDCHAR
STARTCHAR uni535D
ENCODING 21341
BBX 7 7 0 -1
BITMAP
28
28
28
EE
28
28
28
ENDCHAR
STARTCHAR uni535E
ENCODING 21342
BBX 7 7 0 -1
BITMAP
10
FE
10
18
14
10
10
ENDCHAR
STARTCHAR uni535F
ENCODING 21343
BBX 7 7 0 -1
BITMAP
08
E8
AC
AA
A8
E8
08
ENDCHAR
STARTCHAR uni5360
ENCODING 21344
BBX 6 7 1 -1
BITMAP
20
20
3C
20
FC
84
FC
ENDCHAR
STARTCHAR uni5361
ENCODING 21345
BBX 7 7 0 -1
BITMAP
10
1E
10
FE
10
14
12
ENDCHAR
STARTCHAR uni5362
ENCODING 21346
BBX 6 7 0 -1
BITMAP
1C
10
7C
44
7C
40
80
ENDCHAR
STARTCHAR uni5363
ENCODING 21347
BBX 7 7 0 -1
BITMAP
3E
20
FC
94
F4
84
FC
ENDCHAR
STARTCHAR uni5364
ENCODING 21348
BBX 7 7 0 -1
BITMAP
1E
10
FE
AA
92
AA
FE
ENDCHAR
STARTCHAR uni5365
ENCODING 21349
BBX 7 7 0 -1
BITMAP
1E
10
FE
AA
96
AA
FE
ENDCHAR
STARTCHAR uni5366
ENCODING 21350
BBX 7 7 0 -1
BITMAP
28
78
28
FC
6A
38
C8
ENDCHAR
STARTCHAR uni5367
ENCODING 21351
BBX 7 7 0 -1
BITMAP
F4
A4
F4
96
F4
A4
F4
ENDCHAR
STARTCHAR uni5368
ENCODING 21352
BBX 7 7 0 -1
BITMAP
1E
10
7C
54
FE
AA
BA
ENDCHAR
STARTCHAR uni5369
ENCODING 21353
BBX 4 7 2 -1
BITMAP
F0
90
90
90
B0
80
80
ENDCHAR
STARTCHAR uni536A
ENCODING 21354
BBX 5 7 1 -1
BITMAP
F8
88
A8
A8
88
B8
80
ENDCHAR
STARTCHAR uni536B
ENCODING 21355
BBX 7 7 0 -1
BITMAP
FE
12
12
16
10
10
FE
ENDCHAR
STARTCHAR uni536C
ENCODING 21356
BBX 7 7 0 -1
BITMAP
6E
8A
8A
8A
8A
EC
08
ENDCHAR
STARTCHAR uni536D
ENCODING 21357
BBX 7 7 0 -1
BITMAP
EE
4A
4A
4A
6A
CE
08
ENDCHAR
STARTCHAR uni536E
ENCODING 21358
BBX 7 7 0 -1
BITMAP
7E
40
7E
5C
54
52
9E
ENDCHAR
STARTCHAR uni536F
ENCODING 21359
BBX 7 7 0 -1
BITMAP
2E
CA
AA
AA
EE
28
48
ENDCHAR
STARTCHAR uni5370
ENCODING 21360
BBX 7 7 0 -1
BITMAP
EE
8A
EA
8A
AE
C8
08
ENDCHAR
STARTCHAR uni5371
ENCODING 21361
BBX 7 7 0 -1
BITMAP
3C
C8
7E
5C
54
52
9E
ENDCHAR
STARTCHAR uni5373
ENCODING 21363
BBX 7 7 0 -1
BITMAP
EE
AA
EA
AA
EE
98
E8
ENDCHAR
STARTCHAR uni5374
ENCODING 21364
BBX 7 7 0 -1
BITMAP
2E
7A
2A
FA
2A
58
E8
ENDCHAR
STARTCHAR uni5375
ENCODING 21365
BBX 7 7 0 -1
BITMAP
2E
CA
EE
AA
EA
28
48
ENDCHAR
STARTCHAR uni5377
ENCODING 21367
BBX 7 7 0 -1
BITMAP
54
92
28
FE
6C
A2
38
ENDCHAR
STARTCHAR uni5378
ENCODING 21368
BBX 7 7 0 -1
BITMAP
4E
7A
AA
FA
2A
B8
C8
ENDCHAR
STARTCHAR uni537A
ENCODING 21370
BBX 7 7 0 -1
BITMAP
7C
92
54
BA
28
22
3E
ENDCHAR
STARTCHAR uni537B
ENCODING 21371
BBX 7 7 0 -1
BITMAP
4E
AA
5A
AA
FE
A8
E8
ENDCHAR
STARTCHAR uni537F
ENCODING 21375
BBX 7 7 0 -1
BITMAP
46
BE
AE
BE
E6
6C
B4
ENDCHAR
STARTCHAR uni5382
ENCODING 21378
BBX 7 7 0 -1
BITMAP
7E
40
40
40
40
40
80
ENDCHAR
STARTCHAR uni5383
ENCODING 21379
BBX 7 7 0 -1
BITMAP
3C
44
FE
40
40
40
80
ENDCHAR
STARTCHAR uni5384
ENCODING 21380
BBX 7 7 0 -1
BITMAP
7E
40
5C
54
54
52
9E
ENDCHAR
STARTCHAR uni5385
ENCODING 21381
BBX 7 7 0 -1
BITMAP
7E
40
7E
48
48
48
98
ENDCHAR
STARTCHAR uni5386
ENCODING 21382
BBX 7 7 0 -1
BITMAP
7E
50
7E
52
52
52
A6
ENDCHAR
STARTCHAR uni5389
ENCODING 21385
BBX 7 7 0 -1
BITMAP
FE
80
BE
90
9E
92
A6
ENDCHAR
STARTCHAR uni538B
ENCODING 21387
BBX 7 7 0 -1
BITMAP
7E
48
7E
48
4A
48
BE
ENDCHAR
STARTCHAR uni538C
ENCODING 21388
BBX 7 7 0 -1
BITMAP
FE
94
92
FC
90
A8
C6
ENDCHAR
STARTCHAR uni538D
ENCODING 21389
BBX 7 7 0 -1
BITMAP
7E
50
7E
5C
48
7E
88
ENDCHAR
STARTCHAR uni5395
ENCODING 21397
BBX 7 7 0 -1
BITMAP
FE
80
BA
AE
AE
92
AA
ENDCHAR
STARTCHAR uni5396
ENCODING 21398
BBX 7 7 0 -1
BITMAP
7E
50
7A
54
52
54
AE
ENDCHAR
STARTCHAR uni5398
ENCODING 21400
BBX 7 7 0 -1
BITMAP
7E
6A
7E
6A
7E
48
BE
ENDCHAR
STARTCHAR uni539A
ENCODING 21402
BBX 7 7 0 -1
BITMAP
7E
54
5C
44
7E
48
98
ENDCHAR
STARTCHAR uni539D
ENCODING 21405
BBX 7 7 0 -1
BITMAP
7E
54
7E
54
7E
A4
BC
ENDCHAR
STARTCHAR uni539F
ENCODING 21407
BBX 7 7 0 -1
BITMAP
7E
48
54
5C
48
6A
98
ENDCHAR
STARTCHAR uni53A0
ENCODING 21408
BBX 7 7 0 -1
BITMAP
7E
68
7A
6A
7A
42
AA
ENDCHAR
STARTCHAR uni53A2
ENCODING 21410
BBX 7 7 0 -1
BITMAP
FE
AA
FE
AA
FE
EA
AE
ENDCHAR
STARTCHAR uni53A3
ENCODING 21411
BBX 7 7 0 -1
BITMAP
FE
94
FE
A8
FE
BC
90
ENDCHAR
STARTCHAR uni53A5
ENCODING 21413
BBX 7 7 0 -1
BITMAP
7E
68
56
6E
74
54
AA
ENDCHAR
STARTCHAR uni53A6
ENCODING 21414
BBX 7 7 0 -1
BITMAP
7E
5E
4C
4C
54
48
B6
ENDCHAR
STARTCHAR uni53A8
ENCODING 21416
BBX 7 7 0 -1
BITMAP
7E
40
7A
6E
72
5A
B6
ENDCHAR
STARTCHAR uni53A9
ENCODING 21417
BBX 7 7 0 -1
BITMAP
7E
4E
74
74
7E
4C
F6
ENDCHAR
STARTCHAR uni53AD
ENCODING 21421
BBX 7 7 0 -1
BITMAP
7E
74
4E
74
74
74
BA
ENDCHAR
STARTCHAR uni53AE
ENCODING 21422
BBX 7 7 0 -1
BITMAP
7E
5A
7C
5C
7E
46
AA
ENDCHAR
STARTCHAR uni53B0
ENCODING 21424
BBX 7 7 0 -1
BITMAP
7E
54
6E
7A
7A
7C
AA
ENDCHAR
STARTCHAR uni53B3
ENCODING 21427
BBX 7 7 0 -1
BITMAP
54
7E
60
76
5A
74
9A
ENDCHAR
STARTCHAR uni53B6
ENCODING 21430
BBX 7 7 0 -1
BITMAP
10
10
10
20
28
44
FA
ENDCHAR
STARTCHAR uni53BB
ENCODING 21435
BBX 7 7 0 -1
BITMAP
10
7C
10
FE
10
24
FA
ENDCHAR
STARTCHAR uni53BF
ENCODING 21439
BBX 7 7 0 -1
BITMAP
7C
44
7C
44
FE
28
74
ENDCHAR
STARTCHAR uni53C1
ENCODING 21441
BBX 7 7 0 -1
BITMAP
20
44
FE
44
BA
00
FE
ENDCHAR
STARTCHAR uni53C2
ENCODING 21442
BBX 7 7 0 -1
BITMAP
28
74
FE
54
A2
08
70
ENDCHAR
STARTCHAR uni53C3
ENCODING 21443
BBX 7 7 0 -1
BITMAP
28
74
AA
FE
54
8A
30
ENDCHAR
STARTCHAR uni53C8
ENCODING 21448
BBX 7 7 0 -1
BITMAP
7C
04
24
28
10
28
C6
ENDCHAR
STARTCHAR uni53C9
ENCODING 21449
BBX 7 7 0 -1
BITMAP
7C
14
44
28
10
28
C6
ENDCHAR
STARTCHAR uni53CA
ENCODING 21450
BBX 7 7 0 -1
BITMAP
F8
28
2C
24
54
48
B6
ENDCHAR
STARTCHAR uni53CB
ENCODING 21451
BBX 7 7 0 -1
BITMAP
20
FE
20
3C
54
88
76
ENDCHAR
STARTCHAR uni53CC
ENCODING 21452
BBX 7 7 0 -1
BITMAP
FE
12
5A
2A
24
54
8A
ENDCHAR
STARTCHAR uni53CD
ENCODING 21453
BBX 7 7 0 -1
BITMAP
7E
40
7C
54
54
48
B6
ENDCHAR
STARTCHAR uni53CE
ENCODING 21454
BBX 7 7 0 -1
BITMAP
2E
A2
AA
AA
B4
E4
2A
ENDCHAR
STARTCHAR uni53D1
ENCODING 21457
BBX 7 7 0 -1
BITMAP
94
FE
20
7C
A4
18
E6
ENDCHAR
STARTCHAR uni53D4
ENCODING 21460
BBX 7 7 0 -1
BITMAP
2E
32
2A
FA
24
B4
6A
ENDCHAR
STARTCHAR uni53D6
ENCODING 21462
BBX 7 7 0 -1
BITMAP
F0
5E
72
5A
74
9A
10
ENDCHAR
STARTCHAR uni53D7
ENCODING 21463
BBX 7 7 0 -1
BITMAP
FE
54
FE
BA
28
10
EE
ENDCHAR
STARTCHAR uni53D8
ENCODING 21464
BBX 7 7 0 -1
BITMAP
10
FE
28
82
38
10
EE
ENDCHAR
STARTCHAR uni53D9
ENCODING 21465
BBX 7 7 0 -1
BITMAP
2E
52
FA
2A
F4
24
AA
ENDCHAR
STARTCHAR uni53DB
ENCODING 21467
BBX 7 7 0 -1
BITMAP
BE
50
FE
5A
FA
54
9A
ENDCHAR
STARTCHAR uni53DF
ENCODING 21471
BBX 7 7 0 -1
BITMAP
56
92
D6
FE
28
10
EE
ENDCHAR
STARTCHAR uni53E0
ENCODING 21472
BBX 7 7 0 -1
BITMAP
7C
54
AA
FE
AA
28
FE
ENDCHAR
STARTCHAR uni53E1
ENCODING 21473
BBX 7 7 0 -1
BITMAP
2E
32
FA
AA
54
B4
3A
ENDCHAR
STARTCHAR uni53E2
ENCODING 21474
BBX 7 7 0 -1
BITMAP
AA
FE
28
FE
7A
E4
2A
ENDCHAR
STARTCHAR uni53E3
ENCODING 21475
BBX 6 6 1 -1
BITMAP
FC
84
84
84
84
FC
ENDCHAR
STARTCHAR uni53E4
ENCODING 21476
BBX 7 7 0 -1
BITMAP
10
10
FE
10
7C
44
7C
ENDCHAR
STARTCHAR uni53E5
ENCODING 21477
BBX 7 7 0 -1
BITMAP
40
7E
42
BA
2A
3A
06
ENDCHAR
STARTCHAR uni53E6
ENCODING 21478
BBX 7 7 0 -1
BITMAP
7E
42
7E
10
7E
12
E6
ENDCHAR
STARTCHAR uni53E8
ENCODING 21480
BBX 7 7 0 -1
BITMAP
1E
EA
AA
AA
EA
12
26
ENDCHAR
STARTCHAR uni53E9
ENCODING 21481
BBX 7 7 0 -1
BITMAP
1E
F2
B2
B2
F6
10
10
ENDCHAR
STARTCHAR uni53EA
ENCODING 21482
BBX 7 7 0 -1
BITMAP
7C
44
44
7C
00
44
82
ENDCHAR
STARTCHAR uni53EB
ENCODING 21483
BBX 7 7 0 -1
BITMAP
02
EA
AA
AA
AA
EE
02
ENDCHAR
STARTCHAR uni53EC
ENCODING 21484
BBX 6 7 1 -1
BITMAP
FC
24
CC
00
FC
84
FC
ENDCHAR
STARTCHAR uni53ED
ENCODING 21485
BBX 7 7 0 -1
BITMAP
14
F4
B4
B4
F4
14
22
ENDCHAR
STARTCHAR uni53EE
ENCODING 21486
BBX 7 7 0 -1
BITMAP
1E
E4
A4
A4
E4
04
0C
ENDCHAR
STARTCHAR uni53EF
ENCODING 21487
BBX 7 7 0 -1
BITMAP
FE
04
74
54
74
04
0C
ENDCHAR
STARTCHAR uni53F0
ENCODING 21488
BBX 7 7 0 -1
BITMAP
10
24
FA
00
7C
44
7C
ENDCHAR
STARTCHAR uni53F1
ENCODING 21489
BBX 7 7 0 -1
BITMAP
08
E8
AA
BC
E8
0A
0E
ENDCHAR
STARTCHAR uni53F2
ENCODING 21490
BBX 7 7 0 -1
BITMAP
10
7C
54
7C
30
10
EE
ENDCHAR
STARTCHAR uni53F3
ENCODING 21491
BBX 7 7 0 -1
BITMAP
10
FE
20
7C
A4
24
3C
ENDCHAR
STARTCHAR uni53F5
ENCODING 21493
BBX 7 7 0 -1
BITMAP
FE
80
BC
A4
BC
80
FE
ENDCHAR
STARTCHAR uni53F6
ENCODING 21494
BBX 7 7 0 -1
BITMAP
08
E8
BE
A8
E8
08
08
ENDCHAR
STARTCHAR uni53F7
ENCODING 21495
BBX 7 7 0 -1
BITMAP
7C
44
FE
20
3C
04
0C
ENDCHAR
STARTCHAR uni53F8
ENCODING 21496
BBX 6 7 1 -1
BITMAP
FC
04
F4
04
F4
94
EC
ENDCHAR
STARTCHAR uni53F9
ENCODING 21497
BBX 7 7 0 -1
BITMAP
EE
A2
AA
AA
E4
84
1A
ENDCHAR
STARTCHAR uni53FA
ENCODING 21498
BBX 7 7 0 -1
BITMAP
18
E8
A8
A8
F4
14
22
ENDCHAR
STARTCHAR uni53FB
ENCODING 21499
BBX 7 7 0 -1
BITMAP
08
E8
BE
AA
AA
EA
36
ENDCHAR
STARTCHAR uni53FC
ENCODING 21500
BBX 7 7 0 -1
BITMAP
0E
E2
A2
A6
AA
E2
06
ENDCHAR
STARTCHAR uni53FD
ENCODING 21501
BBX 7 7 0 -1
BITMAP
3C
E4
A4
A4
E4
26
46
ENDCHAR
STARTCHAR uni5401
ENCODING 21505
BBX 7 7 0 -1
BITMAP
0E
E4
A4
AE
E4
04
0C
ENDCHAR
STARTCHAR uni5403
ENCODING 21507
BBX 7 7 0 -1
BITMAP
10
FE
A0
AE
A4
E8
0E
ENDCHAR
STARTCHAR uni5404
ENCODING 21508
BBX 7 7 0 -1
BITMAP
18
68
10
28
FE
44
7C
ENDCHAR
STARTCHAR uni5406
ENCODING 21510
BBX 7 7 0 -1
BITMAP
08
F0
AA
A4
E8
1E
02
ENDCHAR
STARTCHAR uni5407
ENCODING 21511
BBX 7 7 0 -1
BITMAP
0E
E2
A4
BE
A4
E4
0C
ENDCHAR
STARTCHAR uni5408
ENCODING 21512
BBX 7 7 0 -1
BITMAP
38
C6
7C
00
7C
44
7C
ENDCHAR
STARTCHAR uni5409
ENCODING 21513
BBX 7 7 0 -1
BITMAP
10
FE
10
7C
00
7C
7C
ENDCHAR
STARTCHAR uni540A
ENCODING 21514
BBX 7 7 0 -1
BITMAP
7C
44
7C
10
FE
92
96
ENDCHAR
STARTCHAR uni540B
ENCODING 21515
BBX 7 7 0 -1
BITMAP
04
FE
A4
B4
EC
04
0C
ENDCHAR
STARTCHAR uni540C
ENCODING 21516
BBX 7 7 0 -1
BITMAP
FE
82
BA
82
BA
AA
BA
ENDCHAR
STARTCHAR uni540D
ENCODING 21517
BBX 7 7 0 -1
BITMAP
3C
24
58
10
3E
D2
1E
ENDCHAR
STARTCHAR uni540E
ENCODING 21518
BBX 7 7 0 -1
BITMAP
7C
40
7E
40
7C
A4
BC
ENDCHAR
STARTCHAR uni540F
ENCODING 21519
BBX 7 7 0 -1
BITMAP
10
FE
54
7C
30
10
EE
ENDCHAR
STARTCHAR uni5410
ENCODING 21520
BBX 7 7 0 -1
BITMAP
08
E8
BC
A8
E8
08
3E
ENDCHAR
STARTCHAR uni5411
ENCODING 21521
BBX 7 7 0 -1
BITMAP
10
FE
82
BA
AA
BA
86
ENDCHAR
STARTCHAR uni5412
ENCODING 21522
BBX 7 7 0 -1
BITMAP
0E
F8
A8
BE
A8
EA
0E
ENDCHAR
STARTCHAR uni5413
ENCODING 21523
BBX 7 7 0 -1
BITMAP
1E
E8
A8
AC
EA
08
08
ENDCHAR
STARTCHAR uni5415
ENCODING 21525
BBX 7 7 0 -1
BITMAP
7C
44
7C
00
FE
82
FE
ENDCHAR
STARTCHAR uni5416
ENCODING 21526
BBX 7 7 0 -1
BITMAP
22
14
E8
A8
A8
E8
08
ENDCHAR
STARTCHAR uni5417
ENCODING 21527
BBX 7 7 0 -1
BITMAP
1E
02
E8
AE
E2
1A
06
ENDCHAR
STARTCHAR uni541B
ENCODING 21531
BBX 7 7 0 -1
BITMAP
7C
14
FE
14
7E
32
DE
ENDCHAR
STARTCHAR uni541D
ENCODING 21533
BBX 7 7 0 -1
BITMAP
10
FE
28
10
EE
44
7C
ENDCHAR
STARTCHAR uni541E
ENCODING 21534
BBX 7 7 0 -1
BITMAP
7C
10
FE
44
BA
28
38
ENDCHAR
STARTCHAR uni541F
ENCODING 21535
BBX 7 7 0 -1
BITMAP
08
F4
AA
A0
FC
04
08
ENDCHAR
STARTCHAR uni5420
ENCODING 21536
BBX 7 7 0 -1
BITMAP
0A
E8
BE
A8
E8
14
22
ENDCHAR
STARTCHAR uni5421
ENCODING 21537
BBX 7 7 0 -1
BITMAP
24
E4
B6
A4
E4
24
36
ENDCHAR
STARTCHAR uni5423
ENCODING 21539
BBX 7 7 0 -1
BITMAP
08
E4
B0
B2
F0
14
1C
ENDCHAR
STARTCHAR uni5426
ENCODING 21542
BBX 7 7 0 -1
BITMAP
FE
10
34
D2
7C
44
7C
ENDCHAR
STARTCHAR uni5427
ENCODING 21543
BBX 7 7 0 -1
BITMAP
3E
EA
AA
BE
E0
22
3E
ENDCHAR
STARTCHAR uni5428
ENCODING 21544
BBX 7 7 0 -1
BITMAP
08
3E
E8
AA
BE
E8
0E
ENDCHAR
STARTCHAR uni5429
ENCODING 21545
BBX 7 7 0 -1
BITMAP
14
F4
A2
BC
F4
14
2C
ENDCHAR
STARTCHAR uni542B
ENCODING 21547
BBX 7 7 0 -1
BITMAP
10
28
FE
08
7C
44
7C
ENDCHAR
STARTCHAR uni542C
ENCODING 21548
BBX 7 7 0 -1
BITMAP
06
D8
D0
DE
D4
14
24
ENDCHAR
STARTCHAR uni542D
ENCODING 21549
BBX 7 7 0 -1
BITMAP
08
FE
A0
BC
F4
14
26
ENDCHAR
STARTCHAR uni542E
ENCODING 21550
BBX 7 7 0 -1
BITMAP
08
D2
FE
D4
D4
14
26
ENDCHAR
STARTCHAR uni542F
ENCODING 21551
BBX 7 7 0 -1
BITMAP
08
7E
42
7E
40
7E
BE
ENDCHAR
STARTCHAR uni5431
ENCODING 21553
BBX 7 7 0 -1
BITMAP
04
EE
A4
AE
AA
E4
0A
ENDCHAR
STARTCHAR uni5432
ENCODING 21554
BBX 7 7 0 -1
BITMAP
1A
CA
DA
D2
DA
CA
1A
ENDCHAR
STARTCHAR uni5434
ENCODING 21556
BBX 7 7 0 -1
BITMAP
7C
44
FE
10
FE
28
C6
ENDCHAR
STARTCHAR uni5435
ENCODING 21557
BBX 7 7 0 -1
BITMAP
08
EA
BA
A8
AA
E4
18
ENDCHAR
STARTCHAR uni5436
ENCODING 21558
BBX 7 7 0 -1
BITMAP
18
E8
BE
AA
F6
22
26
ENDCHAR
STARTCHAR uni5438
ENCODING 21560
BBX 7 7 0 -1
BITMAP
3C
D4
D6
D2
DA
24
5A
ENDCHAR
STARTCHAR uni5439
ENCODING 21561
BBX 7 7 0 -1
BITMAP
10
DE
AA
A8
E8
14
22
ENDCHAR
STARTCHAR uni543B
ENCODING 21563
BBX 7 7 0 -1
BITMAP
10
FE
AA
AA
B6
EA
16
ENDCHAR
STARTCHAR uni543C
ENCODING 21564
BBX 7 7 0 -1
BITMAP
3C
CC
D4
DC
F4
14
36
ENDCHAR
STARTCHAR uni543D
ENCODING 21565
BBX 7 7 0 -1
BITMAP
08
EE
B4
A4
E4
1E
04
ENDCHAR
STARTCHAR uni543E
ENCODING 21566
BBX 7 7 0 -1
BITMAP
7C
10
78
28
FE
44
7C
ENDCHAR
STARTCHAR uni5440
ENCODING 21568
BBX 7 7 0 -1
BITMAP
1E
E4
A4
BE
CC
14
2C
ENDCHAR
STARTCHAR uni5442
ENCODING 21570
BBX 6 7 1 -1
BITMAP
78
48
78
20
FC
84
FC
ENDCHAR
STARTCHAR uni5443
ENCODING 21571
BBX 7 7 0 -1
BITMAP
3E
E0
AE
AA
EA
28
4E
ENDCHAR
STARTCHAR uni5446
ENCODING 21574
BBX 7 7 0 -1
BITMAP
7C
44
7C
10
FE
38
D6
ENDCHAR
STARTCHAR uni5448
ENCODING 21576
BBX 7 7 0 -1
BITMAP
7C
44
FE
10
7C
10
FE
ENDCHAR
STARTCHAR uni5449
ENCODING 21577
BBX 7 7 0 -1
BITMAP
1C
54
7C
04
FE
00
C6
ENDCHAR
STARTCHAR uni544A
ENCODING 21578
BBX 7 7 0 -1
BITMAP
50
7C
90
FE
00
7C
7C
ENDCHAR
STARTCHAR uni544B
ENCODING 21579
BBX 7 7 0 -1
BITMAP
E8
BE
A8
BE
E8
14
22
ENDCHAR
STARTCHAR uni544E
ENCODING 21582
BBX 7 7 0 -1
BITMAP
1E
F2
BE
B4
F4
12
22
ENDCHAR
STARTCHAR uni5450
ENCODING 21584
BBX 7 7 0 -1
BITMAP
08
E8
BE
AA
B6
E2
26
ENDCHAR
STARTCHAR uni5451
ENCODING 21585
BBX 7 7 0 -1
BITMAP
7C
10
FE
44
BA
28
38
ENDCHAR
STARTCHAR uni5452
ENCODING 21586
BBX 7 7 0 -1
BITMAP
1E
E8
BE
A8
E8
0A
36
ENDCHAR
STARTCHAR uni5453
ENCODING 21587
BBX 7 7 0 -1
BITMAP
14
FE
B4
AE
A4
E8
0E
ENDCHAR
STARTCHAR uni5454
ENCODING 21588
BBX 7 7 0 -1
BITMAP
08
E8
BE
A8
E8
14
2A
ENDCHAR
STARTCHAR uni5455
ENCODING 21589
BBX 7 7 0 -1
BITMAP
3E
E0
AA
A4
AA
E0
3E
ENDCHAR
STARTCHAR uni5456
ENCODING 21590
BBX 7 7 0 -1
BITMAP
3E
E8
BE
AA
AA
EA
36
ENDCHAR
STARTCHAR uni5457
ENCODING 21591
BBX 7 7 0 -1
BITMAP
3E
E2
AA
AA
EA
08
36
ENDCHAR
STARTCHAR uni5458
ENCODING 21592
BBX 7 7 0 -1
BITMAP
7C
44
FE
92
92
28
C6
ENDCHAR
STARTCHAR uni5459
ENCODING 21593
BBX 7 7 0 -1
BITMAP
7C
44
7C
10
FE
92
AA
ENDCHAR
STARTCHAR uni545B
ENCODING 21595
BBX 7 7 0 -1
BITMAP
08
F4
A2
BC
B4
F2
1E
ENDCHAR
STARTCHAR uni545C
ENCODING 21596
BBX 7 7 0 -1
BITMAP
04
EE
AA
A8
AE
E2
1A
ENDCHAR
STARTCHAR uni545F
ENCODING 21599
BBX 7 7 0 -1
BITMAP
08
FE
A8
B4
E8
14
3A
ENDCHAR
STARTCHAR uni5462
ENCODING 21602
BBX 7 7 0 -1
BITMAP
3E
E2
BE
A8
AE
E8
4E
ENDCHAR
STARTCHAR uni5464
ENCODING 21604
BBX 7 7 0 -1
BITMAP
08
F4
A2
A8
BE
EA
04
ENDCHAR
STARTCHAR uni5466
ENCODING 21606
BBX 7 7 0 -1
BITMAP
14
2E
F6
A6
B6
E6
3A
ENDCHAR
STARTCHAR uni5468
ENCODING 21608
BBX 7 7 0 -1
BITMAP
FE
92
BA
92
FE
AA
BA
ENDCHAR
STARTCHAR uni546A
ENCODING 21610
BBX 7 7 0 -1
BITMAP
3E
E2
A2
BE
D4
14
66
ENDCHAR
STARTCHAR uni5470
ENCODING 21616
BBX 7 7 0 -1
BITMAP
24
B6
A4
F6
7C
44
7C
ENDCHAR
STARTCHAR uni5471
ENCODING 21617
BBX 7 7 0 -1
BITMAP
02
FC
B4
B4
F4
16
2A
ENDCHAR
STARTCHAR uni5472
ENCODING 21618
BBX 7 7 0 -1
BITMAP
14
F4
BE
B4
B4
FC
36
ENDCHAR
STARTCHAR uni5473
ENCODING 21619
BBX 7 7 0 -1
BITMAP
08
FC
A8
BE
E8
1C
2A
ENDCHAR
STARTCHAR uni5475
ENCODING 21621
BBX 7 7 0 -1
BITMAP
1E
E2
AE
AA
AE
E2
06
ENDCHAR
STARTCHAR uni5476
ENCODING 21622
BBX 7 7 0 -1
BITMAP
16
D2
FA
EA
F4
14
2A
ENDCHAR
STARTCHAR uni5477
ENCODING 21623
BBX 7 7 0 -1
BITMAP
3E
EA
BE
AA
FE
08
08
ENDCHAR
STARTCHAR uni5478
ENCODING 21624
BBX 7 7 0 -1
BITMAP
0E
E4
A8
BC
EA
08
3E
ENDCHAR
STARTCHAR uni547B
ENCODING 21627
BBX 7 7 0 -1
BITMAP
08
FE
AA
BE
EA
3E
08
ENDCHAR
STARTCHAR uni547C
ENCODING 21628
BBX 7 7 0 -1
BITMAP
3E
08
EA
A8
FE
08
18
ENDCHAR
STARTCHAR uni547D
ENCODING 21629
BBX 7 7 0 -1
BITMAP
10
28
DE
00
EE
EA
08
ENDCHAR
STARTCHAR uni5480
ENCODING 21632
BBX 7 7 0 -1
BITMAP
1C
F4
BC
B4
FC
14
3E
ENDCHAR
STARTCHAR uni5482
ENCODING 21634
BBX 7 7 0 -1
BITMAP
3E
E8
BE
AA
AE
E8
3E
ENDCHAR
STARTCHAR uni5484
ENCODING 21636
BBX 7 7 0 -1
BITMAP
08
EA
FE
C8
EA
2A
3E
ENDCHAR
STARTCHAR uni5486
ENCODING 21638
BBX 7 7 0 -1
BITMAP
08
EE
B2
AE
EE
08
0E
ENDCHAR
STARTCHAR uni548B
ENCODING 21643
BBX 7 7 0 -1
BITMAP
10
1E
E8
AE
E8
0E
08
ENDCHAR
STARTCHAR uni548C
ENCODING 21644
BBX 7 7 0 -1
BITMAP
70
2E
FA
2A
7A
AA
2E
ENDCHAR
STARTCHAR uni548E
ENCODING 21646
BBX 7 7 0 -1
BITMAP
74
D4
2A
D0
7E
44
7C
ENDCHAR
STARTCHAR uni548F
ENCODING 21647
BBX 7 7 0 -1
BITMAP
08
E0
B8
AA
FC
1A
2A
ENDCHAR
STARTCHAR uni5490
ENCODING 21648
BBX 7 7 0 -1
BITMAP
12
EE
A2
AA
E6
22
26
ENDCHAR
STARTCHAR uni5492
ENCODING 21650
BBX 7 7 0 -1
BITMAP
EE
AA
EE
38
28
2A
CE
ENDCHAR
STARTCHAR uni5494
ENCODING 21652
BBX 7 7 0 -1
BITMAP
08
EE
A8
BE
AC
EA
08
ENDCHAR
STARTCHAR uni5495
ENCODING 21653
BBX 7 7 0 -1
BITMAP
04
EE
A4
A4
AE
EA
0E
ENDCHAR
STARTCHAR uni5496
ENCODING 21654
BBX 7 7 0 -1
BITMAP
20
78
EE
AA
EA
2E
58
ENDCHAR
STARTCHAR uni5499
ENCODING 21657
BBX 7 7 0 -1
BITMAP
0A
E8
BE
A8
AA
F4
2A
ENDCHAR
STARTCHAR uni549A
ENCODING 21658
BBX 7 7 0 -1
BITMAP
08
EE
BA
A4
BA
E0
0C
ENDCHAR
STARTCHAR uni549B
ENCODING 21659
BBX 7 7 0 -1
BITMAP
08
FE
A2
BC
E8
08
18
ENDCHAR
STARTCHAR uni549D
ENCODING 21661
BBX 7 7 0 -1
BITMAP
14
EA
B4
AA
F4
00
3E
ENDCHAR
STARTCHAR uni54A2
ENCODING 21666
BBX 7 7 0 -1
BITMAP
EE
AA
7C
FE
20
3C
04
ENDCHAR
STARTCHAR uni54A3
ENCODING 21667
BBX 7 7 0 -1
BITMAP
2A
08
FE
B4
F4
14
26
ENDCHAR
STARTCHAR uni54A4
ENCODING 21668
BBX 7 7 0 -1
BITMAP
08
FE
A6
B8
BE
E8
0E
ENDCHAR
STARTCHAR uni54A5
ENCODING 21669
BBX 7 7 0 -1
BITMAP
3E
D4
FA
C8
DC
08
3E
ENDCHAR
STARTCHAR uni54A6
ENCODING 21670
BBX 7 7 0 -1
BITMAP
08
3E
CC
D8
DE
08
36
ENDCHAR
STARTCHAR uni54A7
ENCODING 21671
BBX 7 7 0 -1
BITMAP
3A
12
EA
BE
EE
12
26
ENDCHAR
STARTCHAR uni54A8
ENCODING 21672
BBX 7 7 0 -1
BITMAP
90
1E
2A
94
7C
44
7C
ENDCHAR
STARTCHAR uni54A9
ENCODING 21673
BBX 7 7 0 -1
BITMAP
0A
FE
A4
AE
A4
EE
04
ENDCHAR
STARTCHAR uni54AA
ENCODING 21674
BBX 7 7 0 -1
BITMAP
2A
E8
BE
E8
1C
2A
08
ENDCHAR
STARTCHAR uni54AB
ENCODING 21675
BBX 7 7 0 -1
BITMAP
76
56
56
60
6A
50
8E
ENDCHAR
STARTCHAR uni54AC
ENCODING 21676
BBX 7 7 0 -1
BITMAP
08
FE
D4
E2
D4
08
36
ENDCHAR
STARTCHAR uni54AD
ENCODING 21677
BBX 7 7 0 -1
BITMAP
08
FE
A8
BC
A0
DC
1C
ENDCHAR
STARTCHAR uni54AF
ENCODING 21679
BBX 7 7 0 -1
BITMAP
0C
F4
A8
B4
E2
1C
1C
ENDCHAR
STARTCHAR uni54B1
ENCODING 21681
BBX 7 7 0 -1
BITMAP
08
1E
F2
BE
BE
F2
1E
ENDCHAR
STARTCHAR uni54B2
ENCODING 21682
BBX 7 7 0 -1
BITMAP
14
E0
BE
A8
FE
08
36
ENDCHAR
STARTCHAR uni54B3
ENCODING 21683
BBX 7 7 0 -1
BITMAP
04
FE
A8
B4
EA
04
1A
ENDCHAR
STARTCHAR uni54B4
ENCODING 21684
BBX 7 7 0 -1
BITMAP
08
FE
A8
AA
F4
34
4A
ENDCHAR
STARTCHAR uni54B8
ENCODING 21688
BBX 7 7 0 -1
BITMAP
04
7E
44
74
46
74
BA
ENDCHAR
STARTCHAR uni54BB
ENCODING 21691
BBX 7 7 0 -1
BITMAP
14
E4
BE
A4
AE
F6
24
ENDCHAR
STARTCHAR uni54BC
ENCODING 21692
BBX 7 7 0 -1
BITMAP
7C
5C
54
FE
BA
AA
BA
ENDCHAR
STARTCHAR uni54BD
ENCODING 21693
BBX 7 7 0 -1
BITMAP
3E
EA
BE
AA
F6
22
3E
ENDCHAR
STARTCHAR uni54BE
ENCODING 21694
BBX 7 7 0 -1
BITMAP
0A
DC
C8
FE
D0
28
0E
ENDCHAR
STARTCHAR uni54BF
ENCODING 21695
BBX 7 7 0 -1
BITMAP
2E
E6
AE
A6
EE
24
28
ENDCHAR
STARTCHAR uni54C0
ENCODING 21696
BBX 7 7 0 -1
BITMAP
10
FE
44
7C
2A
E4
32
ENDCHAR
STARTCHAR uni54C1
ENCODING 21697
BBX 7 7 0 -1
BITMAP
7C
44
7C
00
EE
AA
EE
ENDCHAR
STARTCHAR uni54C2
ENCODING 21698
BBX 7 7 0 -1
BITMAP
3E
D4
BE
B6
F6
22
3E
ENDCHAR
STARTCHAR uni54C4
ENCODING 21700
BBX 7 7 0 -1
BITMAP
14
FE
D4
D4
FE
00
22
ENDCHAR
STARTCHAR uni54C6
ENCODING 21702
BBX 7 7 0 -1
BITMAP
08
EE
B2
AC
F2
0A
3C
ENDCHAR
STARTCHAR uni54C7
ENCODING 21703
BBX 7 7 0 -1
BITMAP
08
1C
E8
BE
FC
08
3E
ENDCHAR
STARTCHAR uni54C8
ENCODING 21704
BBX 7 7 0 -1
BITMAP
1C
E2
BC
A0
FC
14
1C
ENDCHAR
STARTCHAR uni54C9
ENCODING 21705
BBX 7 7 0 -1
BITMAP
28
7A
28
FE
06
64
6A
ENDCHAR
STARTCHAR uni54CC
ENCODING 21708
BBX 7 7 0 -1
BITMAP
3E
E0
BE
B0
BA
F4
5A
ENDCHAR
STARTCHAR uni54CD
ENCODING 21709
BBX 7 7 0 -1
BITMAP
08
3E
E2
BA
AA
FA
26
ENDCHAR
STARTCHAR uni54CE
ENCODING 21710
BBX 7 7 0 -1
BITMAP
14
3E
D4
A0
B4
C8
36
ENDCHAR
STARTCHAR uni54CF
ENCODING 21711
BBX 7 7 0 -1
BITMAP
1E
F2
BE
B0
FA
14
1A
ENDCHAR
STARTCHAR uni54D0
ENCODING 21712
BBX 7 7 0 -1
BITMAP
3E
E0
AE
A4
AE
E0
3E
ENDCHAR
STARTCHAR uni54D1
ENCODING 21713
BBX 7 7 0 -1
BITMAP
7E
28
EA
AA
EA
28
7E
ENDCHAR
STARTCHAR uni54D2
ENCODING 21714
BBX 7 7 0 -1
BITMAP
24
04
EE
A4
EA
20
5E
ENDCHAR
STARTCHAR uni54D3
ENCODING 21715
BBX 7 7 0 -1
BITMAP
0A
FC
AA
A0
FE
14
26
ENDCHAR
STARTCHAR uni54D4
ENCODING 21716
BBX 7 7 0 -1
BITMAP
24
36
E4
B6
C8
3E
08
ENDCHAR
STARTCHAR uni54D5
ENCODING 21717
BBX 7 7 0 -1
BITMAP
2A
EA
BE
A8
F4
08
30
ENDCHAR
STARTCHAR uni54D7
ENCODING 21719
BBX 7 7 0 -1
BITMAP
16
F4
B6
A0
A4
EE
04
ENDCHAR
STARTCHAR uni54D8
ENCODING 21720
BBX 7 7 0 -1
BITMAP
16
E0
B6
B2
F2
12
16
ENDCHAR
STARTCHAR uni54D9
ENCODING 21721
BBX 7 7 0 -1
BITMAP
0C
F2
AC
A0
BE
EC
1A
ENDCHAR
STARTCHAR uni54DA
ENCODING 21722
BBX 7 7 0 -1
BITMAP
1C
F6
A8
BE
E8
1C
2A
ENDCHAR
STARTCHAR uni54DC
ENCODING 21724
BBX 7 7 0 -1
BITMAP
08
F6
A8
B6
E0
14
24
ENDCHAR
STARTCHAR uni54DD
ENCODING 21725
BBX 7 7 0 -1
BITMAP
08
FE
A8
AA
F4
52
18
ENDCHAR
STARTCHAR uni54DE
ENCODING 21726
BBX 7 7 0 -1
BITMAP
04
EA
B4
BE
B4
FE
04
ENDCHAR
STARTCHAR uni54DF
ENCODING 21727
BBX 7 7 0 -1
BITMAP
14
EE
B2
A6
B6
E2
36
ENDCHAR
STARTCHAR uni54E1
ENCODING 21729
BBX 7 7 0 -1
BITMAP
38
28
7C
7C
44
7C
C6
ENDCHAR
STARTCHAR uni54E2
ENCODING 21730
BBX 7 7 0 -1
BITMAP
3E
C8
FE
D4
FE
14
24
ENDCHAR
STARTCHAR uni54E5
ENCODING 21733
BBX 7 7 0 -1
BITMAP
FE
54
74
04
FE
54
74
ENDCHAR
STARTCHAR uni54E6
ENCODING 21734
BBX 7 7 0 -1
BITMAP
3E
D4
FE
D4
D6
3C
12
ENDCHAR
STARTCHAR uni54E7
ENCODING 21735
BBX 7 7 0 -1
BITMAP
08
1C
E8
BE
F4
36
14
ENDCHAR
STARTCHAR uni54E8
ENCODING 21736
BBX 7 7 0 -1
BITMAP
16
E4
BE
B2
FE
12
16
ENDCHAR
STARTCHAR uni54E9
ENCODING 21737
BBX 7 7 0 -1
BITMAP
3E
EA
BE
AA
FE
08
3E
ENDCHAR
STARTCHAR uni54EA
ENCODING 21738
BBX 7 7 0 -1
BITMAP
3E
D6
FC
D6
FE
14
2C
ENDCHAR
STARTCHAR uni54ED
ENCODING 21741
BBX 7 7 0 -1
BITMAP
EE
AA
EE
14
FE
10
EE
ENDCHAR
STARTCHAR uni54EE
ENCODING 21742
BBX 7 7 0 -1
BITMAP
0A
DC
C8
FE
D4
2E
04
ENDCHAR
STARTCHAR uni54F2
ENCODING 21746
BBX 7 7 0 -1
BITMAP
44
D8
5E
D4
7C
44
7C
ENDCHAR
STARTCHAR uni54F3
ENCODING 21747
BBX 7 7 0 -1
BITMAP
2E
78
28
EE
FA
2A
6A
ENDCHAR
STARTCHAR uni54FA
ENCODING 21754
BBX 7 7 0 -1
BITMAP
0A
FE
A8
BE
EA
3E
2A
ENDCHAR
STARTCHAR uni54FC
ENCODING 21756
BBX 7 7 0 -1
BITMAP
08
FE
AC
A0
AE
E4
0C
ENDCHAR
STARTCHAR uni54FD
ENCODING 21757
BBX 7 7 0 -1
BITMAP
3E
DC
DC
C8
D8
08
36
ENDCHAR
STARTCHAR uni54FF
ENCODING 21759
BBX 7 7 0 -1
BITMAP
40
F6
56
B0
FE
54
74
ENDCHAR
STARTCHAR uni5501
ENCODING 21761
BBX 7 7 0 -1
BITMAP
0E
E0
AE
A0
AE
EA
0E
ENDCHAR
STARTCHAR uni5504
ENCODING 21764
BBX 7 7 0 -1
BITMAP
3E
E2
BE
A2
FE
00
22
ENDCHAR
STARTCHAR uni5506
ENCODING 21766
BBX 7 7 0 -1
BITMAP
12
FE
D4
E6
DC
28
16
ENDCHAR
STARTCHAR uni5507
ENCODING 21767
BBX 7 7 0 -1
BITMAP
7E
5C
7E
68
B6
3C
3C
ENDCHAR
STARTCHAR uni5509
ENCODING 21769
BBX 7 7 0 -1
BITMAP
04
EA
BE
A8
BE
E8
16
ENDCHAR
STARTCHAR uni550F
ENCODING 21775
BBX 7 7 0 -1
BITMAP
14
C8
D4
FE
C8
1E
2A
ENDCHAR
STARTCHAR uni5510
ENCODING 21776
BBX 7 7 0 -1
BITMAP
08
7E
5C
4E
7C
54
9C
ENDCHAR
STARTCHAR uni5511
ENCODING 21777
BBX 7 7 0 -1
BITMAP
14
F4
AA
A8
FC
08
3E
ENDCHAR
STARTCHAR uni5514
ENCODING 21780
BBX 7 7 0 -1
BITMAP
1C
C8
FC
D4
FE
14
1C
ENDCHAR
STARTCHAR uni5516
ENCODING 21782
BBX 7 7 0 -1
BITMAP
3E
D4
BE
B6
FE
14
3E
ENDCHAR
STARTCHAR uni551B
ENCODING 21787
BBX 7 7 0 -1
BITMAP
08
3E
E8
BE
B4
EC
12
ENDCHAR
STARTCHAR uni5520
ENCODING 21792
BBX 7 7 0 -1
BITMAP
0C
FE
AC
B2
BE
EA
16
ENDCHAR
STARTCHAR uni5522
ENCODING 21794
BBX 7 7 0 -1
BITMAP
2A
E8
BE
A2
EA
14
22
ENDCHAR
STARTCHAR uni5523
ENCODING 21795
BBX 7 7 0 -1
BITMAP
08
14
FC
A8
BE
E8
0E
ENDCHAR
STARTCHAR uni5524
ENCODING 21796
BBX 7 7 0 -1
BITMAP
08
D4
FC
D4
FE
C8
36
ENDCHAR
STARTCHAR uni5527
ENCODING 21799
BBX 7 7 0 -1
BITMAP
38
EE
AA
BA
E4
34
24
ENDCHAR
STARTCHAR uni552A
ENCODING 21802
BBX 7 7 0 -1
BITMAP
08
FE
A8
B4
AA
FC
08
ENDCHAR
STARTCHAR uni552C
ENCODING 21804
BBX 7 7 0 -1
BITMAP
08
FE
AA
AC
E0
2C
56
ENDCHAR
STARTCHAR uni552E
ENCODING 21806
BBX 7 7 0 -1
BITMAP
28
3E
68
BE
3C
24
3C
ENDCHAR
STARTCHAR uni552F
ENCODING 21807
BBX 7 7 0 -1
BITMAP
14
FE
B4
BE
F4
14
1E
ENDCHAR
STARTCHAR uni5530
ENCODING 21808
BBX 7 7 0 -1
BITMAP
3A
EA
BE
A6
FE
3A
56
ENDCHAR
STARTCHAR uni5531
ENCODING 21809
BBX 7 7 0 -1
BITMAP
1C
F4
BE
A2
FE
22
3E
ENDCHAR
STARTCHAR uni5533
ENCODING 21811
BBX 7 7 0 -1
BITMAP
3E
E2
BE
A8
FE
48
36
ENDCHAR
STARTCHAR uni5537
ENCODING 21815
BBX 7 7 0 -1
BITMAP
08
FE
B4
BE
A2
FE
22
ENDCHAR
STARTCHAR uni5538
ENCODING 21816
BBX 7 7 0 -1
BITMAP
08
D4
EE
DC
C4
32
2E
ENDCHAR
STARTCHAR uni5539
ENCODING 21817
BBX 7 7 0 -1
BITMAP
14
FA
D0
DC
DA
2C
2A
ENDCHAR
STARTCHAR uni553C
ENCODING 21820
BBX 7 7 0 -1
BITMAP
08
FE
B4
A8
BE
E8
36
ENDCHAR
STARTCHAR uni553E
ENCODING 21822
BBX 7 7 0 -1
BITMAP
1C
C8
FE
D4
FE
08
3E
ENDCHAR
STARTCHAR uni553F
ENCODING 21823
BBX 7 7 0 -1
BITMAP
10
FE
AA
B6
E0
1A
2E
ENDCHAR
STARTCHAR uni5540
ENCODING 21824
BBX 7 7 0 -1
BITMAP
3E
E4
AE
A4
EE
24
5E
ENDCHAR
STARTCHAR uni5541
ENCODING 21825
BBX 7 7 0 -1
BITMAP
3E
EA
BE
AA
BE
E2
2A
ENDCHAR
STARTCHAR uni5543
ENCODING 21827
BBX 8 7 0 -1
BITMAP
0E
28
FF
A2
BE
E2
26
ENDCHAR
STARTCHAR uni5544
ENCODING 21828
BBX 7 7 0 -1
BITMAP
3E
10
DA
AC
DC
2A
18
ENDCHAR
STARTCHAR uni5545
ENCODING 21829
BBX 7 7 0 -1
BITMAP
08
CE
DC
D4
DC
3E
08
ENDCHAR
STARTCHAR uni5546
ENCODING 21830
BBX 7 7 0 -1
BITMAP
10
FE
28
FE
C6
BA
BA
ENDCHAR
STARTCHAR uni5549
ENCODING 21833
BBX 7 7 0 -1
BITMAP
24
FE
A4
EC
76
A4
24
ENDCHAR
STARTCHAR uni554A
ENCODING 21834
BBX 7 7 0 -1
BITMAP
36
F2
AE
BA
BE
E2
26
ENDCHAR
STARTCHAR uni554C
ENCODING 21836
BBX 7 7 0 -1
BITMAP
08
FE
B6
A0
FC
08
3E
ENDCHAR
STARTCHAR uni554F
ENCODING 21839
BBX 7 7 0 -1
BITMAP
EE
AA
EE
82
BA
AA
BA
ENDCHAR
STARTCHAR uni5550
ENCODING 21840
BBX 7 7 0 -1
BITMAP
08
FE
B4
AA
E8
3E
08
ENDCHAR
STARTCHAR uni5553
ENCODING 21843
BBX 7 7 0 -1
BITMAP
F6
5A
74
8A
7C
44
7C
ENDCHAR
STARTCHAR uni5555
ENCODING 21845
BBX 7 7 0 -1
BITMAP
10
1E
EA
BE
AA
FE
06
ENDCHAR
STARTCHAR uni5556
ENCODING 21846
BBX 7 7 0 -1
BITMAP
2A
14
E2
A8
EA
14
22
ENDCHAR
STARTCHAR uni5557
ENCODING 21847
BBX 7 7 0 -1
BITMAP
0E
D2
C4
D6
E2
36
3E
ENDCHAR
STARTCHAR uni555C
ENCODING 21852
BBX 7 7 0 -1
BITMAP
3E
D4
AA
BE
EA
14
2A
ENDCHAR
STARTCHAR uni555D
ENCODING 21853
BBX 7 7 0 -1
BITMAP
38
D6
FE
D6
D8
34
52
ENDCHAR
STARTCHAR uni5561
ENCODING 21857
BBX 7 7 0 -1
BITMAP
14
F6
D4
F6
D4
F6
14
ENDCHAR
STARTCHAR uni5563
ENCODING 21859
BBX 7 7 0 -1
BITMAP
26
FE
D6
DE
F6
3C
04
ENDCHAR
STARTCHAR uni5564
ENCODING 21860
BBX 7 7 0 -1
BITMAP
08
DE
DE
DE
14
3E
04
ENDCHAR
STARTCHAR uni5565
ENCODING 21861
BBX 7 7 0 -1
BITMAP
08
F4
BE
A8
BC
E4
3C
ENDCHAR
STARTCHAR uni5566
ENCODING 21862
BBX 7 7 0 -1
BITMAP
14
3E
D0
BA
DA
14
3E
ENDCHAR
STARTCHAR uni5567
ENCODING 21863
BBX 7 7 0 -1
BITMAP
08
3E
E8
BE
A2
C8
36
ENDCHAR
STARTCHAR uni556A
ENCODING 21866
BBX 7 7 0 -1
BITMAP
24
FE
AA
AE
FA
2A
6E
ENDCHAR
STARTCHAR uni556C
ENCODING 21868
BBX 7 7 0 -1
BITMAP
10
FE
54
FE
AA
BA
FE
ENDCHAR
STARTCHAR uni556D
ENCODING 21869
BBX 7 7 0 -1
BITMAP
14
FE
B4
BE
D4
3A
14
ENDCHAR
STARTCHAR uni556E
ENCODING 21870
BBX 7 7 0 -1
BITMAP
0E
E8
BE
AA
B6
E2
3E
ENDCHAR
STARTCHAR uni5575
ENCODING 21877
BBX 7 7 0 -1
BITMAP
24
DE
B4
DE
2A
24
5A
ENDCHAR
STARTCHAR uni5576
ENCODING 21878
BBX 7 7 0 -1
BITMAP
08
FE
A2
BC
A8
F8
16
ENDCHAR
STARTCHAR uni5577
ENCODING 21879
BBX 7 7 0 -1
BITMAP
26
F6
D4
F6
56
64
54
ENDCHAR
STARTCHAR uni5578
ENCODING 21880
BBX 7 7 0 -1
BITMAP
08
FC
AE
BC
EA
3E
2A
ENDCHAR
STARTCHAR uni557B
ENCODING 21883
BBX 7 7 0 -1
BITMAP
10
FE
24
FE
AA
7C
7C
ENDCHAR
STARTCHAR uni557C
ENCODING 21884
BBX 7 7 0 -1
BITMAP
08
FE
D4
FE
EA
1C
14
ENDCHAR
STARTCHAR uni557E
ENCODING 21886
BBX 7 7 0 -1
BITMAP
34
D4
FE
DC
F4
34
1A
ENDCHAR
STARTCHAR uni5580
ENCODING 21888
BBX 7 7 0 -1
BITMAP
08
FE
EE
D4
C8
36
1C
ENDCHAR
STARTCHAR uni5581
ENCODING 21889
BBX 7 7 0 -1
BITMAP
3E
EA
BE
C8
3E
36
2A
ENDCHAR
STARTCHAR uni5582
ENCODING 21890
BBX 7 7 0 -1
BITMAP
3E
EA
BE
AA
DE
34
1A
ENDCHAR
STARTCHAR uni5583
ENCODING 21891
BBX 7 7 0 -1
BITMAP
08
FE
C8
F6
EA
3E
2A
ENDCHAR
STARTCHAR uni5584
ENCODING 21892
BBX 7 7 0 -1
BITMAP
44
FE
10
FE
54
FE
7C
ENDCHAR
STARTCHAR uni5587
ENCODING 21895
BBX 7 7 0 -1
BITMAP
12
FE
B6
BE
D2
3A
56
ENDCHAR
STARTCHAR uni5588
ENCODING 21896
BBX 7 7 0 -1
BITMAP
24
36
E4
B6
C8
3E
3E
ENDCHAR
STARTCHAR uni5589
ENCODING 21897
BBX 7 7 0 -1
BITMAP
2C
E4
BE
A8
FE
24
3A
ENDCHAR
STARTCHAR uni558A
ENCODING 21898
BBX 7 7 0 -1
BITMAP
04
FE
A4
BC
E6
3C
5A
ENDCHAR
STARTCHAR uni558B
ENCODING 21899
BBX 7 7 0 -1
BITMAP
2A
FE
AE
A0
FE
1C
2A
ENDCHAR
STARTCHAR uni558F
ENCODING 21903
BBX 7 7 0 -1
BITMAP
14
3E
D4
C8
FE
34
5C
ENDCHAR
STARTCHAR uni5591
ENCODING 21905
BBX 7 7 0 -1
BITMAP
08
FE
B4
BE
C0
1C
1C
ENDCHAR
STARTCHAR uni5594
ENCODING 21908
BBX 7 7 0 -1
BITMAP
3E
E2
BE
AA
AE
E4
2E
ENDCHAR
STARTCHAR uni5598
ENCODING 21912
BBX 7 7 0 -1
BITMAP
2A
FE
C0
FE
D0
3E
2A
ENDCHAR
STARTCHAR uni5599
ENCODING 21913
BBX 7 7 0 -1
BITMAP
0E
D4
FE
E8
DA
2C
1A
ENDCHAR
STARTCHAR uni559A
ENCODING 21914
BBX 7 7 0 -1
BITMAP
1C
E4
DC
DC
FE
08
36
ENDCHAR
STARTCHAR uni559C
ENCODING 21916
BBX 7 7 0 -1
BITMAP
10
FE
7C
28
FE
44
7C
ENDCHAR
STARTCHAR uni559D
ENCODING 21917
BBX 7 7 0 -1
BITMAP
1C
D4
DC
DE
F2
1A
06
ENDCHAR
STARTCHAR uni559E
ENCODING 21918
BBX 7 7 0 -1
BITMAP
16
FE
AE
BE
E6
34
24
ENDCHAR
STARTCHAR uni559F
ENCODING 21919
BBX 7 7 0 -1
BITMAP
3E
EA
BE
BE
F4
1C
14
ENDCHAR
STARTCHAR uni55A7
ENCODING 21927
BBX 7 7 0 -1
BITMAP
08
FE
E2
DC
C0
1C
3E
ENDCHAR
STARTCHAR uni55A8
ENCODING 21928
BBX 7 7 0 -1
BITMAP
08
FE
D4
FE
E2
14
26
ENDCHAR
STARTCHAR uni55A9
ENCODING 21929
BBX 7 7 0 -1
BITMAP
38
D4
EE
C0
FA
3C
2A
ENDCHAR
STARTCHAR uni55AA
ENCODING 21930
BBX 7 7 0 -1
BITMAP
10
FE
76
10
FE
68
B6
ENDCHAR
STARTCHAR uni55AB
ENCODING 21931
BBX 7 7 0 -1
BITMAP
16
FE
D6
FA
DC
08
36
ENDCHAR
STARTCHAR uni55AC
ENCODING 21932
BBX 7 7 0 -1
BITMAP
38
FE
28
D6
FE
AA
BA
ENDCHAR
STARTCHAR uni55AE
ENCODING 21934
BBX 7 7 0 -1
BITMAP
EE
AA
D6
7C
54
FE
10
ENDCHAR
STARTCHAR uni55B0
ENCODING 21936
BBX 7 7 0 -1
BITMAP
08
D4
EA
D8
DA
14
1A
ENDCHAR
STARTCHAR uni55B1
ENCODING 21937
BBX 7 7 0 -1
BITMAP
3E
E0
AE
AE
EE
24
2E
ENDCHAR
STARTCHAR uni55B3
ENCODING 21939
BBX 7 7 0 -1
BITMAP
08
FE
BC
AA
FC
14
3E
ENDCHAR
STARTCHAR uni55B5
ENCODING 21941
BBX 7 7 0 -1
BITMAP
14
FE
B4
AA
BE
EA
3E
ENDCHAR
STARTCHAR uni55B6
ENCODING 21942
BBX 7 7 0 -1
BITMAP
54
FE
AA
38
7C
44
7C
ENDCHAR
STARTCHAR uni55B7
ENCODING 21943
BBX 7 7 0 -1
BITMAP
08
3E
E8
B4
FE
2A
14
ENDCHAR
STARTCHAR uni55B9
ENCODING 21945
BBX 7 7 0 -1
BITMAP
08
FE
BC
AA
FE
08
3E
ENDCHAR
STARTCHAR uni55BB
ENCODING 21947
BBX 7 7 0 -1
BITMAP
1C
E2
BC
A2
F6
36
32
ENDCHAR
STARTCHAR uni55BD
ENCODING 21949
BBX 7 7 0 -1
BITMAP
2A
FC
AA
A8
F6
08
36
ENDCHAR
STARTCHAR uni55BE
ENCODING 21950
BBX 7 7 0 -1
BITMAP
54
FE
AA
48
FE
28
38
ENDCHAR
STARTCHAR uni55C4
ENCODING 21956
BBX 7 7 0 -1
BITMAP
3E
C8
DC
DC
F4
08
36
ENDCHAR
STARTCHAR uni55C5
ENCODING 21957
BBX 7 7 0 -1
BITMAP
08
DC
D4
DC
FE
08
36
ENDCHAR
STARTCHAR uni55C7
ENCODING 21959
BBX 7 7 0 -1
BITMAP
10
FE
54
BA
FE
6C
7C
ENDCHAR
STARTCHAR uni55C9
ENCODING 21961
BBX 7 7 0 -1
BITMAP
08
DC
FE
D4
FA
08
2A
ENDCHAR
STARTCHAR uni55CC
ENCODING 21964
BBX 7 7 0 -1
BITMAP
12
EC
B2
A0
FC
14
3E
ENDCHAR
STARTCHAR uni55CD
ENCODING 21965
BBX 7 7 0 -1
BITMAP
28
06
FA
AE
FA
1E
2A
ENDCHAR
STARTCHAR uni55D1
ENCODING 21969
BBX 7 7 0 -1
BITMAP
08
1C
E8
BE
A0
DC
3E
ENDCHAR
STARTCHAR uni55D2
ENCODING 21970
BBX 7 7 0 -1
BITMAP
14
3E
D4
E2
DC
D4
1C
ENDCHAR
STARTCHAR uni55D3
ENCODING 21971
BBX 7 7 0 -1
BITMAP
1C
08
F6
AA
FE
1C
2A
ENDCHAR
STARTCHAR uni55D4
ENCODING 21972
BBX 7 7 0 -1
BITMAP
08
FE
D4
DC
D4
3E
14
ENDCHAR
STARTCHAR uni55D6
ENCODING 21974
BBX 7 7 0 -1
BITMAP
36
E2
B6
A2
DC
08
36
ENDCHAR
STARTCHAR uni55DA
ENCODING 21978
BBX 7 7 0 -1
BITMAP
04
EA
AE
A8
AE
E2
0A
ENDCHAR
STARTCHAR uni55DC
ENCODING 21980
BBX 7 7 0 -1
BITMAP
0A
DC
FE
D8
EE
1C
1C
ENDCHAR
STARTCHAR uni55DD
ENCODING 21981
BBX 7 7 0 -1
BITMAP
3E
14
FE
B6
AA
FE
2A
ENDCHAR
STARTCHAR uni55DF
ENCODING 21983
BBX 7 7 0 -1
BITMAP
14
FE
C8
FE
DE
14
2E
ENDCHAR
STARTCHAR uni55E1
ENCODING 21985
BBX 7 7 0 -1
BITMAP
1C
EA
D4
DA
B6
5A
36
ENDCHAR
STARTCHAR uni55E3
ENCODING 21987
BBX 7 7 0 -1
BITMAP
6E
62
0E
F2
FE
DE
92
ENDCHAR
STARTCHAR uni55E4
ENCODING 21988
BBX 7 7 0 -1
BITMAP
2A
FE
C8
FE
DC
0A
3E
ENDCHAR
STARTCHAR uni55E5
ENCODING 21989
BBX 7 7 0 -1
BITMAP
08
1C
D4
DC
EA
1C
08
ENDCHAR
STARTCHAR uni55E6
ENCODING 21990
BBX 7 7 0 -1
BITMAP
08
3E
EA
B4
EA
1C
2A
ENDCHAR
STARTCHAR uni55E8
ENCODING 21992
BBX 7 7 0 -1
BITMAP
28
DE
AA
BE
CA
2E
22
ENDCHAR
STARTCHAR uni55EA
ENCODING 21994
BBX 7 7 0 -1
BITMAP
1C
08
FE
B4
EA
1C
2A
ENDCHAR
STARTCHAR uni55EB
ENCODING 21995
BBX 7 7 0 -1
BITMAP
3E
14
FE
A4
FE
14
2A
ENDCHAR
STARTCHAR uni55EC
ENCODING 21996
BBX 7 7 0 -1
BITMAP
14
3E
D4
BE
EC
2C
24
ENDCHAR
STARTCHAR uni55EF
ENCODING 21999
BBX 7 7 0 -1
BITMAP
FE
AA
B6
BE
E0
14
5A
ENDCHAR
STARTCHAR uni55F2
ENCODING 22002
BBX 7 7 0 -1
BITMAP
14
EA
B4
AA
D4
0C
38
ENDCHAR
STARTCHAR uni55F3
ENCODING 22003
BBX 7 7 0 -1
BITMAP
3E
D4
BE
AA
DC
24
1A
ENDCHAR
STARTCHAR uni55F5
ENCODING 22005
BBX 7 7 0 -1
BITMAP
2E
04
EE
AE
EE
2A
5E
ENDCHAR
STARTCHAR uni55F7
ENCODING 22007
BBX 7 7 0 -1
BITMAP
14
FE
D6
FE
D6
1C
2A
ENDCHAR
STARTCHAR uni55F9
ENCODING 22009
BBX 7 7 0 -1
BITMAP
24
DE
EC
CC
DE
24
3E
ENDCHAR
STARTCHAR uni55FD
ENCODING 22013
BBX 7 7 0 -1
BITMAP
14
FE
BA
BC
D4
34
5A
ENDCHAR
STARTCHAR uni55FE
ENCODING 22014
BBX 7 7 0 -1
BITMAP
14
FE
D6
DC
DE
2C
2A
ENDCHAR
STARTCHAR uni5600
ENCODING 22016
BBX 7 7 0 -1
BITMAP
08
3E
D4
BE
AA
F6
2A
ENDCHAR
STARTCHAR uni5601
ENCODING 22017
BBX 7 7 0 -1
BITMAP
04
7E
D4
BC
D6
7C
52
ENDCHAR
STARTCHAR uni5606
ENCODING 22022
BBX 7 7 0 -1
BITMAP
14
FE
AA
BE
FE
08
36
ENDCHAR
STARTCHAR uni5608
ENCODING 22024
BBX 7 7 0 -1
BITMAP
14
3E
D4
BE
BE
D4
1C
ENDCHAR
STARTCHAR uni5609
ENCODING 22025
BBX 7 7 0 -1
BITMAP
10
FE
7C
28
FE
5A
BE
ENDCHAR
STARTCHAR uni560C
ENCODING 22028
BBX 7 7 0 -1
BITMAP
1E
CC
DE
DE
C0
1C
2A
ENDCHAR
STARTCHAR uni560E
ENCODING 22030
BBX 7 7 0 -1
BITMAP
1E
E8
BE
B2
FE
08
16
ENDCHAR
STARTCHAR uni560F
ENCODING 22031
BBX 7 7 0 -1
BITMAP
5E
EA
5E
F0
AE
F4
2A
ENDCHAR
STARTCHAR uni5614
ENCODING 22036
BBX 7 7 0 -1
BITMAP
3E
EC
AC
A0
F6
36
3E
ENDCHAR
STARTCHAR uni5616
ENCODING 22038
BBX 7 7 0 -1
BITMAP
08
DC
C8
FE
DC
1C
22
ENDCHAR
STARTCHAR uni5617
ENCODING 22039
BBX 7 7 0 -1
BITMAP
54
FE
BA
40
7E
44
7C
ENDCHAR
STARTCHAR uni5618
ENCODING 22040
BBX 7 7 0 -1
BITMAP
08
EE
B8
AE
E0
34
5E
ENDCHAR
STARTCHAR uni561B
ENCODING 22043
BBX 7 7 0 -1
BITMAP
08
FE
D4
FE
D4
7E
94
ENDCHAR
STARTCHAR uni561E
ENCODING 22046
BBX 7 7 0 -1
BITMAP
28
3E
D6
AE
D6
3A
16
ENDCHAR
STARTCHAR uni561F
ENCODING 22047
BBX 7 7 0 -1
BITMAP
16
FE
D4
FE
26
74
34
ENDCHAR
STARTCHAR uni5623
ENCODING 22051
BBX 7 7 0 -1
BITMAP
2A
3E
C0
B6
AA
FE
2A
ENDCHAR
STARTCHAR uni5624
ENCODING 22052
BBX 7 7 0 -1
BITMAP
3E
2A
D4
AA
FE
08
36
ENDCHAR
STARTCHAR uni5627
ENCODING 22055
BBX 7 7 0 -1
BITMAP
08
3E
EA
B4
C8
2A
3E
ENDCHAR
STARTCHAR uni5629
ENCODING 22057
BBX 7 7 0 -1
BITMAP
14
FE
DC
FE
DC
3E
08
ENDCHAR
STARTCHAR uni562C
ENCODING 22060
BBX 7 7 0 -1
BITMAP
1C
D4
FE
D8
DE
3C
0A
ENDCHAR
STARTCHAR uni562D
ENCODING 22061
BBX 7 7 0 -1
BITMAP
3A
14
FA
D4
EA
14
38
ENDCHAR
STARTCHAR uni562F
ENCODING 22063
BBX 7 7 0 -1
BITMAP
08
DC
CE
F4
E2
36
56
ENDCHAR
STARTCHAR uni5631
ENCODING 22065
BBX 7 7 0 -1
BITMAP
3E
FE
A4
AC
FE
36
5A
ENDCHAR
STARTCHAR uni5632
ENCODING 22066
BBX 7 7 0 -1
BITMAP
16
3A
D6
AA
D6
3A
12
ENDCHAR
STARTCHAR uni5634
ENCODING 22068
BBX 7 7 0 -1
BITMAP
24
F6
EC
F6
DC
1C
24
ENDCHAR
STARTCHAR uni5636
ENCODING 22070
BBX 7 7 0 -1
BITMAP
2E
F8
AE
BA
BA
C2
2A
ENDCHAR
STARTCHAR uni5638
ENCODING 22072
BBX 7 7 0 -1
BITMAP
20
FE
D4
FE
D4
3E
2A
ENDCHAR
STARTCHAR uni5639
ENCODING 22073
BBX 7 7 0 -1
BITMAP
08
FE
D4
EA
DC
2A
18
ENDCHAR
STARTCHAR uni563B
ENCODING 22075
BBX 7 7 0 -1
BITMAP
3E
1C
E2
BE
D4
3E
1C
ENDCHAR
STARTCHAR uni563F
ENCODING 22079
BBX 7 7 0 -1
BITMAP
3E
EA
BE
BE
E8
3E
54
ENDCHAR
STARTCHAR uni5642
ENCODING 22082
BBX 7 7 0 -1
BITMAP
14
FE
B6
A2
FE
14
0C
ENDCHAR
STARTCHAR uni564C
ENCODING 22092
BBX 7 7 0 -1
BITMAP
14
FE
AA
BE
FC
14
1C
ENDCHAR
STARTCHAR uni564D
ENCODING 22093
BBX 7 7 0 -1
BITMAP
14
3E
D4
DE
D4
00
2A
ENDCHAR
STARTCHAR uni564E
ENCODING 22094
BBX 7 7 0 -1
BITMAP
08
FE
C8
FE
EA
14
3E
ENDCHAR
STARTCHAR uni5650
ENCODING 22096
BBX 7 7 0 -1
BITMAP
6C
6C
FE
10
FE
6C
6C
ENDCHAR
STARTCHAR uni5654
ENCODING 22100
BBX 7 7 0 -1
BITMAP
36
D4
E2
DC
D4
08
3E
ENDCHAR
STARTCHAR uni5657
ENCODING 22103
BBX 7 7 0 -1
BITMAP
6A
28
FE
D4
FE
10
6E
ENDCHAR
STARTCHAR uni5658
ENCODING 22104
BBX 7 7 0 -1
BITMAP
7E
D4
FE
D6
FC
54
6A
ENDCHAR
STARTCHAR uni5659
ENCODING 22105
BBX 7 7 0 -1
BITMAP
1C
2A
D4
BE
EA
36
2A
ENDCHAR
STARTCHAR uni565B
ENCODING 22107
BBX 7 7 0 -1
BITMAP
14
F6
BC
B6
EA
36
3E
ENDCHAR
STARTCHAR uni565C
ENCODING 22108
BBX 7 7 0 -1
BITMAP
18
D4
FC
DC
FE
D4
1C
ENDCHAR
STARTCHAR uni5662
ENCODING 22114
BBX 7 7 0 -1
BITMAP
10
FE
BE
AA
FC
08
36
ENDCHAR
STARTCHAR uni5664
ENCODING 22116
BBX 7 7 0 -1
BITMAP
12
F6
D2
DC
FE
08
2A
ENDCHAR
STARTCHAR uni5668
ENCODING 22120
BBX 7 7 0 -1
BITMAP
6C
6C
10
FE
10
EE
6C
ENDCHAR
STARTCHAR uni5669
ENCODING 22121
BBX 7 7 0 -1
BITMAP
FE
54
10
FE
54
10
FE
ENDCHAR
STARTCHAR uni566A
ENCODING 22122
BBX 7 7 0 -1
BITMAP
1C
F4
BE
AA
FE
1C
2A
ENDCHAR
STARTCHAR uni566B
ENCODING 22123
BBX 7 7 0 -1
BITMAP
08
FE
D4
FE
DC
32
2E
ENDCHAR
STARTCHAR uni566C
ENCODING 22124
BBX 7 7 0 -1
BITMAP
24
F6
D2
FE
DC
2A
3E
ENDCHAR
STARTCHAR uni5671
ENCODING 22129
BBX 7 7 0 -1
BITMAP
0E
3E
EA
BC
EA
34
4A
ENDCHAR
STARTCHAR uni5674
ENCODING 22132
BBX 7 7 0 -1
BITMAP
08
FE
D4
FE
D4
1C
22
ENDCHAR
STARTCHAR uni5676
ENCODING 22134
BBX 7 7 0 -1
BITMAP
14
3E
DC
DE
EA
D6
1A
ENDCHAR
STARTCHAR uni5678
ENCODING 22136
BBX 7 7 0 -1
BITMAP
2E
F4
AE
BE
E6
30
0A
ENDCHAR
STARTCHAR uni567A
ENCODING 22138
BBX 7 7 0 -1
BITMAP
12
FC
E8
DE
FA
3A
52
ENDCHAR
STARTCHAR uni567B
ENCODING 22139
BBX 7 7 0 -1
BITMAP
08
3E
FE
DC
F6
C8
3E
ENDCHAR
STARTCHAR uni567C
ENCODING 22140
BBX 7 7 0 -1
BITMAP
04
FA
AC
B4
EE
34
44
ENDCHAR
ENDFONT
